<svg xmlns="http://www.w3.org/2000/svg" xmlns:xlink="http://www.w3.org/1999/xlink" version="1.1" style="" xml:space="preserve" width="55.999" height="55.999"><rect id="backgroundrect" width="100%" height="100%" x="0" y="0" fill="none" stroke="none"/>
















<g class="currentLayer" style=""><title>Layer 1</title><g id="svg_1" class="selected" fill-opacity="1" fill="#5dba2f">
	<path d="M55.125,32.588l-2.85-2.85c-1.164-1.164-3.057-1.162-4.221,0L32.664,45.129l-2.121,7.779l-0.519,0.519   c-0.388,0.388-0.389,1.014-0.006,1.405l-0.005,0.02l0.019-0.005c0.194,0.19,0.446,0.288,0.699,0.288   c0.256,0,0.512-0.098,0.707-0.293l0.52-0.52l7.778-2.121l15.39-15.391C56.29,35.646,56.29,33.752,55.125,32.588z M34.973,45.649   l10.243-10.242l4.243,4.242L39.216,49.892L34.973,45.649z M34.07,47.574l3.22,3.22l-4.428,1.208L34.07,47.574z M53.711,35.396   l-2.839,2.839l-4.243-4.242l2.839-2.839c0.385-0.385,1.01-0.384,1.394-0.001l2.85,2.85C54.096,34.386,54.096,35.012,53.711,35.396z   " fill="#5dba2f" id="svg_2"/>
	<path d="M27,12.865c-0.552,0-1,0.447-1,1s0.448,1,1,1h18c0.552,0,1-0.447,1-1s-0.448-1-1-1H27z" fill="#5dba2f" id="svg_3"/>
	<path d="M46,27.865c0-0.553-0.448-1-1-1H27c-0.552,0-1,0.447-1,1s0.448,1,1,1h18C45.552,28.865,46,28.417,46,27.865z" fill="#5dba2f" id="svg_4"/>
	<path d="M20.58,8.106c-0.418-0.36-1.05-0.313-1.41,0.108l-6.248,7.288L9.1,12.636c-0.442-0.33-1.068-0.242-1.4,0.2   c-0.332,0.441-0.242,1.068,0.2,1.399l4.571,3.429c0.18,0.135,0.39,0.2,0.6,0.2c0.283,0,0.563-0.119,0.76-0.35l6.857-8   C21.047,9.096,20.999,8.465,20.58,8.106z" fill="#5dba2f" id="svg_5"/>
	<path d="M20.58,22.106c-0.418-0.36-1.05-0.313-1.41,0.108l-6.248,7.288L9.1,26.636c-0.442-0.331-1.068-0.241-1.4,0.2   s-0.242,1.068,0.2,1.399l4.571,3.429c0.18,0.135,0.39,0.2,0.6,0.2c0.283,0,0.563-0.119,0.76-0.35l6.857-8   C21.047,23.096,20.999,22.465,20.58,22.106z" fill="#5dba2f" id="svg_6"/>
	<path d="M19.169,37.214l-6.248,7.287L9.1,41.635c-0.442-0.331-1.068-0.241-1.4,0.2s-0.242,1.068,0.2,1.399l4.571,3.429   c0.18,0.135,0.39,0.2,0.6,0.2c0.283,0,0.563-0.119,0.76-0.35l6.857-7.999c0.359-0.419,0.311-1.05-0.108-1.409   C20.161,36.746,19.529,36.794,19.169,37.214z" fill="#5dba2f" id="svg_7"/>
	<path d="M25,52.865H12.176C6.565,52.865,2,48.3,2,42.689V13.04C2,7.429,6.565,2.865,12.176,2.865h29.648   C47.435,2.865,52,7.429,52,13.04v11.824c0,0.553,0.448,1,1,1s1-0.447,1-1V13.04c0-6.714-5.462-12.176-12.176-12.176H12.176   C5.462,0.865,0,6.326,0,13.04v29.648c0,6.714,5.462,12.176,12.176,12.176H25c0.552,0,1-0.447,1-1S25.552,52.865,25,52.865z" fill="#5dba2f" id="svg_8"/>
</g><g id="svg_9">
</g><g id="svg_10">
</g><g id="svg_11">
</g><g id="svg_12">
</g><g id="svg_13">
</g><g id="svg_14">
</g><g id="svg_15">
</g><g id="svg_16">
</g><g id="svg_17">
</g><g id="svg_18">
</g><g id="svg_19">
</g><g id="svg_20">
</g><g id="svg_21">
</g><g id="svg_22">
</g><g id="svg_23">
</g></g></svg>