<svg xmlns="http://www.w3.org/2000/svg" height="512" width="512.00091"><rect id="backgroundrect" width="100%" height="100%" x="0" y="0" fill="none" stroke="none"/><g class="currentLayer" style=""><title>Layer 1</title><path d="m508.871094 394.503906-39.371094-61.996094c-2.875-4.527343-7.351562-7.667968-12.605469-8.839843-5.25-1.171875-10.636719-.234375-15.164062 2.640625l-11.734375 7.449218c-6.949219 4.414063-10.265625 12.414063-9.085938 20.078126l-7.363281 3.964843c-1.757813.945313-3.394531 1.84375-4.949219 2.710938v-142.511719c0-14.335938-11.664062-26-26-26h-166.59375c-5.523437 0-10 4.476562-10 10v68c0 3.464844 1.792969 6.683594 4.742188 8.503906 2.949218 1.824219 6.628906 1.988282 9.730468.4375l15.527344-7.761718 15.527344 7.761718c1.40625.707032 2.9375 1.058594 4.472656 1.058594 1.53125 0 3.0625-.351562 4.46875-1.058594l15.527344-7.761718 15.53125 7.761718c3.097656 1.550782 6.777344 1.386719 9.726562-.4375 2.949219-1.820312 4.742188-5.039062 4.742188-8.503906v-58h76.597656c3.253906 0 6 2.746094 6 6v156.75c-4.410156 4.621094-7.933594 10.113281-12.414062 18.222656-1.976563 3.578125-3.515625 6.535156-4.75 8.914063-4.996094 9.601562-4.996094 9.601562-18.691406 16.976562l-19.644532 10.574219c-5.65625 3.046875-9.792968 8.125-11.644531 14.304688-.691406 2.300781-1.03125 4.644531-1.03125 6.976562h-49.246094c-5.515625 0-10.796875 1.746094-15.160156 4.9375-4.226563-3.097656-9.488281-4.9375-15.1875-4.9375h-49.242187c-.003907-2.332031-.34375-4.675781-1.035157-6.976562-1.851562-6.179688-5.988281-11.257813-11.644531-14.304688l-19.644531-10.574219c-13.695313-7.375-13.695313-7.375-18.691407-16.976562-1.234374-2.378907-2.773437-5.335938-4.75-8.914063-4.480468-8.109375-8.003906-13.605468-12.414062-18.222656v-156.75c0-3.253906 2.746094-6 6-6h17.632812c5.523438 0 10-4.476562 10-10s-4.476562-10-10-10h-17.632812c-14.335938 0-26 11.664062-26 26v142.511719c-1.554688-.867188-3.195312-1.765625-4.949219-2.710938l-7.363281-3.964843c.375-2.453126.3125-4.976563-.246094-7.472657-1.171875-5.253906-4.3125-9.730469-8.839844-12.605469l-11.730468-7.449218c-4.527344-2.875-9.914063-3.8125-15.167969-2.640625s-9.730469 4.3125-12.605469 8.839843l-39.371094 61.996094c-2.875 4.527344-3.8125 9.914063-2.640624 15.167969 1.171874 5.253906 4.3125 9.726563 8.839843 12.601563l11.734375 7.453124c3.335938 2.121094 7.0625 3.128907 10.75 3.128907 2.824219 0 5.625-.597657 8.203125-1.742188l35.835938 52.292969c.238281.347656.5.679688.777343.992188 20.066407 22.566406 28.792969 27.585937 57.332032 27.582031 3.308594 0 6.886718-.066407 10.777344-.183594.296874-.007813.59375-.03125.886718-.0625l97.257813-11.613281c4.984375-.59375 9.457031-2.433594 13.113281-5.171875 3.65625 2.738281 8.128906 4.578125 13.113281 5.171875l97.257813 11.613281c.292968.03125.589844.054687.886718.0625 3.894532.117187 7.46875.183594 10.777344.183594 28.535156 0 37.265625-5.019531 57.332032-27.582031.277343-.3125.539062-.644532.777343-.992188l35.832031-52.285156c1.207032.53125 2.476563.949218 3.792969 1.246094 1.476563.328124 2.960938.492187 4.4375.492187 3.773438 0 7.476563-1.066406 10.730469-3.132813l11.730469-7.453124c9.371093-5.945313 12.152343-18.402344 6.203125-27.769532zm-222.871094-140.683594-5.527344-2.765624c-2.8125-1.40625-6.128906-1.40625-8.941406 0l-15.527344 7.765624-15.53125-7.765624c-2.8125-1.40625-6.128906-1.40625-8.941406 0l-5.527344 2.765624v-41.820312h59.996094zm-265.945312 151.570313c-.039063-.019531-.0625-.128906-.039063-.164063l39.371094-62c.023437-.03125.066406-.050781.109375-.050781.023437 0 .042968.003907.058594.015625l11.730468 7.449219c.050782.03125.070313.121094.039063.167969l-37.9375 59.738281c-.019531.03125-.039063.0625-.0625.09375l-1.371094 2.164063c-.023437.039062-.132813.058593-.167969.039062zm220.460937 74.875-96.808594 11.554687c-31.6875.921876-34.507812-.921874-51.707031-20.242187l-38.242188-55.800781 28.078126-44.210938 7.140624 3.84375c8.695313 4.683594 13.890626 7.75 17.71875 11.039063.15625.140625.308594.277343.46875.410156 4.34375 3.867187 6.933594 8.148437 11.152344 15.785156 1.851563 3.359375 3.265625 6.074219 4.515625 8.472657 6.847657 13.167968 9.015625 15.699218 26.949219 25.355468l19.644531 10.578125c1.285157.691407 1.785157 1.824219 1.972657 2.441407.183593.613281.390624 1.835937-.304688 3.121093-.367188.691407-.738281 1.273438-1.105469 1.785157-.082031.101562-.15625.210937-.238281.316406-2.734375 3.5625-5.269531 2.597656-6.722656 2.035156-9.65625-3.722656-17.332032-6.128906-24.757813-8.460938-7.714843-2.417968-15.003906-4.707031-24.136719-8.34375-5.128906-2.042968-10.945312.457032-12.988281 5.585938-2.046875 5.132812.457031 10.949219 5.585938 12.992188 9.832031 3.917968 17.824219 6.425781 25.554687 8.847656 7.121094 2.234375 14.488282 4.546875 23.546875 8.039062 3.253907 1.253906 6.5 1.863282 9.65625 1.863282 6.097657 0 11.832031-2.285157 16.554688-6.554688h58.785156c2.5 0 5.171875 1.726562 5.175781 4.296875v.003906.007813c-.003906 3.164062-2.757812 4.910156-5.488281 5.238281zm179.488281-8.683594c-17.199218 19.320313-20.019531 21.160157-51.707031 20.242188l-96.808594-11.558594c-2.730469-.328125-5.484375-2.074219-5.484375-5.242187v-.003907c0-.003906 0-.003906 0-.007812 0-1.332031.71875-2.273438 1.320313-2.828125 1.007812-.929688 2.414062-1.464844 3.851562-1.464844h58.785157c4.722656 4.269531 10.460937 6.554688 16.554687 6.554688 3.15625 0 6.40625-.609376 9.65625-1.863282 9.058594-3.492187 16.425781-5.804687 23.550781-8.039062 7.730469-2.425782 15.722656-4.933594 25.550782-8.847656 5.132812-2.042969 7.632812-7.859376 5.589843-12.992188-2.042969-5.128906-7.859375-7.632812-12.992187-5.585938-9.128906 3.636719-16.417969 5.921876-24.132813 8.34375-7.425781 2.328126-15.105469 4.738282-24.761719 8.460938-1.453124.558594-3.988281 1.527344-6.730468-2.046875-.074219-.097656-.144532-.199219-.222656-.296875-.367188-.511719-.742188-1.101562-1.113282-1.792969-.691406-1.285156-.488281-2.507812-.300781-3.121093.183594-.617188.683594-1.75 1.96875-2.441407l19.644531-10.578125c17.9375-9.65625 20.101563-12.1875 26.953125-25.355468 1.246094-2.398438 2.660157-5.113282 4.515625-8.472657 4.21875-7.636719 6.808594-11.917969 11.152344-15.789062.15625-.125.304688-.261719.453125-.394531 3.828125-3.296876 9.027344-6.363282 17.734375-11.050782l7.136719-3.84375 28.078125 44.210938zm71.945313-66.191406-11.730469 7.453125c-.050781.03125-.136719.011719-.167969-.039062l-39.371093-61.996094c-.023438-.035156 0-.144532.039062-.167969l11.730469-7.449219c.015625-.011718.035156-.015625.058593-.015625.042969 0 .085938.019531.109376.050781l39.371093 62c.03125.046876.007813.136719-.039062.164063zm0 0" fill="#5dba2f" id="svg_1" class="" fill-opacity="1"/><path d="m175.769531 212h.269531c5.519532 0 10-4.476562 10-10s-4.480468-10-10-10h-.269531c-5.523437 0-10 4.476562-10 10s4.476563 10 10 10zm0 0" fill="#5dba2f" id="svg_2" class="" fill-opacity="1"/><path d="m249.96875 386.523438c-5.523438 0-10 4.476562-10 10 0 5.523437 4.476562 10 10 10h41.035156c5.523438 0 10-4.476563 10-10 0-5.523438-4.476562-10-10-10zm0 0" fill="#5dba2f" id="svg_3" class="" fill-opacity="1"/><path d="m221 386.523438c-5.519531 0-10 4.476562-10 10 0 5.523437 4.480469 10 10 10h.238281c5.523438 0 10-4.476563 10-10 0-5.523438-4.476562-10-10-10zm0 0" fill="#5dba2f" id="svg_4" class="" fill-opacity="1"/><path d="m313.253906 366.523438c0-5.523438-4.480468-10-10-10h-94.5c-5.523437 0-10 4.476562-10 10 0 5.519531 4.476563 10 10 10h94.5c5.519532 0 10-4.480469 10-10zm0 0" fill="#5dba2f" id="svg_5" class="selected" fill-opacity="1"/><path d="m215.90625 137.554688c14.519531 14.046874 31.789062 22.441406 40.097656 22.441406 8.304688 0 25.574219-8.394532 40.09375-22.441406 13.640625-13.199219 29.902344-36.230469 29.902344-71.015626v-31.414062c0-5.519531-4.476562-9.996094-10-9.996094-7.949219 0-21.261719-6.863281-24.023438-17.617187-1.132812-4.417969-5.117187-7.511719-9.683593-7.511719h-52.582031c-4.5625 0-8.550782 3.089844-9.683594 7.511719-2.761719 10.753906-16.074219 17.617187-24.023438 17.617187-5.523437 0-10 4.476563-10 9.996094v31.414062c0 34.785157 16.261719 57.816407 29.902344 71.015626zm-9.902344-93.761719c12.078125-3.113281 24.425782-11.542969 30.574219-23.792969h38.851563c6.144531 12.25 18.492187 20.679688 30.574218 23.792969v22.746093c0 27.003907-12.289062 45.054688-22.597656 55.445313-11.703125 11.792969-23.972656 17.105469-27.402344 17.941406-3.429687-.835937-15.699218-6.148437-27.402344-17.941406-10.308593-10.390625-22.597656-28.441406-22.597656-55.445313zm0 0" fill="#5dba2f" id="svg_6" class="" fill-opacity="1"/><path d="m248.003906 106c2.558594 0 5.117188-.976562 7.070313-2.929688l32-32c3.902343-3.90625 3.902343-10.238281 0-14.144531-3.90625-3.902343-10.238281-3.902343-14.144531 0l-24.929688 24.929688-8.929688-8.929688c-3.902343-3.902343-10.234374-3.902343-14.140624 0-3.90625 3.90625-3.90625 10.238281 0 14.144531l16 16c1.953124 1.953126 4.511718 2.929688 7.074218 2.929688zm0 0" fill="#5dba2f" id="svg_7" class="" fill-opacity="1"/></g></svg>