<svg xmlns="http://www.w3.org/2000/svg" xmlns:xlink="http://www.w3.org/1999/xlink" width="200" height="200" viewBox="0 0 200 200">
  <defs>
    <clipPath id="clip-Custom_Size_3">
      <rect width="200" height="200"/>
    </clipPath>
  </defs>
  <g id="Custom_Size_3" data-name="Custom Size – 3" clip-path="url(#clip-Custom_Size_3)">
    <rect width="200" height="200" fill="#fff"/>
    <g id="Group_597" data-name="Group 597" transform="translate(-2.8 2237.441)">
      <path id="Path_1331" data-name="Path 1331" d="M93.346-2015.927a40.778,40.778,0,0,1-40.773,40.773A40.778,40.778,0,0,1,11.8-2015.927,40.778,40.778,0,0,1,52.573-2056.7,40.729,40.729,0,0,1,93.346-2015.927Z" transform="translate(0 -101.013)" fill="#9deded" opacity="0.29"/>
      <path id="Path_1332" data-name="Path 1332" d="M228.4-2121.552a64.453,64.453,0,0,1-64.448,64.448A64.453,64.453,0,0,1,99.5-2121.552,64.453,64.453,0,0,1,163.948-2186,64.453,64.453,0,0,1,228.4-2121.552Z" transform="translate(-53.774 -21.731)" fill="#efefa8" opacity="0.49"/>
      <path id="Path_1333" data-name="Path 1333" d="M349.627-1827.463c0,1.354-10.638,2.437-23.713,2.437-13.114,0-23.713-1.083-23.713-2.437s10.638-2.437,23.713-2.437C339.027-1829.9,349.627-1828.817,349.627-1827.463Z" transform="translate(-178.061 -240.077)" fill="#a8bcff" opacity="0.3"/>
      <path id="Path_1334" data-name="Path 1334" d="M467.115-2072.178c0,1.818-.619,2.321-3.288,3.327s-4.139,1.509-4.139,1.509a3.294,3.294,0,0,1-3.288-3.327V-2212.1a3.319,3.319,0,0,1,3.288-3.327,9.78,9.78,0,0,1,3.52.5c2.244.657,3.6,1.818,3.6,3.636Z" transform="translate(-272.61 -3.679)" fill="#b0bcd8"/>
      <path id="Path_1335" data-name="Path 1335" d="M392.206-2070.119a2.782,2.782,0,0,1-2.592,2.94l-42.669-14.777a2.782,2.782,0,0,1-2.592-2.94L343-2200.871a2.782,2.782,0,0,1,2.592-2.94l43.984-11.489a2.782,2.782,0,0,1,2.592,2.94v142.241Z" transform="translate(-203.078 -3.765)" fill="#b0bcd8"/>
      <path id="Path_1336" data-name="Path 1336" d="M466.216-2078.178c0,1.818-.619,2.321-3.288,3.327s-4.139,1.509-4.139,1.509a3.294,3.294,0,0,1-3.288-3.327V-2218.1a3.319,3.319,0,0,1,3.288-3.327,9.78,9.78,0,0,1,3.52.5c2.244.658,3.6,1.818,3.6,3.636Z" transform="translate(-272.059 0)" fill="#0b1238"/>
      <path id="Path_1337" data-name="Path 1337" d="M391.367-2076.18a2.782,2.782,0,0,1-2.592,2.94l-42.669-14.777a2.782,2.782,0,0,1-2.592-2.94L342.2-2206.971a2.782,2.782,0,0,1,2.592-2.94l43.984-11.489a2.782,2.782,0,0,1,2.592,2.94Z" transform="translate(-202.588 -0.025)" fill="#2e3054"/>
      <path id="Path_1338" data-name="Path 1338" d="M342.1-2206.787l.967,84.912,45.222-98.683c-.039-.194-.077-.348-.116-.542l-43.481,11.373A2.782,2.782,0,0,0,342.1-2206.787Z" transform="translate(-202.526 -0.209)" fill="#fff" opacity="0.2"/>
      <path id="Path_1339" data-name="Path 1339" d="M392.835-2071.643a2.246,2.246,0,0,1-2.282,2.205l-33.114-8.085a2.246,2.246,0,0,1-2.282-2.2l-1.857-90.211a2.246,2.246,0,0,1,2.282-2.2l34.97-8.356a2.246,2.246,0,0,1,2.282,2.205Z" transform="translate(-209.394 -25.103)" fill="#fff"/>
      <path id="Path_1340" data-name="Path 1340" d="M392.835-2071.643a2.246,2.246,0,0,1-2.282,2.205l-33.114-8.085a2.246,2.246,0,0,1-2.282-2.2l-1.857-90.211a2.246,2.246,0,0,1,2.282-2.2l34.97-8.356a2.246,2.246,0,0,1,2.282,2.205Z" transform="translate(-209.394 -25.103)" fill="#a8bcff" opacity="0.3"/>
      <path id="Path_1341" data-name="Path 1341" d="M267.9-2004.64c2.244-1.238,4.178-5.687,7.04-7.5,0,0-.812-.774-2.669,0s-2.437,2.089-3.211,2.9Z" transform="translate(-157.03 -128.121)" fill="#e99a7e"/>
      <path id="Path_1342" data-name="Path 1342" d="M249.9-2002.026c2.631-.7,5.416-5.106,8.781-6.189,0,0-.735-1.122-2.863-.851-2.089.271-2.94,1.586-3.907,2.244Z" transform="translate(-145.993 -130.193)" fill="#e99a7e"/>
      <path id="Path_1343" data-name="Path 1343" d="M237-2004.926c2.553-.658,5.222-4.99,8.472-6.035a2.834,2.834,0,0,0-2.785-.89c-2.05.271-2.863,1.509-3.791,2.205Z" transform="translate(-138.083 -128.493)" fill="#c6966d"/>
      <path id="Path_1344" data-name="Path 1344" d="M225.8-2009.926c2.553-.658,5.222-4.99,8.472-6.035a2.834,2.834,0,0,0-2.785-.89c-2.05.271-2.863,1.509-3.791,2.205Z" transform="translate(-131.216 -125.428)" fill="#c6966d"/>
      <path id="Path_1345" data-name="Path 1345" d="M318.726-1978.7l7.466,62.514-7.892,5.106Z" transform="translate(-187.933 -148.839)" fill="#646da0"/>
      <path id="Path_1346" data-name="Path 1346" d="M229.637-1911.08l-54.893,1.509L173.7-1976.3l56.363-2.4Z" transform="translate(-99.27 -148.839)" fill="#ebf7ff"/>
      <path id="Path_1347" data-name="Path 1347" d="M282.621-1957.262a1.324,1.324,0,0,1-1.393,1.315,1.322,1.322,0,0,1-1.431-1.238,1.313,1.313,0,0,1,1.354-1.315A1.385,1.385,0,0,1,282.621-1957.262Z" transform="translate(-164.324 -161.225)" fill="#e4edf1"/>
      <path id="Path_1348" data-name="Path 1348" d="M203.783-1954.665a1.313,1.313,0,0,1-1.354,1.315,1.345,1.345,0,0,1-1.431-1.238,1.313,1.313,0,0,1,1.354-1.315A1.319,1.319,0,0,1,203.783-1954.665Z" transform="translate(-116.007 -162.816)" fill="#e4edf1"/>
      <path id="Path_1349" data-name="Path 1349" d="M318.3-1813.71l3.443-6.189,4.449,1.083Z" transform="translate(-187.933 -246.209)" fill="#545e7f"/>
      <path id="Path_1350" data-name="Path 1350" d="M235.011-1993.784v-.271c-.077-3.133-1.122-23.907-15.938-23.946a12.1,12.1,0,0,0-7.853,2.708c-7.118,5.841-7.582,19.187-7.582,21.779,0,.077-.039.309-.039.387a.351.351,0,0,0,.387.309.384.384,0,0,0,.387-.271h.039v-.271c0-2.089.387-15.783,7.35-21.508a11.334,11.334,0,0,1,7.311-2.514c14.042.039,15.087,20.812,15.164,23.4v.232a.347.347,0,0,0,.387.271.408.408,0,0,0,.387-.232C234.973-1993.668,235.011-1993.745,235.011-1993.784Z" transform="translate(-117.604 -124.742)" fill="#0b1238"/>
      <path id="Path_1351" data-name="Path 1351" d="M272.1-1951.6l-14.932,61.16L248-1888.467Z" transform="translate(-144.828 -165.456)" fill="#646da0"/>
      <path id="Path_1352" data-name="Path 1352" d="M165.653-1916.366,113.7-1934.238l22.437-62.862,53.616,17.6Z" transform="translate(-62.481 -137.557)" fill="#f2a0a4"/>
      <path id="Path_1353" data-name="Path 1353" d="M267.569-1943.851a1.378,1.378,0,0,1-1.741.774,1.362,1.362,0,0,1-.928-1.663,1.378,1.378,0,0,1,1.741-.774A1.362,1.362,0,0,1,267.569-1943.851Z" transform="translate(-155.151 -169.143)" fill="#e4edf1"/>
      <path id="Path_1354" data-name="Path 1354" d="M192.824-1969.151a1.379,1.379,0,0,1-1.741.774,1.323,1.323,0,0,1-.89-1.663,1.378,1.378,0,0,1,1.741-.774A1.337,1.337,0,0,1,192.824-1969.151Z" transform="translate(-109.342 -153.63)" fill="#e4edf1"/>
      <path id="Path_1355" data-name="Path 1355" d="M248-1795.635l5.377-4.565,3.791,2.592Z" transform="translate(-144.828 -258.288)" fill="#545e7f"/>
      <path id="Path_1356" data-name="Path 1356" d="M222.72-1988.123c.039-.077.039-.155.077-.232,1.006-2.94,7.35-22.785-6.5-28.007a12.087,12.087,0,0,0-8.317-.232c-8.743,2.979-13.81,15.319-14.739,17.756a1.374,1.374,0,0,0-.155.348.4.4,0,0,0,.271.426.391.391,0,0,0,.464-.116h.039a1.24,1.24,0,0,0,.077-.232c.735-1.934,5.88-14.623,14.429-17.524a11.34,11.34,0,0,1,7.737.193c13.114,4.952,6.808,24.8,5.957,27.234a.551.551,0,0,0-.077.232.384.384,0,0,0,.271.387.352.352,0,0,0,.426-.116Z" transform="translate(-111.154 -125.219)" fill="#0b1238"/>
      <path id="Path_1357" data-name="Path 1357" d="M328.4-1996.6l14.429,61.276-7.311,5.957Z" transform="translate(-194.126 -137.864)" fill="#646da0"/>
      <path id="Path_1358" data-name="Path 1358" d="M247.162-1929.367l-54.39,7.582-8.472-66.188,55.744-8.626Z" transform="translate(-105.77 -137.864)" fill="#ade59e"/>
      <path id="Path_1359" data-name="Path 1359" d="M294.562-1971.53a1.36,1.36,0,0,1-1.2,1.47,1.375,1.375,0,0,1-1.586-1.083,1.36,1.36,0,0,1,1.2-1.47A1.406,1.406,0,0,1,294.562-1971.53Z" transform="translate(-171.661 -152.566)" fill="#e4edf1"/>
      <path id="Path_1360" data-name="Path 1360" d="M216.422-1960.243a1.332,1.332,0,0,1-1.2,1.47,1.335,1.335,0,0,1-1.547-1.083,1.332,1.332,0,0,1,1.2-1.47A1.357,1.357,0,0,1,216.422-1960.243Z" transform="translate(-123.772 -159.481)" fill="#e4edf1"/>
      <path id="Path_1361" data-name="Path 1361" d="M346.8-1833.162l2.747-6.538,4.565.58Z" transform="translate(-205.408 -234.068)" fill="#545e7f"/>
      <path id="Path_1362" data-name="Path 1362" d="M246.876-2005.117c0-.077-.039-.155-.039-.271-.426-3.094-3.791-23.636-18.491-22.05a11.95,11.95,0,0,0-7.5,3.559c-6.422,6.615-5.377,19.922-5.106,22.514v.387a.356.356,0,0,0,.426.271c.193-.039.348-.155.348-.31h.039a1.236,1.236,0,0,0-.039-.271c-.232-2.089-1.354-15.706,4.913-22.166a11.277,11.277,0,0,1,6.963-3.327c13.926-1.548,17.292,18.994,17.679,21.586a1.365,1.365,0,0,0,.039.232.39.39,0,0,0,.426.232.439.439,0,0,0,.348-.271Z" transform="translate(-124.904 -118.901)" fill="#0b1238"/>
      <path id="Path_1363" data-name="Path 1363" d="M293.444-1978.359c-.271-.387-.812-1.393-1.006-1.741,0,.387.077.735-.039.812.271.464.542.928.735,1.2.232.348.542.735.851,1.122a.9.9,0,0,0,.271-.271C293.986-1977.624,293.715-1978.011,293.444-1978.359Z" transform="translate(-172.052 -147.981)" fill="#2e3054"/>
      <path id="Path_1364" data-name="Path 1364" d="M297.283-2091.9l-56.595,8.356c-4.41,1.238-9.4,8.859-10.445,10.87l-8.51,12.688s-1.7,2.94.58,3.946c1.7.735,2.979-2.36,4.255-4.023s4.255-6.576,4.255-6.576-3.327,6.847-4.139,8.395-1.431,3.327.077,4.062c.967.58,2.244-.464,3.4-2.012s5.609-9.516,5.609-9.516-3.4,6.925-3.83,8.472c-.464,1.547-1.238,3.327-.077,4.178,1.161.89,2.979-1.431,3.636-2.514s4.874-8.394,4.874-8.394-1.625,4.952-2.282,6.731c-.658,1.818-.387,3.946.735,4.023A2.118,2.118,0,0,0,241-2054.57c1.7-3.791,1.277-4.178,4.449-13.191.658-1.934,1.393-6.576,4.99-6.615,7.814-.89,38.491,1.625,46.266.967v-.039c.077,0,.155.039.232.039,1.586,0,2.9-4.178,2.9-9.323C299.72-2087.374,298.676-2091.2,297.283-2091.9Z" transform="translate(-128.348 -79.429)" fill="#f5b29c"/>
      <g id="Group_572" data-name="Group 572" transform="translate(94.855 -2145.759)">
        <g id="Group_571" data-name="Group 571" transform="translate(0 0)">
          <g id="Group_569" data-name="Group 569" transform="translate(7.157 0.039)">
            <path id="Path_1365" data-name="Path 1365" d="M245.271-2025.7c-.077.155-.155.348-.271.542l.309-.542Z" transform="translate(-245 2025.7)" fill="#e99a7e"/>
          </g>
          <g id="Group_570" data-name="Group 570">
            <path id="Path_1366" data-name="Path 1366" d="M231.954-2023.943c-.851,1.509-4.062,6.383-5.454,8.472,1.277-.425,2.863-2.36,3.83-3.791,1.277-1.857,2.863-5.377,3.559-6.538C233.618-2025.723,232.844-2025.49,231.954-2023.943Z" transform="translate(-226.5 2025.8)" fill="#e99a7e"/>
          </g>
        </g>
      </g>
      <path id="Path_1367" data-name="Path 1367" d="M243.119-2020.888c-.89,1.625-3.752,7.466-5.919,9.168a3.677,3.677,0,0,0,2.9-1.741,28.417,28.417,0,0,0,2.089-3.365l2.321-4.719c.309-.542.58-1.044.774-1.354C245.13-2022.861,244.2-2022.784,243.119-2020.888Z" transform="translate(-138.206 -121.737)" fill="#e99a7e"/>
      <path id="Path_1368" data-name="Path 1368" d="M252.54-2010.459l5.106-8.743s-1.044-.116-2.244,1.973c-.89,1.547-3.636,7.891-5.8,8.9C250.567-2008.061,251.844-2009.415,252.54-2010.459Z" transform="translate(-145.809 -124.004)" fill="#e99a7e"/>
      <path id="Path_1369" data-name="Path 1369" d="M236.944-2022.064c1.663-3.288,1.122-3.6.928-3.636-.7,1.393-3.636,6.654-4.333,8.008-.7,1.277-.851,2.785-.155,3.636C233.269-2015.333,235.2-2018.659,236.944-2022.064Z" transform="translate(-135.59 -120.021)" fill="#fce0dc"/>
      <path id="Path_1370" data-name="Path 1370" d="M247.539-2010.646c-.039-1.393,1.161-4.6,2.631-8.046,1.509-3.559,1.277-3.907,1.122-3.907a52.61,52.61,0,0,0-3.791,7.543C247.113-2013.548,246.572-2011.536,247.539-2010.646Z" transform="translate(-144.212 -121.921)" fill="#fce0dc"/>
      <g id="Group_573" data-name="Group 573" transform="translate(109.328 -2143.129)">
        <path id="Path_1371" data-name="Path 1371" d="M270.4-2019Z" transform="translate(-267.891 2019)" fill="#fce0dc"/>
        <path id="Path_1372" data-name="Path 1372" d="M264.45-2008.749c-.232-1.238.193-3.559,1.238-6.228,1.431-3.636.928-3.984.774-4.023-.348,1.006-1.625,4.913-2.205,6.5C263.754-2011.031,263.792-2009.368,264.45-2008.749Z" transform="translate(-263.914 2019)" fill="#fce0dc"/>
      </g>
      <path id="Path_1373" data-name="Path 1373" d="M258.443-1917.728a13.752,13.752,0,0,1-13.772,13.771,13.752,13.752,0,0,1-13.772-13.771,13.753,13.753,0,0,1,13.772-13.772A13.8,13.8,0,0,1,258.443-1917.728Z" transform="translate(-134.343 -177.78)" fill="#c5eabb"/>
      <g id="Group_574" data-name="Group 574" transform="translate(58.879 -2196.126)">
        <path id="Path_1374" data-name="Path 1374" d="M182.822-2129.579a3.326,3.326,0,0,1-3.327,3.327H136.827a3.326,3.326,0,0,1-3.327-3.327v-23.094a3.327,3.327,0,0,1,3.327-3.327h42.63a3.327,3.327,0,0,1,3.327,3.327v23.094Z" transform="translate(-133.5 2156)" fill="#97c5ef"/>
        <rect id="Rectangle_41" data-name="Rectangle 41" width="38.955" height="3.404" transform="translate(3.791 16.325)" fill="#cae1fc"/>
        <rect id="Rectangle_42" data-name="Rectangle 42" width="25.996" height="1.509" transform="translate(16.789 22.437)" fill="#cae1fc"/>
        <rect id="Rectangle_43" data-name="Rectangle 43" width="8.317" height="1.509" transform="translate(3.791 22.437)" fill="#cae1fc"/>
        <rect id="Rectangle_44" data-name="Rectangle 44" width="8.665" height="7.002" transform="translate(4.797 6.46)" fill="#cae1fc"/>
        <circle id="Ellipse_27" data-name="Ellipse 27" cx="4.178" cy="4.178" r="4.178" transform="translate(31.411 4.642)" fill="#f2a0a4"/>
        <circle id="Ellipse_28" data-name="Ellipse 28" cx="4.178" cy="4.178" r="4.178" transform="translate(37.059 4.642)" fill="#fff"/>
      </g>
      <g id="Group_593" data-name="Group 593" transform="translate(12.46 -2125.218)">
        <path id="Path_1375" data-name="Path 1375" d="M49.572-1932.468c-1.663-3.249-4.294-4.836-3.249-9.013.426-1.664,1.663-2.708,2.244-4.217.735-1.857.116-2.2-.116-4.139-.542-4.217,2.128-5.068,3.636-8.278,1.083-2.244.735-4.836,2.166-7.2,1.431-2.4,4.139-4.526,4.681-7.389.387,5.068,3.6,12.8-.232,17.06a5.63,5.63,0,0,1,1.663,7.041c-.5,1.161-2.2,2.05-2.476,3.25-.426,1.663.619,1.7.735,3.172.426,4.6-12.92,11.141-9.4,15.745Z" transform="translate(-33.482 1972.7)" fill="#91d8a5"/>
        <path id="Path_1376" data-name="Path 1376" d="M49.572-1932.169c-1.663-3.249-4.294-4.835-3.249-9.013.426-1.663,1.663-2.708,2.244-4.217.735-1.857.116-2.2-.116-4.139-.542-4.217,2.128-5.068,3.636-8.278,1.083-2.244.735-4.836,2.166-7.2,1.431-2.4,4.139-4.526,4.681-7.389.387,5.068,3.6,12.8-.232,17.06a5.63,5.63,0,0,1,1.663,7.041c-.5,1.161-2.2,2.05-2.476,3.249-.426,1.664.619,1.7.735,3.172.426,4.6-12.92,11.141-9.4,15.744Z" transform="translate(-33.482 1972.516)" fill="#89d384" opacity="0.3"/>
        <g id="Group_575" data-name="Group 575" transform="translate(14.852 0.039)" opacity="0.3">
          <path id="Path_1377" data-name="Path 1377" d="M60.875-1962.7a10.776,10.776,0,0,0,3.017-1.7,1.645,1.645,0,0,0-.077-.426,10.411,10.411,0,0,1-2.9,1.7c.116-.619.193-1.238.271-1.857l.232-1.625c.077-.5.193-1.044.271-1.547.077-.426.193-.851.232-1.277.039-.271.116-.58.155-.89.116-.658.271-1.393.348-2.05a.491.491,0,0,0-.039-.232,6.545,6.545,0,0,1-.58,1.664l-.116.58c-.077.348-.116.657-.193.928l-.232,1.277c-.116.5-.193,1.044-.309,1.547-.077.542-.155,1.083-.232,1.663-.193,1.354-.426,2.785-.7,4.178-1.238-.773-1.779-2.94-2.05-4.835a2.886,2.886,0,0,0-.271.464c.309,1.934.928,4.062,2.244,4.758a1.939,1.939,0,0,0-.077.464c-.309,1.354-.658,2.669-1.006,4.023a11.913,11.913,0,0,1-2.514-4.719c-.039.232-.116.5-.155.735a13.689,13.689,0,0,0,2.553,4.41c-.348,1.122-.658,2.244-1.006,3.365a.293.293,0,0,0-.039.155c-.077.31-.193.619-.271.928a14.115,14.115,0,0,0-.928-1.2,13.6,13.6,0,0,1-.928-1.16,9.577,9.577,0,0,1-1.122-2.708c-.077.116-.193.232-.271.348a9.044,9.044,0,0,0,1.083,2.553,9.4,9.4,0,0,0,.967,1.2c.348.426.735.851,1.044,1.315l.077-.039c-.426,1.431-.851,2.863-1.238,4.294a.55.55,0,0,1-.077.232,6.8,6.8,0,0,0-1.277-1.547c-.309-.309-.58-.619-.774-.851a16.406,16.406,0,0,1-1.973-3.481l-.116.7a18.18,18.18,0,0,0,1.779,3.017,8.081,8.081,0,0,0,.812.89,4.793,4.793,0,0,1,1.354,1.934c-.619,2.321-1.277,4.719-1.934,7.079a38.034,38.034,0,0,0-1.006,5.416c0,.155-.039.271-.039.426.077.116.116.232.193.348l-.077,1.393c.116-.7.193-1.431.309-2.128a32.847,32.847,0,0,1,1.006-5.377c.7-2.36,1.354-4.8,1.973-7.118v-.039a5.655,5.655,0,0,0,.193-.774c.116-.5.271-1.006.426-1.547a12.969,12.969,0,0,1,2.321-.464,12.708,12.708,0,0,0,1.818-.31,10.148,10.148,0,0,0,3.366-1.663c0-.155.039-.31.039-.464a9.739,9.739,0,0,1-3.52,1.78,12.158,12.158,0,0,1-1.779.31,12.2,12.2,0,0,0-2.128.387c.348-1.2.735-2.4,1.083-3.6a3.819,3.819,0,0,1,1.277-.387,8.249,8.249,0,0,0,1.044-.232,8.727,8.727,0,0,0,3.056-1.7,1.687,1.687,0,0,0-.232-.271,7.885,7.885,0,0,1-2.979,1.664,6.455,6.455,0,0,1-1.006.232,8.292,8.292,0,0,0-1.044.232c.542-1.78,1.083-3.559,1.586-5.377h.387a8.722,8.722,0,0,0,3.675-1.276c.039-.155.039-.31.077-.5a7.954,7.954,0,0,1-4.062,1.431c.155-.58.271-1.161.426-1.741A25.591,25.591,0,0,0,60.875-1962.7Z" transform="translate(-51.9 1972.6)" fill="#fff"/>
          <path id="Path_1378" data-name="Path 1378" d="M53.932-1862.526c.039-.271.116-.5.155-.774a6.723,6.723,0,0,0-.387.735Z" transform="translate(-53.004 1905.582)" fill="#fff"/>
        </g>
        <path id="Path_1379" data-name="Path 1379" d="M79.24-1922.1c-3.482,2.05-13.423.967-12.108,7.234-4.6-.619-6.035,1.16-5.725,5.532-.039-.464-1.7-.155-1.934,0a4.942,4.942,0,0,0-1.122,1.393,11.063,11.063,0,0,0-1.006,4.217,38,38,0,0,1-1.044,5.067c2.94-3.559,13.539-3.52,11.683-7.891,1.625.193,4.681.774,6-.58,1.7-1.7-.309-3.482-1.779-4.371,6.383-.812,5.725-3.6,4.836-6.731l1.122-1.354A7.63,7.63,0,0,0,79.24-1922.1Z" transform="translate(-39.746 1941.674)" fill="#c4db71"/>
        <g id="Group_592" data-name="Group 592" transform="translate(0 13.346)">
          <g id="Group_576" data-name="Group 576" transform="translate(7.115 3.443)">
            <path id="Path_1380" data-name="Path 1380" d="M40.6-1902.1c-8.743-5.377-8.7-27-8.7-27.195h.271c0,.232-.039,21.7,8.588,26.963Z" transform="translate(-31.9 1929.3)" fill="#46c65b"/>
          </g>
          <g id="Group_577" data-name="Group 577" transform="translate(12.841 22.648)">
            <path id="Path_1381" data-name="Path 1381" d="M46.7-1874.952c0,.077,1.083-5.068,3.443-4.681s-3.443,4.758-3.443,4.758Z" transform="translate(-46.7 1879.654)" fill="#46c65b"/>
          </g>
          <g id="Group_578" data-name="Group 578" transform="translate(11.061 19.771)">
            <path id="Path_1382" data-name="Path 1382" d="M42.1-1882.221s2.244-5.88,4.023-4.719S42.1-1882.221,42.1-1882.221Z" transform="translate(-42.1 1887.092)" fill="#46c65b"/>
          </g>
          <g id="Group_579" data-name="Group 579" transform="translate(9.823 16.301)">
            <path id="Path_1383" data-name="Path 1383" d="M38.9-1891.086s2.863-6.306,5.068-4.719C45.631-1894.568,38.9-1891.086,38.9-1891.086Z" transform="translate(-38.9 1896.061)" fill="#46c65b"/>
          </g>
          <g id="Group_580" data-name="Group 580" transform="translate(8.431 10.494)">
            <path id="Path_1384" data-name="Path 1384" d="M35.3-1906.208s2.2-6.189,3.907-4.6C40.948-1909.265,35.3-1906.208,35.3-1906.208Z" transform="translate(-35.3 1911.072)" fill="#46c65b"/>
          </g>
          <g id="Group_581" data-name="Group 581" transform="translate(8.74 13.695)">
            <path id="Path_1385" data-name="Path 1385" d="M36.1-1898.815s3.636-5.532,4.913-3.559C41.825-1901.059,36.1-1898.815,36.1-1898.815Z" transform="translate(-36.1 1902.799)" fill="#46c65b"/>
          </g>
          <g id="Group_582" data-name="Group 582" transform="translate(7.85 6.133)">
            <path id="Path_1386" data-name="Path 1386" d="M33.8-1917.106s2.553-6.692,4.255-4.952C39.757-1920.356,33.8-1917.106,33.8-1917.106Z" transform="translate(-33.8 1922.347)" fill="#46c65b"/>
          </g>
          <g id="Group_583" data-name="Group 583" transform="translate(7.618 2.463)">
            <path id="Path_1387" data-name="Path 1387" d="M33.2-1927.371s1.47-5.88,2.437-4.139C36.566-1929.77,33.2-1927.371,33.2-1927.371Z" transform="translate(-33.2 1931.833)" fill="#46c65b"/>
          </g>
          <g id="Group_584" data-name="Group 584" transform="translate(6.033)">
            <path id="Path_1388" data-name="Path 1388" d="M30.3-1932.862s-2.321-5.377-.5-5.338C31.616-1938.2,30.3-1932.862,30.3-1932.862Z" transform="translate(-29.102 1938.2)" fill="#46c65b"/>
          </g>
          <g id="Group_585" data-name="Group 585" transform="translate(3.409 3.441)">
            <path id="Path_1389" data-name="Path 1389" d="M26.528-1925.822s-5.454-1.625-3.946-3.172C24.129-1930.541,26.528-1925.822,26.528-1925.822Z" transform="translate(-22.318 1929.305)" fill="#46c65b"/>
          </g>
          <g id="Group_586" data-name="Group 586" transform="translate(1.95 5.854)">
            <path id="Path_1390" data-name="Path 1390" d="M24.294-1918.631s-6.422-1.741-5.687-3.946C19.381-1924.82,24.294-1918.631,24.294-1918.631Z" transform="translate(-18.549 1923.067)" fill="#46c65b"/>
          </g>
          <g id="Group_587" data-name="Group 587" transform="translate(1.051 8.927)">
            <path id="Path_1391" data-name="Path 1391" d="M23.525-1910.434s-8.511-1.973-7.157-4.217C17.684-1916.894,23.525-1910.434,23.525-1910.434Z" transform="translate(-16.223 1915.124)" fill="#46c65b"/>
          </g>
          <g id="Group_588" data-name="Group 588" transform="translate(0 12.656)">
            <path id="Path_1392" data-name="Path 1392" d="M22.44-1901.273s-9.594-.967-8.9-3.559C14.239-1907.462,22.44-1901.273,22.44-1901.273Z" transform="translate(-13.507 1905.483)" fill="#46c65b"/>
          </g>
          <g id="Group_589" data-name="Group 589" transform="translate(1.046 20.525)">
            <path id="Path_1393" data-name="Path 1393" d="M25.451-1883.424s-8.549-3.25-9.207-.812C15.548-1881.838,25.451-1883.424,25.451-1883.424Z" transform="translate(-16.209 1885.143)" fill="#46c65b"/>
          </g>
          <g id="Group_590" data-name="Group 590" transform="translate(1.051 16.599)">
            <path id="Path_1394" data-name="Path 1394" d="M24.222-1892.934s-7.041-3.946-7.93-1.625C15.363-1892.2,24.222-1892.934,24.222-1892.934Z" transform="translate(-16.224 1895.29)" fill="#46c65b"/>
          </g>
          <g id="Group_591" data-name="Group 591" transform="translate(3.691 23.462)">
            <path id="Path_1395" data-name="Path 1395" d="M30.263-1876.873s-7.659-1.9-7.2.658,7.311-.155,7.311-.155Z" transform="translate(-23.048 1877.55)" fill="#46c65b"/>
          </g>
        </g>
        <path id="Path_1396" data-name="Path 1396" d="M53.379-1871.9c0,10.329-3.714,18.684-8.24,18.684-4.565,0-8.24-8.356-8.24-18.684Z" transform="translate(-27.85 1910.893)" fill="#997059"/>
        <path id="Path_1397" data-name="Path 1397" d="M53.379-1825.3c0,.619-3.714,1.161-8.24,1.161-4.565,0-8.24-.5-8.24-1.161Z" transform="translate(-27.85 1882.32)" fill="#b0bcd8"/>
        <path id="Path_1398" data-name="Path 1398" d="M69.782-1866.575a1.687,1.687,0,0,1-1.741,1.625,1.687,1.687,0,0,1-1.741-1.625,1.687,1.687,0,0,1,1.741-1.625A1.713,1.713,0,0,1,69.782-1866.575Z" transform="translate(-45.877 1908.625)" fill="#fff" opacity="0.3"/>
      </g>
      <g id="Group_596" data-name="Group 596" transform="translate(98.762 -2097.288)">
        <g id="Group_595" data-name="Group 595">
          <path id="Path_1399" data-name="Path 1399" d="M248.177-1896.9l-.077,4.216,18.723-7.814Z" transform="translate(-243.651 1900.5)" fill="#569e44"/>
          <path id="Path_1400" data-name="Path 1400" d="M250.692-1895.239l-2.592,2.553,18.723-7.814Z" transform="translate(-243.651 1900.5)" fill="#5a8e3f"/>
          <g id="Group_594" data-name="Group 594">
            <path id="Path_1401" data-name="Path 1401" d="M241.126-1896.9l-4.526-2.94,23.172-.657Z" transform="translate(-236.6 1900.5)" fill="#8dc63f"/>
            <path id="Path_1402" data-name="Path 1402" d="M254.8-1895.239l16.131-5.261-9.632,9.516Z" transform="translate(-247.759 1900.5)" fill="#73be44"/>
          </g>
        </g>
      </g>
    </g>
  </g>
</svg>
