<svg xmlns="http://www.w3.org/2000/svg" xmlns:xlink="http://www.w3.org/1999/xlink" width="200" height="200" viewBox="0 0 200 200">
  <defs>
    <clipPath id="clip-Custom_Size_2">
      <rect width="200" height="200"/>
    </clipPath>
  </defs>
  <g id="Custom_Size_2" data-name="Custom Size – 2" clip-path="url(#clip-Custom_Size_2)">
    <rect width="200" height="200" fill="#fff"/>
    <g id="Group_642" data-name="Group 642" transform="translate(137 144.7)">
      <path id="Path_621" data-name="Path 621" d="M-621.558-2205.67c0,32.017-25.637,57.93-57.221,57.93-31.623,0-57.221-25.952-57.221-57.93,0-32.017,25.637-57.93,57.221-57.93S-621.558-2237.648-621.558-2205.67Z" transform="translate(673.979 2123.9)" fill="#efefa8" opacity="0.6"/>
      <path id="Path_622" data-name="Path 622" d="M-762.614-2180.74c0,38.712-30.993,70.059-69.193,70.059-38.239,0-69.193-31.387-69.193-70.059,0-38.712,30.993-70.059,69.193-70.059S-762.614-2219.452-762.614-2180.74Z" transform="translate(774 2116.141)" fill="#9deded" opacity="0.24"/>
      <path id="Path_623" data-name="Path 623" d="M-807.27-1798.322c0,1.457-17.249,2.678-38.515,2.678s-38.515-1.181-38.515-2.678c0-1.457,17.249-2.678,38.515-2.678C-824.519-1800.961-807.27-1799.779-807.27-1798.322Z" transform="translate(763.877 1843.478)" fill="#cbcfff" opacity="0.6"/>
      <ellipse id="Ellipse_13" data-name="Ellipse 13" cx="22.841" cy="2.402" rx="22.841" ry="2.402" transform="translate(-16.339 44.644)" fill="#a8bcff" opacity="0.3"/>
      <path id="Path_624" data-name="Path 624" d="M-673.527-1837.822c0,1.5-23.2,2.678-51.786,2.678-28.63,0-51.786-1.221-51.786-2.678,0-1.5,23.2-2.678,51.786-2.678S-673.527-1839.319-673.527-1837.822Z" transform="translate(698.893 1867.423)" fill="#b0bcd8"/>
      <path id="Path_625" data-name="Path 625" d="M-506.768-2073.348c2.127-1.457,2.481,1.339,2.481,1.339s.315-2.8,2.481-1.339c2.127,1.457-2.442,4.765-2.442,4.765h-.039C-504.327-2068.622-508.895-2071.93-506.768-2073.348Z" transform="translate(535.364 2008.827)" fill="#f49fa4"/>
      <path id="Path_626" data-name="Path 626" d="M-674.44-2084.881a3.161,3.161,0,0,1-3.111,3.19h-90.538a3.135,3.135,0,0,1-3.111-3.19V-2239.61a3.136,3.136,0,0,1,3.111-3.19h90.538a3.136,3.136,0,0,1,3.111,3.19Z" transform="translate(695.317 2111.292)" fill="#2e3054"/>
      <path id="Path_627" data-name="Path 627" d="M-677.551-2242.9h-90.538a3.135,3.135,0,0,0-3.111,3.19v124.642C-771.24-2115.029-675.858-2242.9-677.551-2242.9Z" transform="translate(695.317 2111.352)" fill="#fff" opacity="0.2"/>
      <path id="Path_628" data-name="Path 628" d="M-671.361-2080.72a2.581,2.581,0,0,1-2.757,2.4h-79.826a2.581,2.581,0,0,1-2.757-2.4V-2196.7a2.581,2.581,0,0,1,2.757-2.4h79.826a2.581,2.581,0,0,1,2.757,2.4Z" transform="translate(686.527 2084.801)" fill="#fff"/>
      <rect id="Rectangle_20" data-name="Rectangle 20" width="56.118" height="44.146" transform="translate(-55.326 -42.704)" fill="#9deded" opacity="0.24"/>
      <ellipse id="Ellipse_14" data-name="Ellipse 14" cx="8.821" cy="8.94" rx="8.821" ry="8.94" transform="translate(-8.187 -37.387)" fill="#fff" opacity="0.3"/>
      <path id="Path_629" data-name="Path 629" d="M-692.421-1973.271a4.5,4.5,0,0,1-4.49,4.529,4.521,4.521,0,0,1-4.49-4.529,4.5,4.5,0,0,1,4.49-4.529A4.521,4.521,0,0,1-692.421-1973.271Z" transform="translate(653.005 1950.652)" fill="#fff" opacity="0.4"/>
      <g id="Group_250" data-name="Group 250" transform="translate(-46.111 -37.466)">
        <g id="Group_249" data-name="Group 249">
          <g id="Group_244" data-name="Group 244" transform="translate(0 12.838)">
            <g id="Group_229" data-name="Group 229" transform="translate(8.624 14.138)">
              <path id="Path_630" data-name="Path 630" d="M-659.6-1930.381h-11.893a2.4,2.4,0,0,1-2.205-2.56,2.4,2.4,0,0,1,2.205-2.56H-659.6a.521.521,0,0,1,.512.512.557.557,0,0,1-.512.551h-11.893a1.356,1.356,0,0,0-1.142,1.5,1.356,1.356,0,0,0,1.142,1.5H-659.6a.53.53,0,0,1,.512.551A.475.475,0,0,1-659.6-1930.381Z" transform="translate(673.7 1935.5)" fill="#2a2b7c"/>
            </g>
            <g id="Group_230" data-name="Group 230" transform="translate(0.776)">
              <path id="Path_631" data-name="Path 631" d="M-684.363-1956.474a.542.542,0,0,1-.512-.354c-1.1-3.072-4.293-11.3-5.671-12.76a2.085,2.085,0,0,0-1.457-.788.87.87,0,0,0-.709.315.547.547,0,0,1-.748.039.547.547,0,0,1-.039-.748,1.944,1.944,0,0,1,1.457-.63,3.113,3.113,0,0,1,2.245,1.142c1.812,1.89,5.75,12.681,5.907,13.114a.5.5,0,0,1-.315.669Z" transform="translate(693.629 1971.4)" fill="#2a2b7c"/>
            </g>
            <g id="Group_231" data-name="Group 231" transform="translate(9.215 18.155)">
              <path id="Path_632" data-name="Path 632" d="M-669.6-1920.023a2.631,2.631,0,0,1-2.6-2.639,2.631,2.631,0,0,1,2.6-2.638,2.631,2.631,0,0,1,2.6,2.638A2.63,2.63,0,0,1-669.6-1920.023Zm0-4.174a1.547,1.547,0,0,0-1.536,1.575,1.572,1.572,0,0,0,1.536,1.575,1.547,1.547,0,0,0,1.536-1.575A1.523,1.523,0,0,0-669.6-1924.2Z" transform="translate(672.2 1925.3)" fill="#2a2b7c"/>
            </g>
            <g id="Group_232" data-name="Group 232" transform="translate(20.124 18.155)">
              <path id="Path_633" data-name="Path 633" d="M-641.9-1920.023a2.631,2.631,0,0,1-2.6-2.639,2.631,2.631,0,0,1,2.6-2.638,2.631,2.631,0,0,1,2.6,2.638A2.63,2.63,0,0,1-641.9-1920.023Zm0-4.174a1.547,1.547,0,0,0-1.536,1.575,1.572,1.572,0,0,0,1.536,1.575,1.547,1.547,0,0,0,1.536-1.575A1.547,1.547,0,0,0-641.9-1924.2Z" transform="translate(644.5 1925.3)" fill="#2a2b7c"/>
            </g>
            <g id="Group_233" data-name="Group 233" transform="translate(6.143 4.726)">
              <path id="Path_634" data-name="Path 634" d="M-660.546-1958.3h-18.942a.531.531,0,0,1-.512-.551.531.531,0,0,1,.512-.551h18.942a.531.531,0,0,1,.512.551A.507.507,0,0,1-660.546-1958.3Z" transform="translate(680 1959.4)" fill="#2a2b7c"/>
            </g>
            <g id="Group_234" data-name="Group 234" transform="translate(22.191 4.705)">
              <path id="Path_635" data-name="Path 635" d="M-638.719-1949a.237.237,0,0,1-.158-.039.548.548,0,0,1-.354-.67l2.875-9.373a.548.548,0,0,1,.669-.354.548.548,0,0,1,.354.669l-2.875,9.373A.5.5,0,0,1-638.719-1949Z" transform="translate(639.252 1959.452)" fill="#2a2b7c"/>
            </g>
            <g id="Group_239" data-name="Group 239" transform="translate(10.003 4.805)">
              <g id="Group_235" data-name="Group 235">
                <path id="Path_636" data-name="Path 636" d="M-669.688-1949a.53.53,0,0,1-.512-.551v-9.1a.557.557,0,0,1,.512-.551.53.53,0,0,1,.512.551v9.1A.53.53,0,0,1-669.688-1949Z" transform="translate(670.2 1959.2)" fill="#2a2b7c"/>
              </g>
              <g id="Group_236" data-name="Group 236" transform="translate(4.056)">
                <path id="Path_637" data-name="Path 637" d="M-659.388-1949a.53.53,0,0,1-.512-.551v-9.1a.557.557,0,0,1,.512-.551.53.53,0,0,1,.512.551v9.1A.53.53,0,0,1-659.388-1949Z" transform="translate(659.9 1959.2)" fill="#2a2b7c"/>
              </g>
              <g id="Group_237" data-name="Group 237" transform="translate(8.073)">
                <path id="Path_638" data-name="Path 638" d="M-649.188-1949a.53.53,0,0,1-.512-.551v-9.1a.557.557,0,0,1,.512-.551.53.53,0,0,1,.512.551v9.1A.487.487,0,0,1-649.188-1949Z" transform="translate(649.7 1959.2)" fill="#2a2b7c"/>
              </g>
              <g id="Group_238" data-name="Group 238" transform="translate(12.129)">
                <path id="Path_639" data-name="Path 639" d="M-638.888-1949a.53.53,0,0,1-.512-.551v-9.1a.557.557,0,0,1,.512-.551.53.53,0,0,1,.512.551v9.1A.487.487,0,0,1-638.888-1949Z" transform="translate(639.4 1959.2)" fill="#2a2b7c"/>
              </g>
            </g>
            <g id="Group_242" data-name="Group 242" transform="translate(7.443 7.797)">
              <g id="Group_240" data-name="Group 240">
                <path id="Path_640" data-name="Path 640" d="M-659.648-1950.576h-16.54a.521.521,0,0,1-.512-.512.521.521,0,0,1,.512-.512h16.54a.521.521,0,0,1,.512.512A.521.521,0,0,1-659.648-1950.576Z" transform="translate(676.7 1951.6)" fill="#2a2b7c"/>
              </g>
              <g id="Group_241" data-name="Group 241" transform="translate(1.3 3.072)">
                <path id="Path_641" data-name="Path 641" d="M-658.79-1942.737h-14.1a.521.521,0,0,1-.512-.512.557.557,0,0,1,.512-.552h14.1a.531.531,0,0,1,.512.552A.521.521,0,0,1-658.79-1942.737Z" transform="translate(673.4 1943.8)" fill="#2a2b7c"/>
              </g>
            </g>
            <g id="Group_243" data-name="Group 243" transform="translate(0 0.433)">
              <path id="Path_642" data-name="Path 642" d="M-693.71-1966.519a1.917,1.917,0,0,1-1.89-1.89,1.866,1.866,0,0,1,1.89-1.89,1.917,1.917,0,0,1,1.89,1.89A1.944,1.944,0,0,1-693.71-1966.519Zm0-2.757a.832.832,0,0,0-.827.827.808.808,0,0,0,.827.827.808.808,0,0,0,.827-.827A.859.859,0,0,0-693.71-1969.276Z" transform="translate(695.6 1970.3)" fill="#2a2b7c"/>
            </g>
          </g>
          <g id="Group_245" data-name="Group 245" transform="translate(22.218)">
            <path id="Path_643" data-name="Path 643" d="M-638.126-1987.184a.569.569,0,0,1-.276-.079.488.488,0,0,1-.2-.591l1.378-4.765a6.771,6.771,0,0,1-1.93-5.435,6.579,6.579,0,0,1,6.537-5.947,4.276,4.276,0,0,1,.709.039,6.669,6.669,0,0,1,5.868,7.325,6.579,6.579,0,0,1-6.537,5.947,4.3,4.3,0,0,1-.709-.039h-.079l-4.371,3.465A1.732,1.732,0,0,1-638.126-1987.184Zm5.474-15.831a5.58,5.58,0,0,0-5.513,5,5.686,5.686,0,0,0,1.812,4.765.559.559,0,0,1,.158.551l-1.024,3.505,3.269-2.6a.76.76,0,0,1,.394-.118c.079,0,.2.039.276.039a2.978,2.978,0,0,0,.591.039,5.514,5.514,0,0,0,5.474-5,5.578,5.578,0,0,0-4.923-6.144C-632.258-2002.976-632.455-2003.016-632.652-2003.016Z" transform="translate(639.182 2004)" fill="#2a2b7c"/>
          </g>
          <g id="Group_248" data-name="Group 248" transform="translate(25.795 3.19)">
            <g id="Group_246" data-name="Group 246" transform="translate(2.639)">
              <path id="Path_644" data-name="Path 644" d="M-623.4-1995.9l.039,6.38h.984v-6.38Z" transform="translate(623.4 1995.9)" fill="#2a2b7c"/>
            </g>
            <g id="Group_247" data-name="Group 247" transform="translate(0 2.678)">
              <path id="Path_645" data-name="Path 645" d="M-623.8-1989.1l-6.3.039v.985h6.3Z" transform="translate(630.1 1989.1)" fill="#2a2b7c"/>
            </g>
          </g>
        </g>
      </g>
      <path id="Path_646" data-name="Path 646" d="M-835.323-1883.477H-869.9l.473-48.833,35.522-.591Z" transform="translate(755.148 1923.434)" fill="#ade59e"/>
      <path id="Path_647" data-name="Path 647" d="M-780.682-1932.9l3.623,45.84-5.041,3.584Z" transform="translate(701.924 1923.434)" fill="#2e3054"/>
      <path id="Path_648" data-name="Path 648" d="M-805.089-1924.012a.847.847,0,0,1-.906.788.847.847,0,0,1-.906-.788.847.847,0,0,1,.906-.788A.872.872,0,0,1-805.089-1924.012Z" transform="translate(716.958 1918.524)" fill="#fff"/>
      <path id="Path_649" data-name="Path 649" d="M-847.188-1924.212a.847.847,0,0,1-.906.788.847.847,0,0,1-.906-.788.847.847,0,0,1,.906-.788A.872.872,0,0,1-847.188-1924.212Z" transform="translate(742.478 1918.645)" fill="#fff"/>
      <path id="Path_650" data-name="Path 650" d="M-830.551-1941.631c-.039-1.733-.512-11.775-8.388-11.972a7.077,7.077,0,0,0-4.8,1.575c-3.938,3.229-4.056,10.239-4.056,10.554a.266.266,0,0,0,.236.157.18.18,0,0,0,.2-.157c0-.079.158-7.167,3.938-10.279a6.462,6.462,0,0,1,4.45-1.457c7.443.2,7.916,9.727,7.955,11.539a.682.682,0,0,0,.039.276c0,.079.118.157.2.157a.22.22,0,0,0,.236-.2C-830.512-1941.434-830.551-1941.553-830.551-1941.631Z" transform="translate(741.751 1935.985)" fill="#0b1238"/>
      <path id="Path_651" data-name="Path 651" d="M-759.38-1875.064H-791.2l.433-46.746,32.686-.591Z" transform="translate(707.441 1917.069)" fill="#f2a0a4"/>
      <path id="Path_652" data-name="Path 652" d="M-716.65-1902.1l-2.835-3.7-2.914-.394,2.442,13.7h.276l2.835-2.205Z" transform="translate(665.735 1907.249)" fill="#c3cfce"/>
      <path id="Path_653" data-name="Path 653" d="M-709.1-1922.4l3.347,43.91-4.647,3.426Z" transform="translate(658.461 1917.069)" fill="#646da0"/>
      <path id="Path_654" data-name="Path 654" d="M-734.7-1907.512a.783.783,0,0,1-.748.788.757.757,0,0,1-.748-.788.783.783,0,0,1,.748-.788A.783.783,0,0,1-734.7-1907.512Z" transform="translate(674.1 1908.522)" fill="#f9e0e9"/>
      <path id="Path_655" data-name="Path 655" d="M-772.8-1907.712a.783.783,0,0,1-.748.788.757.757,0,0,1-.748-.788.783.783,0,0,1,.748-.788A.783.783,0,0,1-772.8-1907.712Z" transform="translate(697.196 1908.643)" fill="#f9e0e9"/>
      <g id="Group_251" data-name="Group 251" transform="translate(-60.406 0.97)">
        <path id="Path_656" data-name="Path 656" d="M-726.315-1901.95a.468.468,0,0,0-.079.709.468.468,0,0,0,.709.079.468.468,0,0,0,.079-.709A.537.537,0,0,0-726.315-1901.95Zm.512.827a.327.327,0,0,1-.473-.079.327.327,0,0,1,.079-.473.327.327,0,0,1,.473.079A.327.327,0,0,1-725.8-1901.123Z" transform="translate(728.639 1903.761)" fill="#c3cfce"/>
        <path id="Path_657" data-name="Path 657" d="M-728.513-1906.4l-3.032,2.363-.354,2.835,6.065,7.955,6.183-4.844-6.065-7.955Zm-.512,2.481a.327.327,0,0,1-.473-.078.327.327,0,0,1,.079-.473.327.327,0,0,1,.473.079A.364.364,0,0,1-729.025-1903.919Z" transform="translate(731.9 1906.4)" fill="#fff"/>
        <path id="Path_658" data-name="Path 658" d="M-726.716-1902.434a.74.74,0,0,0-.118,1.024.693.693,0,0,0,.985.118.74.74,0,0,0,.118-1.024A.688.688,0,0,0-726.716-1902.434Zm.669.827a.327.327,0,0,1-.473-.079.327.327,0,0,1,.079-.473.327.327,0,0,1,.473.079A.364.364,0,0,1-726.046-1901.607Z" transform="translate(728.921 1904.088)" fill="#3d3942"/>
      </g>
      <path id="Path_659" data-name="Path 659" d="M-735.389-1914.621l-.118-.079-.079.118c-.394.591.276,2.008.591,2.56a11.919,11.919,0,0,0,1.772,2.481l.236-.2a10.236,10.236,0,0,1-1.733-2.4,4.014,4.014,0,0,1-.669-2.127c.788.551,4.371,3.072,3.7,4.765-.079.158-.118.236-.2.276a.236.236,0,0,0,.039.157v.158a.742.742,0,0,0,.433-.473C-730.584-1911.471-735.192-1914.5-735.389-1914.621Z" transform="translate(673.801 1912.401)" fill="#2e3054"/>
      <g id="Group_252" data-name="Group 252" transform="translate(-76.553 -14.278)">
        <path id="Path_660" data-name="Path 660" d="M-757.463-1929.635h-.394v-.748c0-.315-.039-.709-.039-1.182-.2-3.9-1.339-13-7.089-13.193a4.691,4.691,0,0,0-3.544,1.418c-3.82,3.7-3.977,13.508-3.977,13.587h-.394c0-.394.118-10.042,4.1-13.862a4.928,4.928,0,0,1,3.82-1.5c6.065.236,7.207,9.57,7.443,13.547.039.473.039.867.039,1.221C-757.463-1929.911-757.463-1929.635-757.463-1929.635Z" transform="translate(772.9 1945.12)" fill="#0b1238"/>
      </g>
      <g id="Group_253" data-name="Group 253" transform="translate(-57.098 4.215)">
        <path id="Path_661" data-name="Path 661" d="M-720.94-1897.939c.394-.354.827-.276,1.221.2s.433.906.039,1.26l-1.221,1.1c-.394.354-.827.275-1.221-.2s-.433-.906-.039-1.26Zm-.827,1.615a.3.3,0,0,0,0,.473.258.258,0,0,0,.433.039l1.3-1.142a.3.3,0,0,0,0-.473.258.258,0,0,0-.433-.039Zm3.662.512.394.433-5.4,1.457-.394-.433Zm-2.127,1.5c.394-.354.827-.276,1.221.2s.433.906.039,1.26l-1.221,1.1c-.394.354-.827.276-1.221-.2s-.433-.906-.039-1.26Zm-.827,1.615a.3.3,0,0,0,0,.473.258.258,0,0,0,.433.039l1.3-1.142a.324.324,0,0,0,.039-.472.258.258,0,0,0-.433-.039Z" transform="translate(723.5 1898.159)" fill="#2e3054"/>
      </g>
      <path id="Path_662" data-name="Path 662" d="M-734.412-1910.625a5.949,5.949,0,0,1-.63-1.575c-.118,0-.079.433-.158.512.158.433.433,1.063.551,1.3.039.079.079.118.118.2a1.041,1.041,0,0,0,.236-.2A.666.666,0,0,1-734.412-1910.625Z" transform="translate(673.494 1910.886)" fill="#2e3054"/>
      <path id="Path_663" data-name="Path 663" d="M-772.506-1906.5a.186.186,0,0,1-.2.2.186.186,0,0,1-.2-.2.186.186,0,0,1,.2-.2A.186.186,0,0,1-772.506-1906.5Z" transform="translate(696.347 1907.552)" fill="#0b1238"/>
      <path id="Path_664" data-name="Path 664" d="M-734.306-1906.2a.186.186,0,0,1-.2.2.186.186,0,0,1-.2-.2.186.186,0,0,1,.2-.2A.186.186,0,0,1-734.306-1906.2Z" transform="translate(673.191 1907.37)" fill="#0b1238"/>
      <path id="Path_665" data-name="Path 665" d="M-710.2-1808.659l1.851-3.741,2.481.591Z" transform="translate(658.34 1850.389)" fill="#545e7f"/>
      <path id="Path_666" data-name="Path 666" d="M-765.579-1896.7l3.229,37.806-4.45,2.914Z" transform="translate(692.65 1901.49)" fill="#646da0"/>
      <path id="Path_667" data-name="Path 667" d="M-813.6-1855.98H-844l.394-40.208,31.229-.512Z" transform="translate(739.447 1901.49)" fill="#ebf7ff"/>
      <path id="Path_668" data-name="Path 668" d="M-787.3-1884.512a.783.783,0,0,1-.748.788.783.783,0,0,1-.748-.788.783.783,0,0,1,.748-.788A.783.783,0,0,1-787.3-1884.512Z" transform="translate(705.986 1894.58)" fill="#e4edf1"/>
      <path id="Path_669" data-name="Path 669" d="M-825-1885.112a.783.783,0,0,1-.748.788.757.757,0,0,1-.748-.788.783.783,0,0,1,.748-.788A.782.782,0,0,1-825-1885.112Z" transform="translate(728.839 1894.943)" fill="#e4edf1"/>
      <path id="Path_670" data-name="Path 670" d="M-766.8-1798.938l2.008-3.662,2.442.748Z" transform="translate(692.65 1844.448)" fill="#545e7f"/>
      <path id="Path_671" data-name="Path 671" d="M-809.938-1906.257v-.157c0-1.89-.236-14.414-7.364-14.689a5.162,5.162,0,0,0-3.82,1.5c-3.505,3.426-3.9,11.46-3.938,13,0,.039-.039.2-.039.236a.186.186,0,0,0,.2.2.262.262,0,0,0,.2-.158.393.393,0,0,1,.039-.158c.039-1.26.394-9.491,3.82-12.838a4.749,4.749,0,0,1,3.544-1.418c6.774.236,7.01,12.8,7.01,14.335v.157c.039.118.079.157.2.157a.261.261,0,0,0,.2-.157C-809.938-1906.217-809.938-1906.257-809.938-1906.257Z" transform="translate(727.99 1916.284)" fill="#0b1238"/>
      <g id="Group_274" data-name="Group 274" transform="translate(-46.111 -37.466)" opacity="0.3">
        <g id="Group_269" data-name="Group 269" transform="translate(0 12.838)">
          <g id="Group_254" data-name="Group 254" transform="translate(8.624 14.138)">
            <path id="Path_672" data-name="Path 672" d="M-659.6-1930.381h-11.893a2.4,2.4,0,0,1-2.205-2.56,2.4,2.4,0,0,1,2.205-2.56H-659.6a.521.521,0,0,1,.512.512.557.557,0,0,1-.512.551h-11.893a1.356,1.356,0,0,0-1.142,1.5,1.356,1.356,0,0,0,1.142,1.5H-659.6a.53.53,0,0,1,.512.551A.475.475,0,0,1-659.6-1930.381Z" transform="translate(673.7 1935.5)" fill="#fff"/>
          </g>
          <g id="Group_255" data-name="Group 255" transform="translate(0.776)">
            <path id="Path_673" data-name="Path 673" d="M-684.363-1956.474a.542.542,0,0,1-.512-.354c-1.1-3.072-4.293-11.3-5.671-12.76a2.085,2.085,0,0,0-1.457-.788.87.87,0,0,0-.709.315.547.547,0,0,1-.748.039.547.547,0,0,1-.039-.748,1.944,1.944,0,0,1,1.457-.63,3.113,3.113,0,0,1,2.245,1.142c1.812,1.89,5.75,12.681,5.907,13.114a.5.5,0,0,1-.315.669Z" transform="translate(693.629 1971.4)" fill="#fff"/>
          </g>
          <g id="Group_256" data-name="Group 256" transform="translate(9.215 18.155)">
            <path id="Path_674" data-name="Path 674" d="M-669.6-1920.023a2.631,2.631,0,0,1-2.6-2.639,2.631,2.631,0,0,1,2.6-2.638,2.631,2.631,0,0,1,2.6,2.638A2.63,2.63,0,0,1-669.6-1920.023Zm0-4.174a1.547,1.547,0,0,0-1.536,1.575,1.572,1.572,0,0,0,1.536,1.575,1.547,1.547,0,0,0,1.536-1.575A1.523,1.523,0,0,0-669.6-1924.2Z" transform="translate(672.2 1925.3)" fill="#fff"/>
          </g>
          <g id="Group_257" data-name="Group 257" transform="translate(20.124 18.155)">
            <path id="Path_675" data-name="Path 675" d="M-641.9-1920.023a2.631,2.631,0,0,1-2.6-2.639,2.631,2.631,0,0,1,2.6-2.638,2.631,2.631,0,0,1,2.6,2.638A2.63,2.63,0,0,1-641.9-1920.023Zm0-4.174a1.547,1.547,0,0,0-1.536,1.575,1.572,1.572,0,0,0,1.536,1.575,1.547,1.547,0,0,0,1.536-1.575A1.547,1.547,0,0,0-641.9-1924.2Z" transform="translate(644.5 1925.3)" fill="#fff"/>
          </g>
          <g id="Group_258" data-name="Group 258" transform="translate(6.143 4.726)">
            <path id="Path_676" data-name="Path 676" d="M-660.546-1958.3h-18.942a.531.531,0,0,1-.512-.551.531.531,0,0,1,.512-.551h18.942a.531.531,0,0,1,.512.551A.507.507,0,0,1-660.546-1958.3Z" transform="translate(680 1959.4)" fill="#fff"/>
          </g>
          <g id="Group_259" data-name="Group 259" transform="translate(22.191 4.705)">
            <path id="Path_677" data-name="Path 677" d="M-638.719-1949a.237.237,0,0,1-.158-.039.548.548,0,0,1-.354-.67l2.875-9.373a.548.548,0,0,1,.669-.354.548.548,0,0,1,.354.669l-2.875,9.373A.5.5,0,0,1-638.719-1949Z" transform="translate(639.252 1959.452)" fill="#fff"/>
          </g>
          <g id="Group_264" data-name="Group 264" transform="translate(10.003 4.805)">
            <g id="Group_260" data-name="Group 260">
              <path id="Path_678" data-name="Path 678" d="M-669.688-1949a.53.53,0,0,1-.512-.551v-9.1a.557.557,0,0,1,.512-.551.53.53,0,0,1,.512.551v9.1A.53.53,0,0,1-669.688-1949Z" transform="translate(670.2 1959.2)" fill="#fff"/>
            </g>
            <g id="Group_261" data-name="Group 261" transform="translate(4.056)">
              <path id="Path_679" data-name="Path 679" d="M-659.388-1949a.53.53,0,0,1-.512-.551v-9.1a.557.557,0,0,1,.512-.551.53.53,0,0,1,.512.551v9.1A.53.53,0,0,1-659.388-1949Z" transform="translate(659.9 1959.2)" fill="#fff"/>
            </g>
            <g id="Group_262" data-name="Group 262" transform="translate(8.073)">
              <path id="Path_680" data-name="Path 680" d="M-649.188-1949a.53.53,0,0,1-.512-.551v-9.1a.557.557,0,0,1,.512-.551.53.53,0,0,1,.512.551v9.1A.487.487,0,0,1-649.188-1949Z" transform="translate(649.7 1959.2)" fill="#fff"/>
            </g>
            <g id="Group_263" data-name="Group 263" transform="translate(12.129)">
              <path id="Path_681" data-name="Path 681" d="M-638.888-1949a.53.53,0,0,1-.512-.551v-9.1a.557.557,0,0,1,.512-.551.53.53,0,0,1,.512.551v9.1A.487.487,0,0,1-638.888-1949Z" transform="translate(639.4 1959.2)" fill="#fff"/>
            </g>
          </g>
          <g id="Group_267" data-name="Group 267" transform="translate(7.443 7.797)">
            <g id="Group_265" data-name="Group 265">
              <path id="Path_682" data-name="Path 682" d="M-659.648-1950.576h-16.54a.521.521,0,0,1-.512-.512.521.521,0,0,1,.512-.512h16.54a.521.521,0,0,1,.512.512A.521.521,0,0,1-659.648-1950.576Z" transform="translate(676.7 1951.6)" fill="#fff"/>
            </g>
            <g id="Group_266" data-name="Group 266" transform="translate(1.3 3.072)">
              <path id="Path_683" data-name="Path 683" d="M-658.79-1942.737h-14.1a.521.521,0,0,1-.512-.512.557.557,0,0,1,.512-.552h14.1a.531.531,0,0,1,.512.552A.521.521,0,0,1-658.79-1942.737Z" transform="translate(673.4 1943.8)" fill="#fff"/>
            </g>
          </g>
          <g id="Group_268" data-name="Group 268" transform="translate(0 0.433)">
            <path id="Path_684" data-name="Path 684" d="M-693.71-1966.519a1.917,1.917,0,0,1-1.89-1.89,1.866,1.866,0,0,1,1.89-1.89,1.917,1.917,0,0,1,1.89,1.89A1.944,1.944,0,0,1-693.71-1966.519Zm0-2.757a.832.832,0,0,0-.827.827.808.808,0,0,0,.827.827.808.808,0,0,0,.827-.827A.859.859,0,0,0-693.71-1969.276Z" transform="translate(695.6 1970.3)" fill="#fff"/>
          </g>
        </g>
        <g id="Group_270" data-name="Group 270" transform="translate(22.218)">
          <path id="Path_685" data-name="Path 685" d="M-638.126-1987.184a.569.569,0,0,1-.276-.079.488.488,0,0,1-.2-.591l1.378-4.765a6.771,6.771,0,0,1-1.93-5.435,6.579,6.579,0,0,1,6.537-5.947,4.276,4.276,0,0,1,.709.039,6.669,6.669,0,0,1,5.868,7.325,6.579,6.579,0,0,1-6.537,5.947,4.3,4.3,0,0,1-.709-.039h-.079l-4.371,3.465A1.732,1.732,0,0,1-638.126-1987.184Zm5.474-15.831a5.58,5.58,0,0,0-5.513,5,5.686,5.686,0,0,0,1.812,4.765.559.559,0,0,1,.158.551l-1.024,3.505,3.269-2.6a.76.76,0,0,1,.394-.118c.079,0,.2.039.276.039a2.978,2.978,0,0,0,.591.039,5.514,5.514,0,0,0,5.474-5,5.578,5.578,0,0,0-4.923-6.144C-632.258-2002.976-632.455-2003.016-632.652-2003.016Z" transform="translate(639.182 2004)" fill="#fff"/>
        </g>
        <g id="Group_273" data-name="Group 273" transform="translate(25.795 3.19)">
          <g id="Group_271" data-name="Group 271" transform="translate(2.639)">
            <path id="Path_686" data-name="Path 686" d="M-623.4-1995.9l.039,6.38h.984v-6.38Z" transform="translate(623.4 1995.9)" fill="#fff"/>
          </g>
          <g id="Group_272" data-name="Group 272" transform="translate(0 2.678)">
            <path id="Path_687" data-name="Path 687" d="M-623.8-1989.1l-6.3.039v.985h6.3Z" transform="translate(630.1 1989.1)" fill="#fff"/>
          </g>
        </g>
      </g>
      <path id="Path_688" data-name="Path 688" d="M-652.62-1875.081a7.689,7.689,0,0,1-7.64,7.719,7.689,7.689,0,0,1-7.64-7.719,7.69,7.69,0,0,1,7.64-7.719A7.664,7.664,0,0,1-652.62-1875.081Z" transform="translate(632.698 1893.064)" fill="#596a83"/>
      <path id="Path_689" data-name="Path 689" d="M-651.522-1872.232a5.841,5.841,0,0,1-5.789,5.868,5.841,5.841,0,0,1-5.789-5.868,5.841,5.841,0,0,1,5.789-5.868A5.841,5.841,0,0,1-651.522-1872.232Z" transform="translate(629.788 1890.215)" fill="#2e3054"/>
      <path id="Path_690" data-name="Path 690" d="M-517.552-2009.4s3.544,9.018,3.7,15.595c.039,2.245-3.544,10.042-3.544,10.515S-522.4-2008.14-517.552-2009.4Z" transform="translate(542.84 1969.807)" fill="#f5b29c"/>
      <path id="Path_691" data-name="Path 691" d="M-535.955-2028.749a14.662,14.662,0,0,1-.945,6.025s2.8,1.654,5.12-.276l-.63-6.3Z" transform="translate(553.287 1981.87)" fill="#f5b29c"/>
      <path id="Path_692" data-name="Path 692" d="M-655.938-2049.2a.622.622,0,0,1-.63.63h-52.1a.622.622,0,0,1-.63-.63v-8.27a.622.622,0,0,1,.63-.63h52.1a.622.622,0,0,1,.63.63Z" transform="translate(657.794 1999.329)" fill="#e4d9eb"/>
      <path id="Path_693" data-name="Path 693" d="M-658.638-2052.5a.622.622,0,0,1-.63.63h-52.1a.622.622,0,0,1-.63-.63v-8.27a.622.622,0,0,1,.63-.63h52.1a.622.622,0,0,1,.63.63Z" transform="translate(659.431 2001.329)" fill="#f79297"/>
      <path id="Path_694" data-name="Path 694" d="M-674.44-2147.792l-6.1-4.371v-.237h-85.142l-5.513,3.978v23.668a8.6,8.6,0,0,0,5.513-8.073,8.58,8.58,0,0,0,8.546,8.624,8.58,8.58,0,0,0,8.546-8.624,8.58,8.58,0,0,0,8.546,8.624,8.558,8.558,0,0,0,8.467-7.6,8.558,8.558,0,0,0,8.467,7.6,8.58,8.58,0,0,0,8.546-8.624,8.58,8.58,0,0,0,8.546,8.624,8.58,8.58,0,0,0,8.546-8.624,8.572,8.572,0,0,0,8.506,8.624,8.572,8.572,0,0,0,8.388-7.01,8.626,8.626,0,0,0,6.262,6.774v-23.353Z" transform="translate(695.317 2056.492)" fill="#99add1" opacity="0.3"/>
      <path id="Path_695" data-name="Path 695" d="M-784.109-2157v17.092c0,4.174-3.82,7.522-8.546,7.522s-8.546-3.387-8.546-7.522v-6.419Z" transform="translate(713.503 2059.281)" fill="#8bd371"/>
      <path id="Path_696" data-name="Path 696" d="M-784.169-2166.574H-801.3l12.051-23.826h5.08Z" transform="translate(713.563 2079.527)" fill="#baeaad"/>
      <path id="Path_697" data-name="Path 697" d="M-740.609-2157v17.092c0,4.174-3.82,7.522-8.546,7.522s-8.546-3.387-8.546-7.522V-2157Z" transform="translate(687.133 2059.281)" fill="#ebf7ff"/>
      <rect id="Rectangle_21" data-name="Rectangle 21" width="17.131" height="23.826" transform="translate(-70.606 -110.873)" fill="#fff"/>
      <path id="Path_698" data-name="Path 698" d="M-697.169-2157v17.092c0,4.174-3.82,7.522-8.585,7.522-4.726,0-8.546-3.387-8.546-7.522V-2157Z" transform="translate(660.825 2059.281)" fill="#8bd371"/>
      <rect id="Rectangle_22" data-name="Rectangle 22" width="17.131" height="23.826" transform="translate(-53.475 -110.873)" fill="#baeaad"/>
      <path id="Path_699" data-name="Path 699" d="M-653.969-2157v17.092c0,4.174-3.82,7.522-8.546,7.522s-8.585-3.387-8.585-7.522V-2157Z" transform="translate(634.638 2059.281)" fill="#ebf7ff"/>
      <rect id="Rectangle_23" data-name="Rectangle 23" width="17.131" height="23.826" transform="translate(-36.462 -110.873)" fill="#fff"/>
      <path id="Path_700" data-name="Path 700" d="M-610.53-2157v17.092c0,4.174-3.82,7.522-8.585,7.522s-8.585-3.387-8.585-7.522V-2157Z" transform="translate(608.329 2059.281)" fill="#8bd371"/>
      <rect id="Rectangle_24" data-name="Rectangle 24" width="17.131" height="23.826" transform="translate(-19.331 -110.873)" fill="#baeaad"/>
      <path id="Path_701" data-name="Path 701" d="M-524.269-2146.327v6.419c0,4.175-3.82,7.522-8.546,7.522s-8.585-3.387-8.585-7.522V-2157Z" transform="translate(556.015 2059.28)" fill="#8bd371"/>
      <path id="Path_702" data-name="Path 702" d="M-524.269-2166.574H-541.4V-2190.4h6.655Z" transform="translate(556.015 2079.527)" fill="#baeaad"/>
      <path id="Path_703" data-name="Path 703" d="M-566.909-2157v17.092c0,4.174-3.82,7.522-8.546,7.522s-8.546-3.387-8.546-7.522V-2157Z" transform="translate(581.839 2059.281)" fill="#ebf7ff"/>
      <rect id="Rectangle_25" data-name="Rectangle 25" width="17.131" height="23.826" transform="translate(-2.201 -110.873)" fill="#fff"/>
      <rect id="Rectangle_26" data-name="Rectangle 26" width="97.429" height="4.253" transform="translate(-76.08 -114.772)" fill="#8bd371"/>
      <rect id="Rectangle_27" data-name="Rectangle 27" width="13.153" height="2.599" transform="translate(-32.564 -124.696)" fill="#596a83"/>
      <g id="Group_275" data-name="Group 275" transform="translate(-7.506 -58.124)">
        <path id="Path_704" data-name="Path 704" d="M-572.734-1870.79l-13.232,28.512-8.034,1.024s2.4-3.465,5.907-2.757l4.411-15.752,4.1-15.91C-579.626-1875.712-573.01-1879.611-572.734-1870.79Z" transform="translate(595.406 1947.409)" fill="#f5b29c"/>
        <path id="Path_705" data-name="Path 705" d="M-530.633-1871.312s1.3,20.439-4.608,33.041c0,0-7.64-2.481-6.931-2.914,0,0,2.363-.984,3.938.276,0,0,3.584-15.28,1.418-25.2C-539.021-1875.88-534.059-1872.729-530.633-1871.312Z" transform="translate(564.017 1945.214)" fill="#f5b29c"/>
        <path id="Path_706" data-name="Path 706" d="M-560.1-2005.067l-2.481,6.931s2.835,2.205,2.638,5.513c-.236,3.938-7.758,31.623-7.758,31.623s14.61,8.467,22.565,2.009c.394-.315,0-3.781,0-4.253-.039-3.387-.079-6.774-.118-10.2-.039-1.89-1.26-4.883-1.536-6.734-.2-1.26-1.536-5.041-1.615-6.34-.276-4.017.157-2.914,2.087-10.042.985-3.387.079-8.7-3.269-10.515A8.808,8.808,0,0,0-560.1-2005.067Z" transform="translate(579.464 2027.104)" fill="#e4e9f6"/>
        <path id="Path_707" data-name="Path 707" d="M-536.726-2040.959c-.788,3.82-6.695,2.521-7.679.079a9.431,9.431,0,0,1,.315-8.231c1.1-3.7,2.127-4.332,4.8-4.49C-539.286-2053.561-534.363-2052.261-536.726-2040.959Z" transform="translate(565.817 2054.725)" fill="#f5b29c"/>
        <path id="Path_708" data-name="Path 708" d="M-570.034-1956s-6.813,14.532-7.325,15.713c-1.418,3.308-2.678,6.774-3.938,10.161-1.339,3.544-2.284,7.719-.551,11.3,1.89,3.9,7.837,3.032,10.948,4.883,3.347,1.969,9.451,2.442,12.681-.157,5.435-4.332,4.962.669,8.664-2.4,3.662-3.072-.709-12.011-2.245-19.139a98.413,98.413,0,0,0-5.789-19.966S-564.914-1953.086-570.034-1956Z" transform="translate(588.611 1995.561)" fill="#7ab6f6"/>
        <path id="Path_709" data-name="Path 709" d="M-575.253-2021.347c-2.245-1.3-8.073,8.113-9.57,7.955-1.812-.2-6.537-9.018-6.931-10.318-.354-1.181-.2-4.923-1.3-5.474s.433,1.812-.2,1.93c-.669.118-3.269-5.238-3.859-4.962-.551.236,1.93,4.687,1.615,4.765a4.574,4.574,0,0,0-1.063.551c-.315.158-.788.236-.945.551s-.2,1.733,1.733,2.835c2.048,1.142,8.388,15.6,9.373,15.989,1.339.512,9.648-5.828,9.648-5.828S-569.582-2018.039-575.253-2021.347Z" transform="translate(597.571 2041.769)" fill="#f5b29c"/>
        <path id="Path_710" data-name="Path 710" d="M-544.381-2049.464a2.9,2.9,0,0,0,3.269-.236,2,2,0,0,1-.118,2.324s1.3-.945,1.536.788c.118.748-1.693,1.693-1.693,1.693s-3.269,6.852-3.269,10.672c0,3.859,4.135,10.712,11.46,7.955a6.123,6.123,0,0,0,3.741-5.4s3.7,1.457,4.8-1.142c4.45-10.279-4.883-15.792-4.883-15.792s-.512-8.349-8.861-7.837C-543.869-2056.12-546.586-2051.276-544.381-2049.464Z" transform="translate(565.793 2056.458)" fill="#0b1238"/>
        <path id="Path_711" data-name="Path 711" d="M-591.34-1792.964a8.175,8.175,0,0,0-2.56,2.205l8.034-1.024.669-1.418A6.972,6.972,0,0,1-591.34-1792.964Z" transform="translate(595.346 1896.874)" fill="#2e3054"/>
        <path id="Path_712" data-name="Path 712" d="M-534.489-1791.245a31.705,31.705,0,0,1-5-1.063c-.827-.394-.079-.709.354-.866a5.158,5.158,0,0,0-2.836.236c-.709.433,6.931,2.914,6.931,2.914C-534.844-1790.418-534.686-1790.811-534.489-1791.245Z" transform="translate(563.896 1896.927)" fill="#2e3054"/>
        <path id="Path_713" data-name="Path 713" d="M-552.224-1953a3.977,3.977,0,0,1-.276.591,25.173,25.173,0,0,0,8.664,1.89,8.144,8.144,0,0,0,5.277-1.575c-.079-.236-.158-.433-.236-.63C-542.694-1949.338-551.2-1952.567-552.224-1953Z" transform="translate(570.25 1993.743)" fill="#2e3054"/>
      </g>
      <g id="Group_276" data-name="Group 276" transform="translate(-46.977 -57.905)">
        <path id="Path_714" data-name="Path 714" d="M-696.579-2052.213l-.433,1.024h-.788l1.93-4.411h.788l1.93,4.411h-.788l-.433-1.024h-2.205Zm1.89-.709-.788-1.812-.788,1.812Z" transform="translate(697.8 2055.718)" fill="#fff"/>
        <path id="Path_715" data-name="Path 715" d="M-681.253-2055.209a2.023,2.023,0,0,1,.63,1.615,2.079,2.079,0,0,1-.63,1.615,2.59,2.59,0,0,1-1.89.591H-684.6v-4.411h1.5A3.042,3.042,0,0,1-681.253-2055.209Zm-.118,1.654c0-1.024-.591-1.536-1.733-1.536h-.748v3.032h.827a1.691,1.691,0,0,0,1.221-.394A1.3,1.3,0,0,0-681.371-2053.555Z" transform="translate(689.798 2055.839)" fill="#fff"/>
        <path id="Path_716" data-name="Path 716" d="M-668.853-2055.209a2.023,2.023,0,0,1,.63,1.615,2.079,2.079,0,0,1-.63,1.615,2.59,2.59,0,0,1-1.89.591H-672.2v-4.411h1.5A2.953,2.953,0,0,1-668.853-2055.209Zm-.118,1.654c0-1.024-.591-1.536-1.733-1.536h-.748v3.032h.827a1.69,1.69,0,0,0,1.221-.394A1.3,1.3,0,0,0-668.971-2053.555Z" transform="translate(682.282 2055.839)" fill="#fff"/>
        <path id="Path_717" data-name="Path 717" d="M-654.313-2055.031v3.741h-.748v-3.741H-656.4v-.669h3.387v.669Z" transform="translate(672.704 2055.779)" fill="#fff"/>
        <path id="Path_718" data-name="Path 718" d="M-642.823-2052a2.256,2.256,0,0,1-1.654.669,2.322,2.322,0,0,1-1.654-.669,2.231,2.231,0,0,1-.669-1.615,2.167,2.167,0,0,1,.669-1.615,2.255,2.255,0,0,1,1.654-.669,2.321,2.321,0,0,1,1.654.669,2.23,2.23,0,0,1,.669,1.615A2.483,2.483,0,0,1-642.823-2052Zm-.551-2.8a1.491,1.491,0,0,0-1.1-.472,1.49,1.49,0,0,0-1.1.472,1.541,1.541,0,0,0-.433,1.142,1.717,1.717,0,0,0,.433,1.142,1.49,1.49,0,0,0,1.1.472,1.492,1.492,0,0,0,1.1-.472,1.542,1.542,0,0,0,.433-1.142A1.717,1.717,0,0,0-643.374-2054.8Z" transform="translate(666.884 2055.9)" fill="#fff"/>
        <path id="Path_719" data-name="Path 719" d="M-626.816-2052.08a1.837,1.837,0,0,0,.669-.118,1.888,1.888,0,0,0,.591-.433l.473.512a2.227,2.227,0,0,1-1.693.788,2.226,2.226,0,0,1-1.654-.63,2.231,2.231,0,0,1-.669-1.615,2.256,2.256,0,0,1,.669-1.654,2.283,2.283,0,0,1,1.693-.669,2.133,2.133,0,0,1,1.693.748l-.473.512a1.894,1.894,0,0,0-.591-.433,1.7,1.7,0,0,0-.669-.118,1.548,1.548,0,0,0-1.1.433,1.4,1.4,0,0,0-.433,1.1,1.715,1.715,0,0,0,.433,1.142A1.6,1.6,0,0,0-626.816-2052.08Z" transform="translate(656.155 2055.9)" fill="#fff"/>
        <path id="Path_720" data-name="Path 720" d="M-616.979-2052.213l-.433,1.024h-.788l1.93-4.411h.788l1.93,4.411h-.788l-.433-1.024h-2.205Zm1.89-.709-.788-1.812-.788,1.812Z" transform="translate(649.548 2055.718)" fill="#fff"/>
        <path id="Path_721" data-name="Path 721" d="M-601.456-2054.282a1.274,1.274,0,0,1-.945,1.378l1.142,1.614h-.945l-1.063-1.5h-.985v1.5H-605v-4.411h1.615a2.2,2.2,0,0,1,1.418.354A1.1,1.1,0,0,1-601.456-2054.282Zm-.985.63a.775.775,0,0,0,.236-.63.691.691,0,0,0-.236-.591,1.454,1.454,0,0,0-.827-.157h-.945v1.575h.906A1.463,1.463,0,0,0-602.44-2053.652Z" transform="translate(641.546 2055.779)" fill="#fff"/>
        <path id="Path_722" data-name="Path 722" d="M-592.513-2055.031v3.741h-.748v-3.741H-594.6v-.669h3.387v.669Z" transform="translate(635.242 2055.779)" fill="#fff"/>
      </g>
      <g id="Group_280" data-name="Group 280" transform="translate(-59.987 -45.027)">
        <g id="Group_277" data-name="Group 277" transform="translate(3.834)">
          <path id="Path_723" data-name="Path 723" d="M-720.234-2003.177a.5.5,0,0,1-.433.551.5.5,0,0,1-.433-.551v-1.772a.5.5,0,0,1,.433-.551.5.5,0,0,1,.433.551Z" transform="translate(721.1 2012.471)" fill="#2e3054"/>
          <path id="Path_724" data-name="Path 724" d="M-720.234-2020.876a.5.5,0,0,1-.433.551.5.5,0,0,1-.433-.551v-1.772a.5.5,0,0,1,.433-.551.5.5,0,0,1,.433.551Z" transform="translate(721.1 2023.2)" fill="#2e3054"/>
        </g>
        <g id="Group_278" data-name="Group 278" transform="translate(0 2.279)">
          <path id="Path_725" data-name="Path 725" d="M-713.477-2007.623a.5.5,0,0,1,.236.669.485.485,0,0,1-.669.118l-1.536-.906a.5.5,0,0,1-.236-.669.485.485,0,0,1,.669-.118Z" transform="translate(721.682 2012.078)" fill="#2e3054"/>
          <path id="Path_726" data-name="Path 726" d="M-728.577-2016.423a.5.5,0,0,1,.236.67.485.485,0,0,1-.669.118l-1.536-.906a.5.5,0,0,1-.236-.67.485.485,0,0,1,.669-.118Z" transform="translate(730.835 2017.413)" fill="#2e3054"/>
        </g>
        <g id="Group_279" data-name="Group 279" transform="translate(0.007 2.268)">
          <path id="Path_727" data-name="Path 727" d="M-713.9-2017.345c.276-.158.551-.118.67.118a.546.546,0,0,1-.236.669l-1.536.906c-.276.158-.551.118-.669-.118a.546.546,0,0,1,.236-.669Z" transform="translate(721.664 2017.44)" fill="#2e3054"/>
          <path id="Path_728" data-name="Path 728" d="M-729-2008.446c.276-.157.551-.118.669.118a.546.546,0,0,1-.236.669l-1.536.906c-.276.158-.551.118-.669-.118a.546.546,0,0,1,.236-.669Z" transform="translate(730.818 2012.045)" fill="#2e3054"/>
        </g>
      </g>
      <g id="Group_284" data-name="Group 284" transform="translate(-98.177 -122.029)">
        <g id="Group_283" data-name="Group 283">
          <g id="Group_281" data-name="Group 281" transform="translate(0 2.476)">
            <path id="Path_729" data-name="Path 729" d="M-821.387-2199.429a5.8,5.8,0,0,1-1.418-.158,6.512,6.512,0,0,1-4.844-7.8,6.415,6.415,0,0,1,7.719-4.883.466.466,0,0,1,.354.591.466.466,0,0,1-.591.354,5.456,5.456,0,0,0-6.537,4.174,5.527,5.527,0,0,0,4.1,6.616,5.455,5.455,0,0,0,6.537-4.174,5.6,5.6,0,0,0-.039-2.678.466.466,0,0,1,.354-.591.466.466,0,0,1,.591.354,7.1,7.1,0,0,1,.079,3.151A6.539,6.539,0,0,1-821.387-2199.429Z" transform="translate(827.811 2212.441)" fill="#f49297"/>
          </g>
          <g id="Group_282" data-name="Group 282" transform="translate(2.372)">
            <path id="Path_730" data-name="Path 730" d="M-817.816-2208.36a.447.447,0,0,1-.315-.118l-3.5-3.229a.539.539,0,0,1-.039-.709.49.49,0,0,1,.669-.04l3.151,2.875,7.955-8.979a.453.453,0,0,1,.669-.039.538.538,0,0,1,.039.709l-8.27,9.373a.5.5,0,0,1-.354.158Z" transform="translate(821.789 2218.729)" fill="#f49297"/>
          </g>
        </g>
      </g>
      <g id="Group_285" data-name="Group 285" transform="translate(26.705 -132.06)">
        <path id="Path_731" data-name="Path 731" d="M-504.438-2224.982l-.591-.906c-.591-.906-5.671-8.742-5.671-11.972a6.3,6.3,0,0,1,6.262-6.34,6.3,6.3,0,0,1,6.262,6.34c0,3.229-5.08,11.106-5.671,11.972Zm0-17.8a4.874,4.874,0,0,0-4.844,4.883c0,2.087,3.072,7.443,4.844,10.239,1.733-2.8,4.844-8.152,4.844-10.239A4.926,4.926,0,0,0-504.438-2242.782Zm0,9.136a4.194,4.194,0,0,1-4.174-4.253,4.245,4.245,0,0,1,4.174-4.253,4.194,4.194,0,0,1,4.174,4.253A4.219,4.219,0,0,1-504.438-2233.646Zm0-7.01a2.774,2.774,0,0,0-2.757,2.8,2.773,2.773,0,0,0,2.757,2.8,2.8,2.8,0,0,0,2.757-2.8A2.8,2.8,0,0,0-504.438-2240.656Z" transform="translate(510.7 2244.2)" fill="#f2a0a4"/>
      </g>
    </g>
  </g>
</svg>
