<svg xmlns="http://www.w3.org/2000/svg" xmlns:xlink="http://www.w3.org/1999/xlink" width="200" height="200" viewBox="0 0 200 200">
  <defs>
    <clipPath id="clip-Custom_Size_1">
      <rect width="200" height="200"/>
    </clipPath>
  </defs>
  <g id="Custom_Size_1" data-name="Custom Size – 1" clip-path="url(#clip-Custom_Size_1)">
    <rect width="200" height="200" fill="#fff"/>
    <g id="Group_641" data-name="Group 641" transform="translate(130 128.8)">
      <ellipse id="Ellipse_29" data-name="Ellipse 29" cx="23.165" cy="2.434" rx="23.165" ry="2.434" transform="translate(-103.06 59.572)" fill="#a8bcff" opacity="0.3"/>
      <path id="Path_1422" data-name="Path 1422" d="M306.748,86.974A59.674,59.674,0,1,1,247.074,27.3,59.666,59.666,0,0,1,306.748,86.974Z" transform="translate(-243.669 -149.1)" fill="#efefa8" opacity="0.6"/>
      <path id="Path_1423" data-name="Path 1423" d="M170.275,110.437A72.137,72.137,0,1,1,98.137,38.3,72.158,72.158,0,0,1,170.275,110.437Z" transform="translate(-150 -155.484)" fill="#9deded" opacity="0.24"/>
      <path id="Path_1424" data-name="Path 1424" d="M253.825,209.913a3.314,3.314,0,0,1-3.273,3.315H156.173a3.287,3.287,0,0,1-3.273-3.315V50.615a3.314,3.314,0,0,1,3.273-3.315h94.379a3.287,3.287,0,0,1,3.273,3.315v159.3Z" transform="translate(-223.647 -160.707)" fill="#2e3054"/>
      <path id="Path_1425" data-name="Path 1425" d="M250.594,47.3H156.173a3.287,3.287,0,0,0-3.273,3.315V178.943C152.942,178.943,252.356,47.3,250.594,47.3Z" transform="translate(-223.647 -160.707)" fill="#fff" opacity="0.2"/>
      <path id="Path_1426" data-name="Path 1426" d="M256.223,211.408a2.717,2.717,0,0,1-2.854,2.476H170.154a2.662,2.662,0,0,1-2.854-2.476V91.976a2.688,2.688,0,0,1,2.854-2.476H253.37a2.662,2.662,0,0,1,2.854,2.476Z" transform="translate(-232.004 -185.198)" fill="#fff"/>
      <rect id="Rectangle_46" data-name="Rectangle 46" width="13.722" height="2.686" transform="translate(-27.187 -105.727)" fill="#596a83"/>
      <g id="Group_621" data-name="Group 621" transform="translate(16.422 0.863)">
        <path id="Path_1427" data-name="Path 1427" d="M393.955,359.525c-1.637-3.189-4.238-4.784-3.189-8.938.42-1.679,1.679-2.686,2.224-4.155.713-1.846.126-2.182-.126-4.113-.5-4.154,2.1-5.036,3.609-8.183,1.049-2.224.755-4.784,2.14-7.134,1.427-2.392,4.071-4.49,4.616-7.3.378,4.994,3.567,12.673-.252,16.912a5.6,5.6,0,0,1,1.679,6.966c-.5,1.133-2.182,2.014-2.476,3.231-.42,1.637.629,1.679.755,3.147.42,4.574-12.8,11.037-9.316,15.611Z" transform="translate(-377.974 -319.658)" fill="#91d8a5"/>
        <path id="Path_1428" data-name="Path 1428" d="M393.955,359.825c-1.637-3.189-4.238-4.784-3.189-8.939.42-1.679,1.679-2.686,2.224-4.155.713-1.846.126-2.182-.126-4.113-.5-4.154,2.1-5.036,3.609-8.183,1.049-2.224.755-4.784,2.14-7.134,1.427-2.392,4.071-4.49,4.616-7.3.378,4.994,3.567,12.673-.252,16.912a5.6,5.6,0,0,1,1.679,6.966c-.5,1.133-2.182,2.014-2.476,3.231-.42,1.637.629,1.679.755,3.147.42,4.574-12.8,11.037-9.316,15.611Z" transform="translate(-377.974 -319.832)" fill="#89d384" opacity="0.3"/>
        <g id="Group_603" data-name="Group 603" transform="translate(14.89 0)" opacity="0.3">
          <path id="Path_1429" data-name="Path 1429" d="M404.871,329.462a10.632,10.632,0,0,0,2.979-1.679c0-.126-.042-.294-.042-.42a10.456,10.456,0,0,1-2.9,1.679c.084-.629.21-1.259.294-1.846l.252-1.637c.084-.5.168-1.007.294-1.511.084-.42.168-.839.252-1.3.042-.252.126-.588.168-.881a18.326,18.326,0,0,0,.336-2.014.532.532,0,0,0-.042-.252,6.822,6.822,0,0,1-.546,1.637c-.042.21-.084.378-.126.546a8.681,8.681,0,0,0-.168.923l-.252,1.259c-.084.5-.21,1.007-.294,1.553l-.252,1.637c-.21,1.343-.42,2.77-.671,4.113-1.217-.755-1.763-2.937-2.014-4.784a4.417,4.417,0,0,0-.294.462c.294,1.93.923,3.987,2.224,4.742-.042.168-.042.294-.084.462-.294,1.343-.629,2.644-1.007,3.987a12.643,12.643,0,0,1-2.518-4.658,3.552,3.552,0,0,1-.168.713,14.254,14.254,0,0,0,2.518,4.364c-.336,1.133-.671,2.224-1.007,3.357a.325.325,0,0,0-.042.126c-.084.294-.21.629-.294.923-.294-.42-.629-.8-.923-1.175a10.945,10.945,0,0,1-.923-1.133,8.627,8.627,0,0,1-1.091-2.686l-.252.378a9.355,9.355,0,0,0,1.091,2.518,13.056,13.056,0,0,0,.965,1.175,7.226,7.226,0,0,1,1.007,1.3l.084-.042c-.42,1.385-.839,2.854-1.217,4.28a1.818,1.818,0,0,1-.042.21,10.221,10.221,0,0,0-1.259-1.553,11.26,11.26,0,0,1-.755-.839,14.707,14.707,0,0,1-1.93-3.441c-.042.21-.084.462-.126.671a16.369,16.369,0,0,0,1.763,2.979,4.865,4.865,0,0,0,.8.881A4.658,4.658,0,0,1,400,346.374c-.587,2.266-1.259,4.7-1.93,7.008a40.273,40.273,0,0,0-1.007,5.371c0,.126-.042.294-.042.42a2.474,2.474,0,0,1,.168.336l-.084,1.385c.126-.713.21-1.427.294-2.1a39.512,39.512,0,0,1,.965-5.33c.671-2.35,1.343-4.784,1.93-7.05v-.042c.084-.252.126-.5.21-.755.126-.5.294-1.007.42-1.511a12.018,12.018,0,0,1,2.266-.462c.629-.084,1.259-.168,1.8-.294a10.083,10.083,0,0,0,3.357-1.679c0-.168.042-.294.042-.462a9.733,9.733,0,0,1-3.483,1.763c-.546.126-1.175.21-1.763.294a15.554,15.554,0,0,0-2.1.378c.336-1.217.713-2.392,1.091-3.567a3.694,3.694,0,0,1,1.259-.378,6.42,6.42,0,0,0,1.049-.252,8.014,8.014,0,0,0,3.021-1.721c-.084-.084-.126-.21-.21-.294a8.244,8.244,0,0,1-2.937,1.637,3.563,3.563,0,0,1-1.007.21,7.675,7.675,0,0,0-1.049.252c.546-1.763,1.091-3.525,1.553-5.33h.42a9.261,9.261,0,0,0,3.651-1.259c.042-.168.042-.336.084-.462a8.37,8.37,0,0,1-4.029,1.427c.126-.587.294-1.133.42-1.721C404.535,331.266,404.7,330.385,404.871,329.462Z" transform="translate(-396.1 -319.6)" fill="#fff"/>
          <path id="Path_1430" data-name="Path 1430" d="M397.552,420.355l.126-.755c-.126.252-.252.5-.378.713Z" transform="translate(-396.796 -377.635)" fill="#fff"/>
        </g>
        <path id="Path_1431" data-name="Path 1431" d="M422.619,365.9c-3.441,2.014-13.3.965-12,7.176-4.532-.629-5.959,1.175-5.665,5.5-.042-.462-1.679-.168-1.888,0a4.978,4.978,0,0,0-1.091,1.385,10.755,10.755,0,0,0-.965,4.154A39.6,39.6,0,0,1,400,389.148c2.9-3.525,13.429-3.483,11.582-7.805,1.637.21,4.616.755,5.917-.588,1.679-1.679-.294-3.483-1.763-4.322,6.337-.8,5.665-3.567,4.826-6.672l1.133-1.343A10.655,10.655,0,0,0,422.619,365.9Z" transform="translate(-383.474 -346.47)" fill="#c4db71"/>
        <g id="Group_620" data-name="Group 620" transform="translate(0 13.219)">
          <g id="Group_604" data-name="Group 604" transform="translate(7.126 3.399)">
            <path id="Path_1432" data-name="Path 1432" d="M386.2,386.141c-8.645-5.33-8.6-26.732-8.6-26.941h.294c0,.21-.042,21.486,8.477,26.732Z" transform="translate(-377.6 -359.2)" fill="#46c65b"/>
          </g>
          <g id="Group_605" data-name="Group 605" transform="translate(12.707 22.473)">
            <path id="Path_1433" data-name="Path 1433" d="M390.942,409.288c0,.084,1.091-4.994,3.4-4.616,2.35.378-3.441,4.742-3.441,4.742Z" transform="translate(-390.9 -404.652)" fill="#46c65b"/>
          </g>
          <g id="Group_606" data-name="Group 606" transform="translate(10.987 19.609)">
            <path id="Path_1434" data-name="Path 1434" d="M386.8,402.642s2.224-5.833,3.987-4.658S386.8,402.642,386.8,402.642Z" transform="translate(-386.8 -397.827)" fill="#46c65b"/>
          </g>
          <g id="Group_607" data-name="Group 607" transform="translate(9.77 16.19)">
            <path id="Path_1435" data-name="Path 1435" d="M383.9,394.6s2.854-6.253,4.994-4.658C390.53,391.157,383.9,394.6,383.9,394.6Z" transform="translate(-383.9 -389.68)" fill="#46c65b"/>
          </g>
          <g id="Group_608" data-name="Group 608" transform="translate(8.385 10.407)">
            <path id="Path_1436" data-name="Path 1436" d="M380.6,380.725s2.182-6.127,3.9-4.574C386.181,377.7,380.6,380.725,380.6,380.725Z" transform="translate(-380.6 -375.899)" fill="#46c65b"/>
          </g>
          <g id="Group_609" data-name="Group 609" transform="translate(8.679 13.589)">
            <path id="Path_1437" data-name="Path 1437" d="M381.3,387.434s3.609-5.5,4.868-3.525C386.965,385.21,381.3,387.434,381.3,387.434Z" transform="translate(-381.3 -383.482)" fill="#46c65b"/>
          </g>
          <g id="Group_610" data-name="Group 610" transform="translate(7.798 6.094)">
            <path id="Path_1438" data-name="Path 1438" d="M379.2,370.816s2.518-6.63,4.2-4.91C385.117,367.626,379.2,370.816,379.2,370.816Z" transform="translate(-379.2 -365.621)" fill="#46c65b"/>
          </g>
          <g id="Group_611" data-name="Group 611" transform="translate(7.588 2.48)">
            <path id="Path_1439" data-name="Path 1439" d="M378.7,361.412s1.469-5.833,2.392-4.071C382.015,359.062,378.7,361.412,378.7,361.412Z" transform="translate(-378.7 -357.009)" fill="#46c65b"/>
          </g>
          <g id="Group_612" data-name="Group 612" transform="translate(6.017)">
            <path id="Path_1440" data-name="Path 1440" d="M376.15,356.387s-2.308-5.33-.5-5.288S376.15,356.387,376.15,356.387Z" transform="translate(-374.957 -351.099)" fill="#46c65b"/>
          </g>
          <g id="Group_613" data-name="Group 613" transform="translate(3.419 3.434)">
            <path id="Path_1441" data-name="Path 1441" d="M372.935,362.73s-5.413-1.595-3.9-3.147C370.543,358.072,372.935,362.73,372.935,362.73Z" transform="translate(-368.766 -359.282)" fill="#46c65b"/>
          </g>
          <g id="Group_614" data-name="Group 614" transform="translate(1.944 5.822)">
            <path id="Path_1442" data-name="Path 1442" d="M370.937,369.349s-6.379-1.721-5.623-3.9S370.937,369.349,370.937,369.349Z" transform="translate(-365.252 -364.974)" fill="#46c65b"/>
          </g>
          <g id="Group_615" data-name="Group 615" transform="translate(1.064 8.862)">
            <path id="Path_1443" data-name="Path 1443" d="M370.392,376.867s-8.435-1.972-7.092-4.2C364.6,370.489,370.392,376.867,370.392,376.867Z" transform="translate(-363.155 -372.216)" fill="#46c65b"/>
          </g>
          <g id="Group_616" data-name="Group 616" transform="translate(0 12.576)">
            <path id="Path_1444" data-name="Path 1444" d="M369.466,385.235s-9.484-.965-8.813-3.525C361.366,379.108,369.466,385.235,369.466,385.235Z" transform="translate(-360.619 -381.066)" fill="#46c65b"/>
          </g>
          <g id="Group_617" data-name="Group 617" transform="translate(1.05 20.31)">
            <path id="Path_1445" data-name="Path 1445" d="M372.3,401.22s-8.477-3.231-9.148-.839C362.483,402.814,372.3,401.22,372.3,401.22Z" transform="translate(-363.122 -399.498)" fill="#46c65b"/>
          </g>
          <g id="Group_618" data-name="Group 618" transform="translate(1.057 16.476)">
            <path id="Path_1446" data-name="Path 1446" d="M371.053,392.685s-6.966-3.9-7.847-1.595C362.283,393.4,371.053,392.685,371.053,392.685Z" transform="translate(-363.138 -390.36)" fill="#46c65b"/>
          </g>
          <g id="Group_619" data-name="Group 619" transform="translate(3.707 23.249)">
            <path id="Path_1447" data-name="Path 1447" d="M376.606,407.172s-7.6-1.888-7.134.671c.462,2.518,7.26-.168,7.26-.168Z" transform="translate(-369.452 -406.501)" fill="#46c65b"/>
          </g>
        </g>
        <path id="Path_1448" data-name="Path 1448" d="M398.266,411.7c0,10.239-3.651,18.506-8.183,18.506S381.9,421.9,381.9,411.7Z" transform="translate(-372.969 -373.05)" fill="#997059"/>
        <path id="Path_1449" data-name="Path 1449" d="M398.266,454.2c0,.629-3.651,1.133-8.183,1.133s-8.183-.5-8.183-1.133Z" transform="translate(-372.969 -397.715)" fill="#b0bcd8"/>
        <path id="Path_1450" data-name="Path 1450" d="M412.341,416.792a1.726,1.726,0,1,1-1.721-1.595A1.625,1.625,0,0,1,412.341,416.792Z" transform="translate(-388.639 -375.079)" fill="#fff" opacity="0.3"/>
      </g>
      <g id="Group_623" data-name="Group 623" transform="translate(-61.03 -90.998)">
        <g id="Group_622" data-name="Group 622" transform="translate(0 0)">
          <path id="Path_1451" data-name="Path 1451" d="M335.624,100.7H326.6l-14.646,6.8-2.056,9.568,15.863,16.618h9.862Z" transform="translate(-253.733 -100.7)" fill="#e1f2fc"/>
          <path id="Path_1452" data-name="Path 1452" d="M326.617,100.7H318.14s-.881,4.155-.546,4.155S326.617,100.7,326.617,100.7Z" transform="translate(-258.154 -100.7)" fill="#e1f2fc"/>
          <path id="Path_1453" data-name="Path 1453" d="M359.129,184.7v12.8L350.4,184.7Z" transform="translate(-277.237 -149.45)" fill="#e1f2fc"/>
          <path id="Path_1454" data-name="Path 1454" d="M280.491,100.7l-1.3,5.665L255.9,116.647l1.259-15.947Z" transform="translate(-222.393 -100.7)" fill="#e1f2fc"/>
          <path id="Path_1455" data-name="Path 1455" d="M209.568,100.7l-.252,5.2L176.5,109.89V100.7Z" transform="translate(-176.313 -100.7)" fill="#e1f2fc"/>
          <path id="Path_1456" data-name="Path 1456" d="M209.017,116.5l-.881,10.155-31.893,14.814s-.42-20.94,0-20.9S209.017,116.5,209.017,116.5Z" transform="translate(-176.056 -109.87)" fill="#e1f2fc"/>
          <path id="Path_1457" data-name="Path 1457" d="M277.342,119.7,271.3,140.389l-17.5-9.568Z" transform="translate(-221.175 -111.727)" fill="#e1f2fc"/>
          <path id="Path_1458" data-name="Path 1458" d="M303,143.6l14.31,14.981L298.8,157.91Z" transform="translate(-247.291 -125.597)" fill="#e1f2fc"/>
          <path id="Path_1459" data-name="Path 1459" d="M333.488,183.7l10.03,15.947v39.027H325.934L323.5,183.7Z" transform="translate(-261.625 -148.869)" fill="#e1f2fc"/>
          <path id="Path_1460" data-name="Path 1460" d="M289.244,293.9l.378,8.687s-18.255,1.637-25.221,3.987l-1.3-8.351Z" transform="translate(-226.572 -212.824)" fill="#e1f2fc"/>
          <path id="Path_1461" data-name="Path 1461" d="M223.288,280.579l2.392,17.038s-15.317,4.952-26.48,1.469l1.888-21.486Z" transform="translate(-189.488 -203.364)" fill="#e1f2fc"/>
          <path id="Path_1462" data-name="Path 1462" d="M176.5,344v14.268s5.288-.042,5.288,0,1.133-12,1.133-12Z" transform="translate(-176.313 -241.9)" fill="#e1f2fc"/>
          <path id="Path_1463" data-name="Path 1463" d="M176.5,225.3l11.247,5.917-3.987,36.341-7.26-2.812Z" transform="translate(-176.313 -173.012)" fill="#e1f2fc"/>
          <path id="Path_1464" data-name="Path 1464" d="M176.752,323.4s6.043,2.854,7.218,2.854l-.629,6.043s-6.043-1.553-6.84-2.308Z" transform="translate(-176.313 -229.944)" fill="#bdebff"/>
          <path id="Path_1465" data-name="Path 1465" d="M176.5,197.6l11.5,5.707,2.308-21.192L176.5,180.1Z" transform="translate(-176.313 -146.78)" fill="#e1f2fc"/>
          <path id="Path_1466" data-name="Path 1466" d="M222.671,218.2l3.4,25.976-21.57-2.518,1.3-14.688Z" transform="translate(-192.563 -168.891)" fill="#e1f2fc"/>
          <path id="Path_1467" data-name="Path 1467" d="M225.514,197.744,209.4,206.263l1.763-19.933,12.715-.629Z" transform="translate(-195.407 -150.03)" fill="#e1f2fc"/>
          <path id="Path_1468" data-name="Path 1468" d="M279.115,183,281,228.028l-26.144,4.238L248.9,184.133Z" transform="translate(-218.331 -148.463)" fill="#e1f2fc"/>
          <path id="Path_1469" data-name="Path 1469" d="M212.148,351.537l1.763,10.155H193.6l1.259-11.792A49.205,49.205,0,0,0,212.148,351.537Z" transform="translate(-186.238 -245.324)" fill="#e1f2fc"/>
          <path id="Path_1470" data-name="Path 1470" d="M240.9,349.444l1.888,10.449h35.25v-4.658L253.615,346.8C253.657,346.8,246.146,349.612,240.9,349.444Z" transform="translate(-213.688 -243.525)" fill="#e1f2fc"/>
          <path id="Path_1471" data-name="Path 1471" d="M297.331,337.47,298,348.549l-22.7-7.68S287.428,337.135,297.331,337.47Z" transform="translate(-233.652 -238.098)" fill="#e1f2fc"/>
          <path id="Path_1472" data-name="Path 1472" d="M348.044,337.139v17H331.971l-.671-17A146.546,146.546,0,0,1,348.044,337.139Z" transform="translate(-266.152 -237.766)" fill="#e1f2fc"/>
          <path id="Path_1473" data-name="Path 1473" d="M347,318.5v6.043H330l-.5-6.043Z" transform="translate(-265.107 -227.101)" fill="#bdebff"/>
          <path id="Path_1474" data-name="Path 1474" d="M222.7,323.7a30.114,30.114,0,0,1-25.179.336l-.42,6.295a79.053,79.053,0,0,0,9.526,1.343c10.365.8,23.29-3.819,23.29-3.819,6.84-2.182,21.654-3.063,21.654-3.063V318.5S231.763,319.549,222.7,323.7Z" transform="translate(-188.269 -227.101)" fill="#bdebff"/>
        </g>
        <path id="Path_1475" data-name="Path 1475" d="M181.4,160.76l28.326-11.96,18.423,9.19-1.469,2.77Z" transform="translate(-179.157 -128.615)" fill="#e1f2fc"/>
      </g>
      <path id="Path_1476" data-name="Path 1476" d="M113.8,399.852s1.175-.713,1.888-4.868a37.585,37.585,0,0,1,1.385-6.085c.462-1.385,1.133-3.021,2.434-3.819,1.511-.881,2.14-2.77,2.728-4.322.336-.965.629-1.93.923-2.9,0,0,1.385-4.532,1.888-6.463,0,0,4.784,2.056,6.295,1.637l-8.183,15.485c0,.252-.42.755-.546,1.007-.168.294-.336.629-.5.923-1.3,2.392-2.518,4.868-4.029,7.134-.965,1.469-2.1,2.6-2.35,4.448,0,0-.588,4.28.168,5.12a4.072,4.072,0,0,1-2.056-1.637v-5.665Z" transform="translate(-200.955 -348.799)" fill="#ffc3a2"/>
      <path id="Path_1477" data-name="Path 1477" d="M158.6,375.4s3.693,1.049,6.043.378c-.252,3.609-.671,7.26-1.133,10.827-.252,1.972-.588,3.945-.965,5.875-.629,3.189-1.469,6.295-2.14,9.484-.5,2.476-.965,4.994-1.637,7.428-.042.21-.126.42-.168.629a3.571,3.571,0,0,1-2.014-1.553,112.719,112.719,0,0,1,.42-11.918c.294-3.105,1.217-6.043,1.427-9.148.21-2.9.336-5.791.294-8.687C158.727,377.624,158.685,376.533,158.6,375.4Z" transform="translate(-225.78 -351.121)" fill="#ffc3a2"/>
      <path id="Path_1478" data-name="Path 1478" d="M112.036,437.759v4.574a3.74,3.74,0,0,0,.126,1.8,3.341,3.341,0,0,0,1.343,1.049c.671.378,3.777,1.343,3.483,2.392-.252.839-1.679.588-2.308.5a8.316,8.316,0,0,1-1.385-.336,4.34,4.34,0,0,1-1.3-1.007c-1.469-1.385-1.217-3.315-1.217-5.162,0-1.217.042-2.434.084-3.651C110.9,437.927,111.239,436.626,112.036,437.759Z" transform="translate(-199.191 -387.042)" fill="#353566"/>
      <path id="Path_1479" data-name="Path 1479" d="M155.149,454.3a3.922,3.922,0,0,0,1.175,1.175,8.578,8.578,0,0,0,3.231,1.427c1.049.252,2.392.126,3.315.671.378.252.5.587.168.965-.629.629-1.93.294-2.686.126-1.3-.294-2.6-.5-3.861-.755a2.972,2.972,0,0,1-2.266-1.427C153.806,455.643,154.52,454.8,155.149,454.3Z" transform="translate(-224.343 -396.91)" fill="#353566"/>
      <path id="Path_1480" data-name="Path 1480" d="M141.48,316.6s-10.953,12.38-10.407,29.124c0,0,4.658,3.147,8.057,2.14,3.441-1.007,9.442-1.469,11.2.21,0,0,8.183-4.994,1.343-30.382Z" transform="translate(-210.968 -316.996)" fill="#7ab6f6"/>
      <path id="Path_1481" data-name="Path 1481" d="M157.631,251.7s9.736,1.049,9.652,9.274l-1.553,19.052-10.239-1.049C155.491,278.935,154.022,254.344,157.631,251.7Z" transform="translate(-224.979 -279.331)" fill="#ef8c8a"/>
      <path id="Path_1482" data-name="Path 1482" d="M190.081,208.1l-.671,3.4s-4.155,10.953-7.847,12.673l-6.463,3.777,1.3,1.721a76.163,76.163,0,0,1,7.3-2.938s4.113-3.021,7.134-14.226l2.014-1.049Z" transform="translate(-236.531 -254.028)" fill="#f3b695"/>
      <path id="Path_1483" data-name="Path 1483" d="M169.209,208.1s1.846,7.512-.671,10.785c0,0-3.105,2.686-2.728,9.106,0,0-3.525-1.553-4.91-1.595,0,0,2.6-2.6,2.686-4.071s.042-1.259-.587-4.616,3.987-6.63,3.987-6.63A3.155,3.155,0,0,0,169.209,208.1Z" transform="translate(-228.29 -254.028)" fill="#edbeaa"/>
      <path id="Path_1484" data-name="Path 1484" d="M130.868,207.4a9.1,9.1,0,0,1,1.511-2.728c1.595-1.93,7.638-5.539,9.694-2.6.629.881.5,3.231-.462,3.9-1.637,1.175-4.826,3.4-5.036,5.623a10.164,10.164,0,0,0-.294,1.972c.21,1.679,1.007,2.854.587,4.616-.546,2.392-2.9,3.315-3.4,5.581a8.723,8.723,0,0,0,.839,5.623c2.308,4.784,3.9,10.114.881,14.981-3.189,5.12-9.946,5.623-9.946,5.623s-7.931.755-10.239-7.176c-1.007-3.483,1.763-6.211,3.9-8.435,1.553-1.595.881-4.155.588-6.085a9.578,9.578,0,0,1,1.553-6.672c1.385-2.014,3.651-3.189,5.5-4.7C129.651,214.4,129.567,210.836,130.868,207.4Z" transform="translate(-201.53 -249.882)" fill="#2e2e6e"/>
      <g id="Group_625" data-name="Group 625" transform="translate(-39.609 -43.284)">
        <g id="Group_624" data-name="Group 624" transform="translate(0 0)">
          <line id="Line_1" data-name="Line 1" y1="0.671" x2="1.301" transform="translate(0 3.903)" fill="none" stroke="#f63744" stroke-miterlimit="10" stroke-width="1"/>
          <line id="Line_2" data-name="Line 2" y1="1.595" x2="3.063" transform="translate(3.315 1.217)" fill="none" stroke="#f63744" stroke-miterlimit="10" stroke-width="1" stroke-dasharray="5.475 5.475"/>
          <path id="Path_1485" data-name="Path 1485" d="M244.7,215.071l1.3-.671.21,1.427" transform="translate(-237.314 -214.4)" fill="none" stroke="#f63744" stroke-miterlimit="10" stroke-width="1"/>
          <line id="Line_3" data-name="Line 3" x2="3.651" y2="28.662" transform="translate(9.274 4.448)" fill="none" stroke="#f63744" stroke-miterlimit="10" stroke-width="1" stroke-dasharray="7.25 7.25"/>
          <path id="Path_1486" data-name="Path 1486" d="M258.4,296.9l.168,1.469,1.469-.21" transform="translate(-245.265 -262.279)" fill="none" stroke="#f63744" stroke-miterlimit="10" stroke-width="1"/>
          <line id="Line_4" data-name="Line 4" y1="3.147" x2="20.898" transform="translate(17.541 32.313)" fill="none" stroke="#f63744" stroke-miterlimit="10" stroke-width="1" stroke-dasharray="6.705 6.705"/>
          <line id="Line_5" data-name="Line 5" y1="0.252" x2="1.427" transform="translate(39.825 31.851)" fill="none" stroke="#f63744" stroke-miterlimit="10" stroke-width="1"/>
        </g>
      </g>
      <circle id="Ellipse_30" data-name="Ellipse 30" cx="1.553" cy="1.553" r="1.553" transform="translate(-0.708 -13.027)" fill="#7166a8"/>
      <g id="Group_629" data-name="Group 629" transform="translate(-50.354 -61.499)">
        <path id="Path_1487" data-name="Path 1487" d="M217.611,175.529a9.057,9.057,0,0,0-5.833-4.364,8.775,8.775,0,0,0-9.988,6.211c-1.3,5.12,1.93,7.805,4.868,11.414l3.9,4.784a27.007,27.007,0,0,0,6-8.351C218.115,182.159,219.457,178.886,217.611,175.529Zm-7.638,7.554a3.735,3.735,0,1,1,3.735-3.735A3.743,3.743,0,0,1,209.973,183.082Z" transform="translate(-201.494 -170.994)" fill="#f75c6c"/>
        <g id="Group_628" data-name="Group 628" transform="translate(1.076 1.052)">
          <path id="Path_1488" data-name="Path 1488" d="M219,180.86v.126a8.279,8.279,0,0,1-.168,1.469,8.657,8.657,0,0,1-.5,1.469,10.47,10.47,0,0,1-.881,1.469,8.589,8.589,0,0,1-1.553,1.469,7.212,7.212,0,0,1-4.2,1.3,7.633,7.633,0,0,1-4.2-1.3,7.4,7.4,0,0,1-1.553-1.469,5.261,5.261,0,0,1-.881-1.469,8.657,8.657,0,0,1-.5-1.469,5.633,5.633,0,0,1-.168-1.469v-.126a7.273,7.273,0,0,1,.126-1.343.252.252,0,0,1,.042-.168l-.126-.084c-.042-.042,0-.084.042-.084h.126a5.986,5.986,0,0,1,.378-1.133h-.21l.21-.126.042.042.252-.5c.168-.294.336-.546.5-.839h0a.041.041,0,0,1,.042-.042,6.37,6.37,0,0,1,1.385-1.427,3.94,3.94,0,0,1,.755-.5.147.147,0,0,0,.084-.042,7.315,7.315,0,0,1,2.308-.881h0v-.042c0-.042.084-.042.084,0v.042a6.832,6.832,0,0,1,1.3-.126,7.727,7.727,0,0,1,1.385.126,7.409,7.409,0,0,1,3.189,1.469,6.554,6.554,0,0,1,1.385,1.469,6.207,6.207,0,0,1,.8,1.469,5.891,5.891,0,0,1,.42,1.469A11.888,11.888,0,0,1,219,180.86Z" transform="translate(-204.257 -173.558)" fill="#f5f5f5"/>
          <g id="Group_626" data-name="Group 626" transform="translate(0.101 0.168)">
            <path id="Path_1489" data-name="Path 1489" d="M218.922,182.327H205.2l.21-.126.042.042.252-.5c.168-.294.336-.546.5-.839h11.918A9.085,9.085,0,0,1,218.922,182.327Z" transform="translate(-204.822 -177.962)" fill="#ff4b55"/>
            <path id="Path_1490" data-name="Path 1490" d="M219.948,175.327H210.8a3.941,3.941,0,0,1,.755-.5.146.146,0,0,0,.084-.042,7.315,7.315,0,0,1,2.308-.881h2.812A6.928,6.928,0,0,1,219.948,175.327Z" transform="translate(-208.072 -173.9)" fill="#ff4b55"/>
            <path id="Path_1491" data-name="Path 1491" d="M218.946,189.043v.126H204.3v-.126a7.273,7.273,0,0,1,.126-1.343H218.82A7.623,7.623,0,0,1,218.946,189.043Z" transform="translate(-204.3 -181.909)" fill="#ff4b55"/>
            <path id="Path_1492" data-name="Path 1492" d="M219.5,201.7a8.589,8.589,0,0,1-1.553,1.469h-8.393A7.4,7.4,0,0,1,208,201.7Z" transform="translate(-206.447 -190.034)" fill="#ff4b55"/>
            <path id="Path_1493" data-name="Path 1493" d="M219.01,194.8a8.657,8.657,0,0,1-.5,1.469H205.2a8.657,8.657,0,0,1-.5-1.469Z" transform="translate(-204.532 -186.029)" fill="#ff4b55"/>
          </g>
          <path id="Path_1494" data-name="Path 1494" d="M211.6,173.5v6.966a.485.485,0,0,1-.5.5h-6.8v-.126a7.271,7.271,0,0,1,.126-1.343.252.252,0,0,1,.042-.168l-.126-.084c-.042-.042,0-.084.042-.084h.126a5.984,5.984,0,0,1,.378-1.133h-.21l.21-.126.042.042.252-.5c.168-.294.336-.546.5-.839h0a.041.041,0,0,1,.042-.042,6.37,6.37,0,0,1,1.385-1.427,3.943,3.943,0,0,1,.755-.5.147.147,0,0,0,.084-.042,7.315,7.315,0,0,1,2.308-.881h0v-.042c0-.042.084-.042.084,0v.042A3.18,3.18,0,0,1,211.6,173.5Z" transform="translate(-204.199 -173.5)" fill="#41479b"/>
          <g id="Group_627" data-name="Group 627" transform="translate(0 0.052)">
            <path id="Path_1495" data-name="Path 1495" d="M206.146,182.826l-.294.21.084.336h0c0,.042-.042.084-.084.042l-.084-.084-.168-.126.252-.5h.21C206.146,182.742,206.188,182.826,206.146,182.826Z" transform="translate(-204.953 -178.892)" fill="#f5f5f5"/>
            <path id="Path_1496" data-name="Path 1496" d="M205.251,186.576l-.294.21v.042l.084.294c0,.042-.042.084-.084.042l-.294-.21-.294.21c-.042.042-.084,0-.084-.042l.084-.294v-.042l-.168-.126-.126-.084c-.042-.042,0-.084.042-.084h.336l.126-.336c0-.042.084-.042.084,0l.126.336h.336C205.251,186.492,205.293,186.534,205.251,186.576Z" transform="translate(-204.059 -180.879)" fill="#f5f5f5"/>
            <path id="Path_1497" data-name="Path 1497" d="M208.533,180.276l-.294.21.084.336c0,.042-.042.084-.084.042l-.294-.21-.294.21c-.042.042-.084,0-.084-.042l.126-.336-.294-.21v-.042h0a.041.041,0,0,1,.042-.042h.336l.126-.336c0-.042.084-.042.084,0l.126.336h.336c.042,0,.042,0,.042.042A.041.041,0,0,1,208.533,180.276Z" transform="translate(-205.998 -177.223)" fill="#f5f5f5"/>
            <path id="Path_1498" data-name="Path 1498" d="M208.063,183.956l.126.336h.336c.042,0,.084.042.042.084l-.294.21.126.336c0,.042-.042.084-.084.042l-.294-.21-.294.21c-.042.042-.084,0-.084-.042l.126-.336-.294-.21c-.042-.042,0-.084.042-.084h.336l.126-.336C208.022,183.914,208.063,183.914,208.063,183.956Z" transform="translate(-206.032 -179.603)" fill="#f5f5f5"/>
            <path id="Path_1499" data-name="Path 1499" d="M212.726,176c0,.042-.042.084-.084.042L212.6,176Z" transform="translate(-209.016 -175.003)" fill="#f5f5f5"/>
            <path id="Path_1500" data-name="Path 1500" d="M211.263,177.856l.126.336h.336c.042,0,.084.042.042.084l-.294.21.126.336c0,.042-.042.084-.084.042l-.294-.21-.294.21c-.042.042-.084,0-.084-.042l.126-.336-.294-.21c-.042-.042,0-.084.042-.084h.336l.126-.336C211.222,177.815,211.263,177.815,211.263,177.856Z" transform="translate(-207.889 -176.063)" fill="#f5f5f5"/>
            <path id="Path_1501" data-name="Path 1501" d="M211.263,181.962l.126.336h.336c.042,0,.084.042.042.084l-.294.21.126.336c0,.042-.042.084-.084.042l-.294-.168-.294.21c-.042.042-.084,0-.084-.042l.126-.336-.294-.21c-.042-.042,0-.084.042-.084h.336l.126-.336C211.221,181.92,211.263,181.92,211.263,181.962Z" transform="translate(-207.889 -178.447)" fill="#f5f5f5"/>
            <path id="Path_1502" data-name="Path 1502" d="M211.263,186.156l.126.336h.336c.042,0,.084.042.042.084l-.294.21.126.336c0,.042-.042.084-.084.042l-.294-.21-.294.21c-.042.042-.084,0-.084-.042l.126-.336-.294-.21c-.042-.042,0-.084.042-.084h.336l.126-.336C211.222,186.115,211.263,186.115,211.263,186.156Z" transform="translate(-207.889 -180.879)" fill="#f5f5f5"/>
            <path id="Path_1503" data-name="Path 1503" d="M214.563,175.713l.126.336h.336c.042,0,.084.042.042.084l-.294.21.126.336c0,.042-.042.084-.084.042l-.294-.21-.294.21c-.042.042-.084,0-.084-.042l.126-.336-.294-.21c-.042-.042,0-.084.042-.084h.336l.126-.336C214.48,175.629,214.522,175.629,214.563,175.713Z" transform="translate(-209.804 -174.8)" fill="#f5f5f5"/>
            <path id="Path_1504" data-name="Path 1504" d="M214.563,179.856l.126.336h.336c.042,0,.084.042.042.084l-.294.21.126.336c0,.042-.042.084-.084.042l-.294-.21-.294.21c-.042.042-.084,0-.084-.042l.126-.336-.294-.21c-.042-.042,0-.084.042-.084h.336l.126-.336C214.48,179.815,214.522,179.815,214.563,179.856Z" transform="translate(-209.804 -177.223)" fill="#f5f5f5"/>
            <path id="Path_1505" data-name="Path 1505" d="M214.563,183.956l.126.336h.336c.042,0,.084.042.042.084l-.294.21.126.336c0,.042-.042.084-.084.042l-.294-.21-.294.21c-.042.042-.084,0-.084-.042l.126-.336-.294-.21c-.042-.042,0-.084.042-.084h.336l.126-.336C214.48,183.914,214.522,183.914,214.563,183.956Z" transform="translate(-209.804 -179.603)" fill="#f5f5f5"/>
            <path id="Path_1506" data-name="Path 1506" d="M218.267,174.076l-.294.21.126.336c0,.042-.042.084-.084.042l-.294-.21-.294.21c-.042.042-.084,0-.084-.042l.126-.336-.294-.21c-.042-.042,0-.084.042-.084h.336l.084-.294h0v-.042c0-.042.084-.042.084,0v.042h0l.084.294h.336C218.267,173.992,218.267,174.076,218.267,174.076Z" transform="translate(-211.661 -173.625)" fill="#f5f5f5"/>
            <path id="Path_1507" data-name="Path 1507" d="M217.763,177.856l.126.336h.336c.042,0,.084.042.042.084l-.294.21.126.336c0,.042-.042.084-.084.042l-.294-.21-.294.21c-.042.042-.084,0-.084-.042l.126-.336-.294-.21c-.042-.042,0-.084.042-.084h.336l.126-.336C217.68,177.815,217.763,177.815,217.763,177.856Z" transform="translate(-211.661 -176.063)" fill="#f5f5f5"/>
            <path id="Path_1508" data-name="Path 1508" d="M217.763,181.956l.126.336h.336c.042,0,.084.042.042.084l-.294.21.126.336c0,.042-.042.084-.084.042l-.294-.21-.294.21c-.042.042-.084,0-.084-.042l.126-.336-.294-.21c-.042-.042,0-.084.042-.084h.336l.126-.336C217.68,181.914,217.763,181.914,217.763,181.956Z" transform="translate(-211.661 -178.442)" fill="#f5f5f5"/>
            <path id="Path_1509" data-name="Path 1509" d="M217.763,186.156l.126.336h.336c.042,0,.084.042.042.084l-.294.21.126.336c0,.042-.042.084-.084.042l-.294-.21-.294.21c-.042.042-.084,0-.084-.042l.126-.336-.294-.21c-.042-.042,0-.084.042-.084h.336l.126-.336C217.68,186.115,217.763,186.115,217.763,186.156Z" transform="translate(-211.661 -180.879)" fill="#f5f5f5"/>
          </g>
          <path id="Path_1510" data-name="Path 1510" d="M219,180.8v.126a8.279,8.279,0,0,1-.168,1.469,8.657,8.657,0,0,1-.5,1.469,10.472,10.472,0,0,1-.881,1.469A8.589,8.589,0,0,1,215.9,186.8a7.212,7.212,0,0,1-4.2,1.3,7.633,7.633,0,0,1-4.2-1.3,7.4,7.4,0,0,1-1.553-1.469,5.262,5.262,0,0,1-.881-1.469,8.657,8.657,0,0,1-.5-1.469,5.633,5.633,0,0,1-.168-1.469V180.8a7.273,7.273,0,0,1,.126-1.343.252.252,0,0,1,.042-.168c0-.084.042-.126.042-.168a5.987,5.987,0,0,1,.378-1.133c0-.042.042-.084.042-.126l.252-.5c.168-.294.336-.546.5-.839h0a.041.041,0,0,1,.042-.042,6.37,6.37,0,0,1,1.385-1.427,3.94,3.94,0,0,1,.755-.5.146.146,0,0,0,.084-.042,7.315,7.315,0,0,1,2.308-.881h.126a6.832,6.832,0,0,1,1.3-.126,7.727,7.727,0,0,1,1.385.126,7.409,7.409,0,0,1,3.189,1.469,6.554,6.554,0,0,1,1.385,1.469,6.206,6.206,0,0,1,.8,1.469,5.89,5.89,0,0,1,.42,1.469C218.962,179.921,219,180.382,219,180.8Z" transform="translate(-204.257 -173.5)" fill="none"/>
        </g>
      </g>
      <path id="Path_1511" data-name="Path 1511" d="M168.2,234.708a5.509,5.509,0,0,1,2.182-2.308,23.88,23.88,0,0,1,4.2-2.266c3.819-1.595,7.344-1.846,9.946-5.371,1.217-1.679,2.392-3.357,3.525-5.12l1.637-2.518c1.217-1.846,1.637-6.043,4.49-6.127,2.812-.084,0,3.273,0,3.273-3.441,4.113-4.742,9.778-8.687,13.471-2.518,2.392-5.665,4.113-8.393,6.211a17.38,17.38,0,0,1-7.68,3.777C169.459,237.813,167.109,238.023,168.2,234.708Z" transform="translate(-232.358 -255.708)" fill="#fec2a2"/>
      <g id="Group_631" data-name="Group 631" transform="translate(-107.441 -111.689)">
        <path id="Path_1512" data-name="Path 1512" d="M81.717,55.971a8.961,8.961,0,0,0-5.875-4.406,8.858,8.858,0,0,0-10.072,6.253c-1.343,5.162,1.93,7.889,4.868,11.5,1.3,1.595,2.6,3.231,3.9,4.826,2.644-2.224,4.49-5.371,6.043-8.393C82.221,62.6,83.564,59.328,81.717,55.971Zm-7.68,7.6a3.777,3.777,0,1,1,3.777-3.777A3.788,3.788,0,0,1,74.038,63.566Z" transform="translate(-65.46 -51.394)" fill="#f75c6c"/>
        <g id="Group_630" data-name="Group 630" transform="translate(1.234 1.135)">
          <path id="Path_1513" data-name="Path 1513" d="M83.351,58.086H70.3A7.308,7.308,0,0,1,76.847,54.1,7.169,7.169,0,0,1,83.351,58.086Z" transform="translate(-69.503 -54.098)" fill="#f5f5f5"/>
          <path id="Path_1514" data-name="Path 1514" d="M83.409,79.4a7.3,7.3,0,0,1-13.009,0Z" transform="translate(-69.561 -68.782)" fill="#ff4b55"/>
          <path id="Path_1515" data-name="Path 1515" d="M83.046,66.915a7.163,7.163,0,0,1-.8,3.315H69.2a7.426,7.426,0,0,1-.8-3.315,7.293,7.293,0,0,1,.8-3.315H82.248A7.163,7.163,0,0,1,83.046,66.915Z" transform="translate(-68.4 -59.613)" fill="#41479b"/>
          <path id="Path_1516" data-name="Path 1516" d="M83.1,61.4a7.163,7.163,0,0,1-.8,3.315,7.3,7.3,0,0,1-13.009,0,7.426,7.426,0,0,1-.8-3.315,7.305,7.305,0,0,1,7.344-7.3,7.385,7.385,0,0,1,6.547,3.987A8.352,8.352,0,0,1,83.1,61.4Z" transform="translate(-68.458 -54.099)" fill="none"/>
        </g>
      </g>
      <g id="Group_635" data-name="Group 635" transform="translate(-118.432 -37.755)">
        <path id="Path_1517" data-name="Path 1517" d="M55.984,232.285a8.867,8.867,0,0,0-16.408,1.888c-1.343,5.33,1.972,8.1,5.036,11.834,1.343,1.637,2.686,3.315,4.029,4.952a27.71,27.71,0,0,0,6.211-8.645C56.487,239.126,57.872,235.726,55.984,232.285Zm-7.889,7.805a3.861,3.861,0,1,1,3.861-3.861A3.851,3.851,0,0,1,48.094,240.091Z" transform="translate(-39.268 -227.575)" fill="#f75c6c"/>
        <g id="Group_634" data-name="Group 634" transform="translate(0.895 0.808)">
          <g id="Group_633" data-name="Group 633">
            <path id="Path_1518" data-name="Path 1518" d="M57.179,237.405a7.271,7.271,0,0,1-.126,1.343,6.707,6.707,0,0,1-.21.881,5.482,5.482,0,0,1-.336.881,4.235,4.235,0,0,1-.294.629,7.3,7.3,0,0,1-.462.755,6.848,6.848,0,0,1-.713.839,7.854,7.854,0,0,1-3.525,2.182,6.706,6.706,0,0,1-.881.21,6.946,6.946,0,0,1-1.343.126,7.273,7.273,0,0,1-1.343-.126,6.706,6.706,0,0,1-.881-.21,7.588,7.588,0,0,1-3.525-2.182,5.318,5.318,0,0,1-.462-.546c-.168-.21-.336-.462-.5-.713-.168-.294-.336-.629-.5-.923a7.567,7.567,0,0,1-.336-.881,6.708,6.708,0,0,1-.21-.881,6.945,6.945,0,0,1-.126-1.343,7.272,7.272,0,0,1,.126-1.343,6.708,6.708,0,0,1,.21-.881,5.482,5.482,0,0,1,.336-.881c.084-.168.168-.336.252-.546a7.3,7.3,0,0,1,.462-.755,5.2,5.2,0,0,1,.755-.923,7.854,7.854,0,0,1,3.525-2.182,6.711,6.711,0,0,1,.881-.21,6.946,6.946,0,0,1,1.343-.126,7.273,7.273,0,0,1,1.343.126,6.711,6.711,0,0,1,.881.21,8.335,8.335,0,0,1,3.525,2.182,5.316,5.316,0,0,1,.462.546c.168.252.336.462.5.755s.336.629.5.965a7.564,7.564,0,0,1,.336.881,6.707,6.707,0,0,1,.21.881A5.814,5.814,0,0,1,57.179,237.405Z" transform="translate(-41.4 -229.558)" fill="#41479b"/>
            <path id="Path_1519" data-name="Path 1519" d="M57.295,237.463a7.272,7.272,0,0,1-.126,1.343,6.708,6.708,0,0,1-.21.881H55.281l1.385.881a4.235,4.235,0,0,1-.294.629,7.3,7.3,0,0,1-.462.755,6.847,6.847,0,0,1-.713.839l-3.525-2.308v4.448a6.706,6.706,0,0,1-.881.21,6.945,6.945,0,0,1-1.343.126,7.273,7.273,0,0,1-1.343-.126,6.706,6.706,0,0,1-.881-.21v-4.448L43.7,242.793a5.313,5.313,0,0,1-.462-.546c-.168-.21-.336-.462-.5-.713-.168-.294-.336-.629-.5-.923l1.385-.881H41.936a6.708,6.708,0,0,1-.21-.881,6.946,6.946,0,0,1-.126-1.343,7.272,7.272,0,0,1,.126-1.343,6.708,6.708,0,0,1,.21-.881h1.721l-1.385-.881c.084-.168.168-.336.252-.546a7.3,7.3,0,0,1,.462-.755,5.2,5.2,0,0,1,.755-.923l3.525,2.308v-4.448a6.709,6.709,0,0,1,.881-.21,6.946,6.946,0,0,1,1.343-.126,7.273,7.273,0,0,1,1.343.126,6.708,6.708,0,0,1,.881.21v4.448l3.525-2.308a5.316,5.316,0,0,1,.462.546c.168.252.336.462.5.755s.336.629.5.965l-1.385.881h1.721a6.709,6.709,0,0,1,.21.881C57.253,236.582,57.295,237,57.295,237.463Z" transform="translate(-41.516 -229.616)" fill="#f5f5f5"/>
            <g id="Group_632" data-name="Group 632" transform="translate(0.084)">
              <path id="Path_1520" data-name="Path 1520" d="M57.295,237.347a7.272,7.272,0,0,1-.126,1.343H50.79v6.379a6.946,6.946,0,0,1-1.343.126,7.273,7.273,0,0,1-1.343-.126V238.69H41.726a6.946,6.946,0,0,1-.126-1.343A7.272,7.272,0,0,1,41.726,236H48.1v-6.379a6.946,6.946,0,0,1,1.343-.126,7.273,7.273,0,0,1,1.343.126V236h6.379A7.272,7.272,0,0,1,57.295,237.347Z" transform="translate(-41.6 -229.5)" fill="#ff4b55"/>
              <path id="Path_1521" data-name="Path 1521" d="M48.748,253.5,44.8,256.06c-.168-.21-.336-.462-.5-.713l2.812-1.846Z" transform="translate(-43.167 -243.428)" fill="#ff4b55"/>
              <path id="Path_1522" data-name="Path 1522" d="M68.837,253.5l2.35,1.511a7.3,7.3,0,0,1-.462.755L67.2,253.5Z" transform="translate(-56.457 -243.428)" fill="#ff4b55"/>
              <path id="Path_1523" data-name="Path 1523" d="M47.561,239.882H45.924L43.7,238.455a7.3,7.3,0,0,1,.462-.755Z" transform="translate(-42.819 -234.259)" fill="#ff4b55"/>
              <path id="Path_1524" data-name="Path 1524" d="M69.487,236.8c.168.252.336.462.5.755L67.137,239.4H65.5Z" transform="translate(-55.47 -233.737)" fill="#ff4b55"/>
            </g>
          </g>
          <path id="Path_1525" data-name="Path 1525" d="M57.179,237.405a7.271,7.271,0,0,1-.126,1.343,6.707,6.707,0,0,1-.21.881,5.482,5.482,0,0,1-.336.881,4.235,4.235,0,0,1-.294.629,7.3,7.3,0,0,1-.462.755,6.848,6.848,0,0,1-.713.839,7.854,7.854,0,0,1-3.525,2.182,6.706,6.706,0,0,1-.881.21,6.946,6.946,0,0,1-1.343.126,7.273,7.273,0,0,1-1.343-.126,6.706,6.706,0,0,1-.881-.21,7.588,7.588,0,0,1-3.525-2.182,5.318,5.318,0,0,1-.462-.546c-.168-.21-.336-.462-.5-.713-.168-.294-.336-.629-.5-.923a7.567,7.567,0,0,1-.336-.881,6.708,6.708,0,0,1-.21-.881,6.945,6.945,0,0,1-.126-1.343,7.272,7.272,0,0,1,.126-1.343,6.708,6.708,0,0,1,.21-.881,5.482,5.482,0,0,1,.336-.881c.084-.168.168-.336.252-.546a7.3,7.3,0,0,1,.462-.755,5.2,5.2,0,0,1,.755-.923,7.854,7.854,0,0,1,3.525-2.182,6.711,6.711,0,0,1,.881-.21,6.946,6.946,0,0,1,1.343-.126,7.273,7.273,0,0,1,1.343.126,6.711,6.711,0,0,1,.881.21,8.335,8.335,0,0,1,3.525,2.182,5.316,5.316,0,0,1,.462.546c.168.252.336.462.5.755s.336.629.5.965a7.564,7.564,0,0,1,.336.881,6.707,6.707,0,0,1,.21.881A5.814,5.814,0,0,1,57.179,237.405Z" transform="translate(-41.4 -229.558)" fill="none"/>
        </g>
      </g>
      <g id="Group_638" data-name="Group 638" transform="translate(45.746 -60.139)">
        <path id="Path_1526" data-name="Path 1526" d="M448.459,179.3a9.965,9.965,0,0,0-6.5-4.868,9.762,9.762,0,0,0-11.121,6.924c-1.469,5.707,2.14,8.687,5.413,12.715,1.427,1.763,2.9,3.567,4.322,5.33,2.9-2.476,4.952-5.917,6.672-9.274C449,186.642,450.515,182.991,448.459,179.3Zm-8.477,8.393a4.155,4.155,0,1,1,4.155-4.155A4.137,4.137,0,0,1,439.982,187.692Z" transform="translate(-430.496 -174.236)" fill="#f75c6c"/>
        <g id="Group_637" data-name="Group 637" transform="translate(1.135 1.16)">
          <ellipse id="Ellipse_31" data-name="Ellipse 31" cx="8.351" cy="8.141" rx="8.351" ry="8.141" fill="#ff4b55"/>
          <g id="Group_636" data-name="Group 636" transform="translate(1.354 2.277)">
            <path id="Path_1527" data-name="Path 1527" d="M438.6,185.426l.42,1.217h1.259a.155.155,0,0,1,.084.294l-1.007.755.378,1.217a.175.175,0,0,1-.252.21l-1.049-.755-1.049.755a.175.175,0,0,1-.252-.21l.378-1.217-1.007-.755a.159.159,0,0,1,.084-.294h1.259l.42-1.217C438.345,185.258,438.555,185.258,438.6,185.426Z" transform="translate(-436.426 -184.093)" fill="#ffe15a"/>
            <path id="Path_1528" data-name="Path 1528" d="M451.744,186.126l.294.378.462-.126c.042,0,.126.042.084.084l-.294.378.294.378c.042.042,0,.126-.084.084l-.462-.168-.294.378c-.042.042-.126.042-.126-.042v-.5l-.462-.168c-.042,0-.042-.084,0-.126l.462-.168V186C451.618,186.126,451.7,186.084,451.744,186.126Z" transform="translate(-444.956 -184.5)" fill="#ffe15a"/>
            <path id="Path_1529" data-name="Path 1529" d="M448.333,182.876l.5.042.21-.462c.042-.042.126-.042.126,0l.084.462.5.042a.08.08,0,0,1,.042.126l-.42.252.084.462c0,.042-.042.084-.126.042l-.378-.336-.42.252c-.042.042-.126-.042-.084-.084l.21-.462-.336-.336C448.249,182.96,448.291,182.876,448.333,182.876Z" transform="translate(-443.308 -182.425)" fill="#ffe15a"/>
            <path id="Path_1530" data-name="Path 1530" d="M449.116,194.626l-.294.378-.462-.126c-.042,0-.126.042-.084.084l.294.378-.294.378c-.042.042,0,.126.084.084l.462-.168.294.378c.042.042.126.042.126-.042v-.5l.462-.168c.042,0,.042-.084,0-.126l-.462-.168v-.5C449.2,194.584,449.116,194.584,449.116,194.626Z" transform="translate(-443.294 -189.433)" fill="#ffe15a"/>
            <path id="Path_1531" data-name="Path 1531" d="M452.345,191.576l-.5.042-.21-.462c-.042-.042-.126-.042-.126,0l-.084.462-.5.042a.08.08,0,0,0-.042.126l.42.252-.084.462c0,.042.042.084.126.042l.378-.336.42.252c.042.042.126-.042.084-.084l-.21-.462.336-.336C452.471,191.618,452.429,191.534,452.345,191.576Z" transform="translate(-444.802 -187.474)" fill="#ffe15a"/>
          </g>
          <ellipse id="Ellipse_32" data-name="Ellipse 32" cx="8.351" cy="8.141" rx="8.351" ry="8.141" fill="none"/>
        </g>
      </g>
      <g id="Group_640" data-name="Group 640" transform="translate(38.303 -115.758)">
        <path id="Path_1532" data-name="Path 1532" d="M429.1,46.315a9.234,9.234,0,0,0-5.917-4.448,8.909,8.909,0,0,0-10.113,6.295c-1.343,5.2,1.93,7.889,4.91,11.54,1.3,1.595,2.644,3.231,3.945,4.826a27.619,27.619,0,0,0,6.085-8.435C429.605,52.988,430.99,49.714,429.1,46.315Zm-7.722,7.638a3.777,3.777,0,1,1,3.777-3.777A3.761,3.761,0,0,1,421.38,53.953Z" transform="translate(-412.761 -41.699)" fill="#f75c6c"/>
        <g id="Group_639" data-name="Group 639" transform="translate(1.108 0.966)">
          <path id="Path_1533" data-name="Path 1533" d="M440.35,48.868H433.3V44A7.532,7.532,0,0,1,440.35,48.868Z" transform="translate(-425.788 -44)" fill="#73af00"/>
          <path id="Path_1534" data-name="Path 1534" d="M440.35,68.3a7.5,7.5,0,0,1-7.05,4.826V68.3Z" transform="translate(-425.788 -58.103)" fill="#464655"/>
          <path id="Path_1535" data-name="Path 1535" d="M440.912,58.286a7.27,7.27,0,0,1-.5,2.686H433.4V55.6h7.008A7.112,7.112,0,0,1,440.912,58.286Z" transform="translate(-425.846 -50.732)" fill="#f5f5f5"/>
          <path id="Path_1536" data-name="Path 1536" d="M422.912,44V59.023a7.512,7.512,0,0,1,0-15.023Z" transform="translate(-415.4 -44)" fill="#ff4b55"/>
          <path id="Path_1537" data-name="Path 1537" d="M430.465,51.612a7.269,7.269,0,0,1-.5,2.686,7.533,7.533,0,1,1,0-5.33A6.746,6.746,0,0,1,430.465,51.612Z" transform="translate(-415.4 -44.058)" fill="none"/>
        </g>
      </g>
    </g>
  </g>
</svg>
