<svg xmlns="http://www.w3.org/2000/svg" width="1310.04" height="801.959" viewBox="0 0 1310.04 801.959">
  <g id="Group_28" data-name="Group 28" transform="translate(-80.587 -170)">
    <g id="export_russia_new" transform="translate(33.877 170)">
      <path id="Path_1413" data-name="Path 1413" d="M1355.516,325.58s45.908-151.057-147.681-188.02S795.339,70.219,770.528,20.935s-311.4,7.257-382.452,147.175S209.846,294.694,116.511,367.775c-133.5,104.474-22.785,164.725,93.5,333,102.955,149.2,227.851,91.141,277.475,101.1s166.922-33.081,322.54-6.75c144.981,24.642,320.342,9.789,368.444-98.735,29.03-65.317,49.115-64.98,102.617-99.242,44.558-28.526,73.757-65.488,83.883-104.812C1372.224,462.967,1311.127,369.463,1355.516,325.58Z" transform="translate(-8.83 -3.427)" fill="#f2f5fa"/>
      <path id="Path_1414" data-name="Path 1414" d="M906.1,228.089s-291.651-268.7-639.5,20.423" transform="translate(94.417 72.967)" fill="none" stroke="#000" stroke-linecap="round" stroke-linejoin="round" stroke-miterlimit="10" stroke-width="2.131" stroke-dasharray="21.31"/>
      <ellipse id="Ellipse_80" data-name="Ellipse 80" cx="240.847" cy="31.73" rx="240.847" ry="31.73" transform="translate(50 675.914)" fill="#bec1c1" opacity="0.47"/>
      <g id="Group_396" data-name="Group 396" transform="translate(129.284 180.574)">
        <path id="XMLID_13_" d="M751.037,175.541c57.385-22.448,87.933-29.2,102.786-31.055l-10.8-33.921s-20.759-3.882-103.292,28.354S641.5,165.076,641.5,165.076l12.658,39.494C667.83,203.22,696.185,196.975,751.037,175.541Z" transform="translate(-634.074 -110.418)" fill="#f71425"/>
        <path id="XMLID_20_" d="M660.039,225.691l1.687,5.4c14.009-1.519,42.195-7.6,97.048-29.2,57.385-22.448,87.933-29.2,102.786-31.055l-2.869-9.114L851.265,138.6l-2.531-8.1c-14.853,1.856-45.4,8.607-102.786,31.055-54.685,21.435-83.039,27.683-97.048,29.2l3.713,11.646Z" transform="translate(-628.984 -96.602)" fill="#4616f4"/>
        <path id="XMLID_23_" d="M753.548,185.555c-54.685,21.435-83.039,27.683-97.048,29.2l11.646,36.456s20.76,3.882,103.292-28.355,98.229-26.161,98.229-26.161l-13.5-42.195C841.481,156.357,810.933,162.937,753.548,185.555Z" transform="translate(-623.757 -80.095)" fill="#ffbc00"/>
        <path id="Path_1416" data-name="Path 1416" d="M744.781,464.443l-7.426,2.7L637.1,138.7l7.426-2.7Z" transform="translate(-637.1 -92.82)" fill="#262626"/>
      </g>
      <g id="around-the-world" transform="translate(842.696 296.231)">
        <path id="Path_46" data-name="Path 46" d="M380.638,210.348A162.032,162.032,0,1,1,218.606,48.316,162.032,162.032,0,0,1,380.638,210.348Zm0,0" transform="translate(-11.114 -9.492)" fill="#6398ff"/>
        <path id="Path_47" data-name="Path 47" d="M259.116,344.076a162.033,162.033,0,0,1-122.577-268,162.039,162.039,0,1,0,204.645,245.7A161.256,161.256,0,0,1,259.116,344.076Zm0,0" transform="translate(-11.114 -14.946)" fill="#2157c2"/>
        <path id="Path_48" data-name="Path 48" d="M223.908,372.38a161.4,161.4,0,0,0,107.677-40.968l-58.391-77.855a6.75,6.75,0,0,0-5.4-2.7H217.156L210.4,210.348s-6.752-20.255-13.5-20.255c-4.887,0-9.771-14.134-12.1-21.953a6.738,6.738,0,0,1,3-7.7l29.348-17.609s60.764-20.255,67.516-27.006c3.355-3.355,16.72-21.727,29.313-40.183A162.088,162.088,0,0,0,83.559,129.332h32.327l27.006,20.255,33.758,60.761,6.466,58.194a6.761,6.761,0,0,1-1.218,4.671l-32.254,45.158-39.3,7.533A161.492,161.492,0,0,0,223.908,372.38Zm0,0" transform="translate(-16.416 -9.492)" fill="#74d8f3"/>
        <path id="Path_49" data-name="Path 49" d="M83.559,134.781h25.836a161.753,161.753,0,0,1,32.459-58.73A162.832,162.832,0,0,0,83.559,134.781Zm0,0" transform="translate(-16.416 -14.941)" fill="#3db5d4"/>
        <path id="Path_50" data-name="Path 50" d="M168.059,363.719l-11.868,16.617-39.3,7.533a161.992,161.992,0,0,0,221.246,5.509L334,387.869a162.238,162.238,0,0,1-165.943-24.15Zm0,0" transform="translate(-22.963 -71.457)" fill="#3db5d4"/>
        <path id="Path_51" data-name="Path 51" d="M371.171,134.864l-5.81,34.866a6.751,6.751,0,0,1-6.661,5.64H329.447a6.752,6.752,0,0,0-6.62,5.427l-5.035,25.164a6.75,6.75,0,0,0,1.434,5.647l30.49,36.589a6.728,6.728,0,0,0,2.91,2.034c5.025,1.789,19.737,7.348,25.3,12.907,3.468,3.468,21.2,17.631,37.612,30.585a162.135,162.135,0,0,0-28.347-182.886Zm0,0" transform="translate(-62.408 -21.775)" fill="#74d8f3"/>
        <g id="Group_27" data-name="Group 27" transform="translate(0)">
          <path id="Path_52" data-name="Path 52" d="M300.469,494.344a6.33,6.33,0,0,1-1.3-12.524c2.119-.449,4.259-.938,6.366-1.46a6.33,6.33,0,1,1,3.042,12.288c-2.244.556-4.529,1.08-6.789,1.557A6.306,6.306,0,0,1,300.469,494.344Zm0,0" transform="translate(-57.788 -94.337)" fill="#b6abb6"/>
          <path id="Path_53" data-name="Path 53" d="M202,404.239a6.329,6.329,0,0,1-.028-12.659c4.419,0,8.858-.151,13.224-.452a6.33,6.33,0,0,1,.866,12.631C211.412,404.079,206.682,404.239,202,404.239Zm-27.261-1.883a5.972,5.972,0,0,1-.879-.063c-4.636-.643-9.31-1.463-13.892-2.433a6.33,6.33,0,0,1,2.621-12.386c4.294.91,8.673,1.676,13.017,2.282a6.33,6.33,0,0,1-.866,12.6Zm-39.734-9.878a6.288,6.288,0,0,1-2.163-.383c-4.407-1.6-8.811-3.387-13.1-5.3a6.328,6.328,0,1,1,5.16-11.557c4.011,1.789,8.139,3.459,12.263,4.959a6.331,6.331,0,0,1-2.166,12.279ZM98.217,374.5a6.314,6.314,0,0,1-3.352-.967c-3.961-2.48-7.891-5.138-11.689-7.9A6.329,6.329,0,0,1,90.624,355.4c3.559,2.59,7.248,5.082,10.961,7.408a6.332,6.332,0,0,1-3.368,11.7ZM65.987,349.278a6.3,6.3,0,0,1-4.394-1.777c-3.365-3.252-6.661-6.664-9.8-10.142a6.33,6.33,0,0,1,9.4-8.475c2.938,3.264,6.03,6.463,9.187,9.514a6.328,6.328,0,0,1-4.4,10.879ZM39.681,317.953a6.32,6.32,0,0,1-5.248-2.787c-2.621-3.873-5.135-7.891-7.48-11.943a6.329,6.329,0,1,1,10.954-6.344c2.2,3.8,4.558,7.568,7.012,11.2a6.329,6.329,0,0,1-5.239,9.875ZM20.449,281.869a6.332,6.332,0,0,1-5.87-3.958c-1.758-4.338-3.384-8.8-4.831-13.252a6.329,6.329,0,1,1,12.037-3.914c1.356,4.171,2.878,8.352,4.526,12.417a6.335,6.335,0,0,1-5.863,8.707ZM9.165,242.536A6.331,6.331,0,0,1,2.938,237.3c-.807-4.608-1.466-9.307-1.949-13.968a6.329,6.329,0,1,1,12.59-1.309c.455,4.363,1.07,8.77,1.827,13.089a6.338,6.338,0,0,1-6.24,7.423ZM6.334,201.719c-.072,0-.144,0-.217,0A6.33,6.33,0,0,1,0,195.178c.16-4.686.483-9.416.964-14.065a6.329,6.329,0,0,1,12.59,1.3c-.449,4.357-.753,8.795-.9,13.189A6.329,6.329,0,0,1,6.334,201.719ZM396.69,187.6a6.33,6.33,0,0,1-6.287-5.662c-.461-4.369-1.083-8.773-1.849-13.089a6.329,6.329,0,1,1,12.464-2.207c.816,4.6,1.478,9.3,1.974,13.961a6.331,6.331,0,0,1-5.628,6.962C397.136,187.585,396.913,187.6,396.69,187.6ZM11.962,161.2a6.407,6.407,0,0,1-1.529-.188,6.328,6.328,0,0,1-4.62-7.665c1.124-4.548,2.429-9.112,3.87-13.563a6.33,6.33,0,0,1,12.044,3.9c-1.353,4.171-2.574,8.447-3.628,12.706A6.329,6.329,0,0,1,11.962,161.2Zm376.187-13.613a6.329,6.329,0,0,1-6.014-4.366c-1.359-4.162-2.888-8.33-4.539-12.392a6.33,6.33,0,0,1,11.73-4.765c1.761,4.335,3.39,8.786,4.843,13.227a6.333,6.333,0,0,1-6.02,8.3ZM25.927,122.728a6.333,6.333,0,0,1-5.684-9.106c2.053-4.209,4.284-8.4,6.629-12.461a6.329,6.329,0,1,1,10.961,6.331c-2.2,3.8-4.288,7.734-6.212,11.68A6.334,6.334,0,0,1,25.927,122.728Zm345.521-12.449a6.33,6.33,0,0,1-5.48-3.151c-2.2-3.795-4.567-7.558-7.028-11.19a6.329,6.329,0,0,1,10.477-7.1c2.624,3.873,5.148,7.888,7.5,11.934a6.331,6.331,0,0,1-5.468,9.511ZM47.625,88.012a6.329,6.329,0,0,1-4.984-10.226c2.881-3.688,5.932-7.323,9.065-10.8a6.329,6.329,0,1,1,9.41,8.465c-2.938,3.264-5.8,6.673-8.5,10.132A6.315,6.315,0,0,1,47.625,88.012Zm299.7-10.776a6.308,6.308,0,0,1-4.7-2.087c-2.941-3.255-6.039-6.453-9.2-9.5a6.329,6.329,0,0,1,8.782-9.115c3.371,3.246,6.673,6.654,9.812,10.129a6.329,6.329,0,0,1-4.7,10.572ZM76.041,58.558a6.328,6.328,0,0,1-4.077-11.171c3.585-3.016,7.32-5.945,11.1-8.7a6.331,6.331,0,0,1,7.458,10.233c-3.541,2.58-7.044,5.323-10.405,8.152A6.3,6.3,0,0,1,76.041,58.558Zm240.838-8.669a6.317,6.317,0,0,1-3.713-1.208c-3.556-2.583-7.248-5.069-10.97-7.392a6.33,6.33,0,1,1,6.7-10.738c3.971,2.477,7.907,5.129,11.7,7.885a6.331,6.331,0,0,1-3.719,11.454ZM109.912,35.632a6.331,6.331,0,0,1-2.985-11.915c4.131-2.207,8.387-4.291,12.656-6.2a6.33,6.33,0,0,1,5.166,11.557c-4,1.786-7.988,3.741-11.858,5.807A6.3,6.3,0,0,1,109.912,35.632ZM281.42,29.439a6.27,6.27,0,0,1-2.568-.549c-4.011-1.78-8.139-3.443-12.273-4.944a6.328,6.328,0,1,1,4.313-11.9c4.413,1.6,8.82,3.374,13.1,5.276a6.331,6.331,0,0,1-2.571,12.116ZM147.81,20.258a6.33,6.33,0,0,1-1.745-12.414c4.5-1.293,9.1-2.445,13.682-3.418a6.33,6.33,0,1,1,2.633,12.383c-4.291.913-8.6,1.99-12.819,3.2A6.278,6.278,0,0,1,147.81,20.258Zm94.651-3.415a6.459,6.459,0,0,1-1.309-.135c-4.291-.9-8.673-1.664-13.02-2.263a6.329,6.329,0,1,1,1.729-12.54c4.639.64,9.316,1.453,13.892,2.414a6.33,6.33,0,0,1-1.293,12.524Zm-54.364-3.7A6.329,6.329,0,0,1,187.66.5c4.661-.326,9.4-.5,14.087-.5h.006a6.329,6.329,0,0,1,.009,12.659c-4.4.006-8.845.163-13.218.471C188.395,13.142,188.244,13.145,188.1,13.145Zm0,0" transform="translate(0.001)" fill="#b6abb6"/>
          <path id="Path_54" data-name="Path 54" d="M492.943,271.475c-.144,0-.289-.006-.436-.016a6.329,6.329,0,0,1-5.885-6.745c.148-2.163.261-4.36.333-6.526a6.33,6.33,0,0,1,12.653.43c-.078,2.31-.2,4.652-.355,6.959A6.332,6.332,0,0,1,492.943,271.475Zm0,0" transform="translate(-95.6 -49.523)" fill="#b6abb6"/>
        </g>
        <path id="Path_55" data-name="Path 55" d="M314.313,315.025l96.672,17.9a3.375,3.375,0,0,1,1.77,5.706L370.985,380.4a3.374,3.374,0,0,1-4.514.235l-63.253-51.32c-.091-.075-.179-.154-.261-.235a3.373,3.373,0,0,1,0-4.774l8.356-8.356A3.371,3.371,0,0,1,314.313,315.025Zm0,0" transform="translate(-59.325 -61.879)" fill="#ffab6f"/>
        <path id="Path_56" data-name="Path 56" d="M462.483,373.045a3.381,3.381,0,0,1,2.32,2.608l17.9,96.672a3.364,3.364,0,0,1-.932,3l-8.352,8.356a3.372,3.372,0,0,1-4.774,0c-.082-.082-.16-.169-.235-.26l-51.32-63.253a3.374,3.374,0,0,1,.235-4.514L459.1,373.883A3.373,3.373,0,0,1,462.483,373.045Zm0,0" transform="translate(-81.794 -73.26)" fill="#e87844"/>
        <path id="Path_57" data-name="Path 57" d="M315.2,420.438l52.516,4.774a3.373,3.373,0,0,1,2.081,5.747L341.147,459.6a3.375,3.375,0,0,1-4.35.361l-33.416-23.871a3.116,3.116,0,0,1-.424-.358,3.371,3.371,0,0,1,0-4.774l9.548-9.548A3.376,3.376,0,0,1,315.2,420.438Zm0,0" transform="translate(-59.325 -82.598)" fill="#ffab6f"/>
        <path id="Path_58" data-name="Path 58" d="M376.726,426.564a3.373,3.373,0,0,1,2.21,2.869l4.774,52.516a3.376,3.376,0,0,1-.973,2.69l-9.548,9.548a3.371,3.371,0,0,1-4.774,0,3.132,3.132,0,0,1-.361-.424l-23.868-33.416a3.379,3.379,0,0,1,.358-4.35l28.645-28.645A3.378,3.378,0,0,1,376.726,426.564Zm0,0" transform="translate(-67.496 -83.764)" fill="#e87844"/>
        <path id="Path_59" data-name="Path 59" d="M475.2,305.076c7.91,7.91-1.638,30.283-9.548,38.193l-90.706,90.7a20.253,20.253,0,0,1-28.642-28.642l90.7-90.706C444.923,306.714,467.293,297.166,475.2,305.076Zm0,0" transform="translate(-66.871 -59.353)" fill="#f0eef0"/>
        <path id="Path_60" data-name="Path 60" d="M365.887,424.451l90.7-90.7c6.237-6.237,13.481-21.454,12.4-31.495a10.864,10.864,0,0,1,6.7,2.85c7.91,7.91-1.638,30.283-9.548,38.193L375.433,434a20.256,20.256,0,0,1-32.6-5.59A20.26,20.26,0,0,0,365.887,424.451Zm0,0" transform="translate(-67.354 -59.382)" fill="#d3ccd3"/>
        <path id="Path_61" data-name="Path 61" d="M346.107,465.476a6.752,6.752,0,0,1-4.774-11.526L365.2,430.08a6.752,6.752,0,1,1,9.548,9.548L350.878,463.5A6.721,6.721,0,0,1,346.107,465.476Zm0,0" transform="translate(-66.67 -84.107)" fill="#fcd25e"/>
      </g>
    </g>
    <g id="file" transform="translate(209.95 522.768)">
      <g id="Group_17" data-name="Group 17" transform="translate(0 0)">
        <path id="Path_1" data-name="Path 1" d="M291.4,156.6H51.993a16.665,16.665,0,0,0-16.665,16.665V282.256H308.066V173.269A16.665,16.665,0,0,0,291.4,156.6Z" transform="translate(-35.328 -19.968)" fill="#ff9a00"/>
        <g id="Group_3" data-name="Group 3" transform="translate(20.886)">
          <g id="Group_2" data-name="Group 2" transform="translate(0 39.859)">
            <path id="Path_2" data-name="Path 2" d="M90.388,0A21.262,21.262,0,0,0,69.126,21.262V295.14A21.262,21.262,0,0,0,90.388,316.4H278.83a21.262,21.262,0,0,0,21.262-21.262V65.563a16.109,16.109,0,0,0-4.718-11.39L245.918,4.717A16.11,16.11,0,0,0,234.528,0Z" transform="translate(-69.126 0)" fill="#f5f5f5"/>
            <g id="Group_1" data-name="Group 1" transform="translate(184.569 21.392)">
              <path id="Path_3" data-name="Path 3" d="M409.473,67.4,376.691,34.616l-.117,54.99a6.241,6.241,0,0,0,6.241,6.255,6.241,6.241,0,0,1,6.241,6.241V308.365a21.262,21.262,0,0,1-21.262,21.262h25.134a21.262,21.262,0,0,0,21.262-21.262V78.787A16.1,16.1,0,0,0,409.473,67.4Z" transform="translate(-367.794 -34.616)" fill="#eaeaea"/>
            </g>
            <path id="Path_4" data-name="Path 4" d="M401.749,55.071,352.293,5.615a16.106,16.106,0,0,0-4.718-3.267V38.527a21.262,21.262,0,0,0,21.262,21.262h36.179A16.074,16.074,0,0,0,401.749,55.071Z" transform="translate(-175.501 -0.897)" fill="#a8d0d5"/>
          </g>
          <g id="documents" transform="translate(22.372)">
            <path id="Path_10" data-name="Path 10" d="M252.641,301.963H93.672A12.359,12.359,0,0,1,81.313,289.6V61.358H60.828A13.542,13.542,0,0,0,47.286,74.9V317.031a13.542,13.542,0,0,0,13.542,13.542H239.1a13.542,13.542,0,0,0,13.542-13.542V301.963Z" transform="translate(-47.286 -23.44)" fill="#8ac9fe"/>
            <path id="Path_11" data-name="Path 11" d="M94.708,61.358V289.6a12.359,12.359,0,0,0,12.359,12.359H266.036v15.068a13.473,13.473,0,0,1-2.062,7.179H95.891a13.542,13.542,0,0,1-13.542-13.542V300.78l6.18-232.243Z" transform="translate(-60.681 -23.44)" fill="#60b7ff"/>
            <path id="Path_12" data-name="Path 12" d="M287.7,270.25H128.735a12.359,12.359,0,0,1-12.359-12.359V35.062H95.891A13.542,13.542,0,0,0,82.349,48.6v242.13a13.542,13.542,0,0,0,13.542,13.542H274.161A13.542,13.542,0,0,0,287.7,290.734V270.25Z" transform="translate(-60.681 -13.395)" fill="#fed402"/>
            <path id="Path_13" data-name="Path 13" d="M129.769,35.062V257.891a12.359,12.359,0,0,0,12.359,12.359H301.1v20.485a13.565,13.565,0,0,1-.383,3.2H130.952A13.542,13.542,0,0,1,117.41,280.39V269.067l6.18-17.1V38.26Z" transform="translate(-74.075 -13.395)" fill="#fac600"/>
            <path id="Path_14" data-name="Path 14" d="M307.987,269.215H130.952a13.542,13.542,0,0,1-13.542-13.542V13.542A13.542,13.542,0,0,1,130.952,0H267.9l53.624,54.86V255.673a13.541,13.541,0,0,1-13.542,13.542Z" transform="translate(-74.075 0)" fill="#efedef"/>
            <path id="Path_15" data-name="Path 15" d="M411.343,58.774V278.126A13.542,13.542,0,0,1,397.8,291.668H416.34a13.542,13.542,0,0,0,13.542-13.542V77.313Z" transform="translate(-181.192 -22.453)" fill="#d7d0d6"/>
            <path id="Path_16" data-name="Path 16" d="M415.8,54.86H374.48a13.54,13.54,0,0,1-13.54-13.54V0Z" transform="translate(-167.11)" fill="#b5adb6"/>
            <g id="Group_18" data-name="Group 18" transform="translate(79.532 95.621)">
              <path id="Path_17" data-name="Path 17" d="M304.31,164H180.619a4.635,4.635,0,1,1,0-9.27H304.31a4.635,4.635,0,1,1,0,9.27Z" transform="translate(-175.984 -154.733)" fill="#b5adb6"/>
            </g>
            <g id="Group_19" data-name="Group 19" transform="translate(79.532 129.973)">
              <path id="Path_18" data-name="Path 18" d="M304.31,219.591H180.619a4.635,4.635,0,1,1,0-9.27H304.31a4.635,4.635,0,1,1,0,9.27Z" transform="translate(-175.984 -210.321)" fill="#b5adb6"/>
            </g>
            <g id="Group_20" data-name="Group 20" transform="translate(79.532 164.324)">
              <path id="Path_19" data-name="Path 19" d="M304.31,275.179H180.619a4.635,4.635,0,1,1,0-9.27H304.31a4.635,4.635,0,1,1,0,9.27Z" transform="translate(-175.984 -265.909)" fill="#b5adb6"/>
            </g>
          </g>
        </g>
        <g id="Group_16" data-name="Group 16" transform="translate(0 177.878)">
          <g id="Group_5" data-name="Group 5" transform="translate(0 0)">
            <g id="Group_4" data-name="Group 4">
              <path id="Path_5" data-name="Path 5" d="M130.883,243.218l-4.4-9.947a16.665,16.665,0,0,0-15.243-9.93H51.993a16.665,16.665,0,0,0-16.665,16.665V385.06a16.665,16.665,0,0,0,16.665,16.665H291.4a16.665,16.665,0,0,0,16.665-16.665V269.814A16.665,16.665,0,0,0,291.4,253.149H146.126a16.665,16.665,0,0,1-15.244-9.93Z" transform="translate(-35.328 -223.342)" fill="#ffb541"/>
            </g>
          </g>
          <g id="Group_7" data-name="Group 7" transform="translate(50.561 0)">
            <g id="Group_6" data-name="Group 6">
              <path id="Path_6" data-name="Path 6" d="M132.388,233.272l4.4,9.947a16.665,16.665,0,0,0,15.243,9.93h25.355a16.665,16.665,0,0,1-15.242-9.93l-4.4-9.947a16.665,16.665,0,0,0-15.243-9.93H117.146A16.665,16.665,0,0,1,132.388,233.272Z" transform="translate(-117.146 -223.342)" fill="#ffa812"/>
              <path id="Path_7" data-name="Path 7" d="M434.03,271.575H408.675a16.664,16.664,0,0,1,16.663,16.665V403.487a16.665,16.665,0,0,1-16.665,16.665h25.356a16.665,16.665,0,0,0,16.665-16.665V288.239A16.663,16.663,0,0,0,434.03,271.575Z" transform="translate(-228.517 -241.768)" fill="#ffa812"/>
            </g>
          </g>
        </g>
      </g>
    </g>
    <g id="Group_29" data-name="Group 29">
      <circle id="Ellipse_81" data-name="Ellipse 81" cx="43.886" cy="43.886" r="43.886" transform="translate(123.666 652.944)" fill="#fff"/>
      <g id="Group_410" data-name="Group 410" transform="translate(82.089 612.401)">
        <g id="Group_409" data-name="Group 409" transform="translate(0)">
          <path id="Path_1542" data-name="Path 1542" d="M607.841,234.3a85.633,85.633,0,0,1,75.372,126.187L612.582,488.133a5.327,5.327,0,0,1-4.62,2.8,5.184,5.184,0,0,1-4.62-2.8L532.712,360.365a85.983,85.983,0,0,1-10.212-40.6C522.259,272.716,560.673,234.3,607.841,234.3Zm0,128.375a42.792,42.792,0,1,0-42.792-42.792,42.792,42.792,0,0,0,42.792,42.792Z" transform="translate(-522.499 -234.3)" fill="#5dba2f"/>
        </g>
      </g>
    </g>
  </g>
</svg>
