<?xml version="1.0" encoding="utf-8"?>
<!-- Generator: Adobe Illustrator 18.1.0, SVG Export Plug-In . SVG Version: 6.00 Build 0)  -->
<!DOCTYPE svg PUBLIC "-//W3C//DTD SVG 1.1//EN" "http://www.w3.org/Graphics/SVG/1.1/DTD/svg11.dtd">
<svg version="1.1" id="Capa_1" xmlns="http://www.w3.org/2000/svg" xmlns:xlink="http://www.w3.org/1999/xlink" x="0px" y="0px"
	 width="708.8px" height="146.1px" viewBox="-39.6 207.6 708.8 146.1" enable-background="new -39.6 207.6 708.8 146.1"
	 xml:space="preserve">
<g>
	<path fill="#00A1CB" d="M51.7,340.4c0,0-15.3,13.6-38.7,13c-31.8-0.8-52.6-20.5-52.6-52.1c0-30.6,20.9-54.1,56.8-54.2
		c18.9-0.1,34.7,16.3,34.7,16.3S34.3,280,34.2,280.2c0.3-0.3-7.9-5.8-8.4-6.2c-9.4-5.6-21.4-5.7-30,1.7c-7.1,6.1-9,15.5-8.9,24.6
		c0,20.9,12.5,31.7,30.1,31.7c8.8,0,17.5-8.6,17.5-8.6L51.7,340.4z"/>
	<path fill="#00A1CB" d="M150.5,326.8c0,9.2,0.4,18.2,1.7,24.5h-24.1l-2-11.3h-0.7c-6.3,8-17.4,13.6-31.3,13.6
		c-21.3,0-33.2-14.9-33.2-30.4c0-25.5,23.7-38.7,62.8-38.5V283c0-19-21.7-19.6-34.9-13.4c-0.9,0.4-11.4,6.8-11.2,7.1l-11.7-12.8
		c0,0,14.6-17.7,40.8-16.9c37.3,1.2,43.7,20.7,43.7,43.1v36.7H150.5z M124.5,305.4c-18.9-0.2-36.9-0.3-36.9,15.2
		c0,10.1,6.7,14.7,15.2,14.7c10.9,0,18.5-6.7,21.1-14c0.7-1.9,0.7-3.8,0.7-5.7v-10.2H124.5z"/>
	<path fill="#00A1CB" d="M168.9,282.2c0-13.8-0.2-23.9-0.8-32.9h22.2l1,19.3h0.6c5-14.2,24.8-21.6,35.9-21.6c2.5,0,4,0.2,6.1,0.6
		v24.1c-2.3-0.4-4.6-0.6-7.7-0.6c-12.1,0-28.5,7.8-30.8,19.5c-0.4,2.3-0.6,5-0.6,7.7v53H169L168.9,282.2L168.9,282.2z"/>
	<path fill="#00A1CB" d="M292.9,221.3v28.1h26.5v19.3h-26.5v45c0,20.5,7.3,18.8,17.1,18.8c4.6,0,7.1-0.2,10.1-1l0.4,19.5
		c-3.8,1.5-14.6,2.7-22.5,2.7c-9.6,0-17.4-3.1-22.2-8.4c-5.7-5.9-8.2-15.3-8.2-28.7v-48h-20.3v-19.3h20.3v-28.4L292.9,221.3z"/>
	<path fill="#00A1CB" d="M355.3,307.5c-0.6,0,2.8,11.8,3.4,12.8c2,3.8,4.9,7,8.5,9.4c12,8.2,34.2,5.8,41.4-8.3l18.9,11.7
		c-11.3,15.5-25.6,20.2-41.6,20.2c-36.2,0-57.5-20.3-57.5-51.5c0-28.3,18.8-54.9,54.5-54.9c36.2,0,48.1,27.2,48.1,49.6
		c0,4.8-0.5,8.6-0.9,10.9C430,307.5,355.3,307.5,355.3,307.5z M404.3,289.5c0.2-9.4-4.4-24.9-23.1-24.9c-17.4,0-24.7,14.5-25.9,24.9
		H404.3z"/>
	<path fill="#00A1CB" d="M445.6,282.2c0-13.8-0.2-23.9-0.8-32.9H467l1,19.3h0.6c5-14.2,24.8-21.6,35.9-21.6c2.5,0,4,0.2,6.1,0.6
		v24.1c-2.3-0.4-4.6-0.6-7.8-0.6c-12.1,0-28.5,7.8-30.8,19.5c-0.4,2.3-0.6,5-0.6,7.7v53h-25.8L445.6,282.2L445.6,282.2z"/>
	<path fill="#00A1CB" d="M558.6,207.6l-17.2,49H522l12-49H558.6z"/>
	<path fill="#00A1CB" d="M561,323.5c-1.6,1.5,10.8,8.8,12.1,9.4c8.2,3.4,26,3,26-9.4c0-6.9-4.7-10.3-18.9-14.9
		c-22.5-6.7-31.7-17.6-31.7-29.7c0-18,16.8-31.8,43.5-31.8c20.3-0.1,32.7,15.8,32.7,15.8l-15.7,14c0.9-0.8-9.6-6.7-10.4-7.1
		c-6.6-3.3-22.2-4.7-22.2,6.3c0,6.5,5.4,9.4,20.1,14.2c21.1,6.5,30.5,15.9,30.8,31c0,18.6-16.3,32.1-46.9,32
		c-22.4-0.1-35.1-15-35.1-15S560.9,323.6,561,323.5z"/>
	<g>
		<g>
			<path fill="#00A1CB" d="M653.1,281.8c-8.9,0-16.1-7.2-16.1-16.1c0-8.9,7.2-16.1,16.1-16.1c8.9,0,16.1,7.2,16.1,16.1
				C669.2,274.5,662,281.8,653.1,281.8z M653.1,252.5c-7.3,0-13.2,5.9-13.2,13.2s5.9,13.2,13.2,13.2s13.2-5.9,13.2-13.2
				C666.3,258.4,660.3,252.5,653.1,252.5z"/>
		</g>
		<g>
			<path fill="#00A1CB" d="M647.2,257.5c1.2-0.2,3-0.4,4.8-0.4c2.5,0,4.2,0.4,5.3,1.4c1,0.8,1.5,2,1.5,3.5c0,2.2-1.5,3.8-3.2,4.3
				v0.1c1.3,0.5,2,1.7,2.4,3.3c0.6,2.2,1,4.2,1.4,4.8h-3.2c-0.3-0.5-0.7-1.9-1.2-4.1c-0.5-2.3-1.3-3-3.1-3h-1.6v7.1h-3.1
				L647.2,257.5L647.2,257.5z M650.4,265.1h1.9c2.1,0,3.4-1.1,3.4-2.9c0-1.9-1.3-2.8-3.4-2.8c-1,0-1.6,0.1-2,0.2L650.4,265.1
				L650.4,265.1z"/>
		</g>
	</g>
</g>
</svg>
