<?xml version="1.0" encoding="utf-8"?>
<!-- Generator: Adobe Illustrator 19.2.1, SVG Export Plug-In . SVG Version: 6.00 Build 0)  -->
<svg version="1.1" id="Layer_1" xmlns="http://www.w3.org/2000/svg" xmlns:xlink="http://www.w3.org/1999/xlink" x="0px" y="0px"
	 viewBox="0 0 349.3 143" style="enable-background:new 0 0 349.3 143;" xml:space="preserve">
<style type="text/css">
	.st0{fill:none;}
</style>
<title>Ralph_Lauren</title>
<path d="M105,68.1c-0.6-1-1.3-2-2.2-2.8c-0.9-0.6-1.9-1.2-2.9-1.5c-0.9-0.3-1.9-0.6-2.9-0.6H84v1.5h2.3v28H84v1.5h9.6v-1.5h-2.3
	V79.6H97c1,0,2-0.1,2.9-0.6c1-0.3,2-0.9,2.9-1.5c0.9-0.7,1.6-1.7,2.2-2.8C106,72.6,106,70.2,105,68.1z M99.4,75.7
	c-0.3,0.6-0.7,1-1.2,1.3c-0.6,0.3-1.2,0.6-1.9,0.7c-0.9,0.1-1.7,0.3-2.6,0.3h-2.6V64.8h2.6c0.9,0,1.7,0.1,2.6,0.3
	c0.7,0.1,1.3,0.4,1.9,0.7c0.6,0.3,0.9,0.7,1.2,1.3C100.5,69.9,100.5,72.9,99.4,75.7L99.4,75.7z"/>
<path d="M91.2,64.8L91.2,64.8L91.2,64.8z"/>
<path d="M62.2,63.3h9.6v1.5h-2.3v28h5.4c1.3,0,2.5-0.4,3.3-1.3c0.9-0.9,1.5-1.9,1.7-3.1c0.4-1.2,0.6-2.5,0.7-3.6
	c0.1-1.2,0.1-2.2,0.1-3.1h2.2v12.5H62.2v-1.5h2.3v-28h-2.3V63.3L62.2,63.3L62.2,63.3z"/>
<polygon points="112,64.8 112,77.1 123.5,77.1 123.5,64.8 121.3,64.8 121.3,63.3 131.2,63.3 131.2,64.8 128.6,64.8 128.6,92.8 
	131.2,92.8 131.2,94.4 121.3,94.4 121.3,92.8 123.5,92.8 123.5,78.6 112,78.6 112,92.8 114.3,92.8 114.3,94.4 104.4,94.4 
	104.4,92.8 106.9,92.8 106.9,64.8 104.4,64.8 104.4,63.3 114.3,63.3 114.3,64.8 "/>
<polygon class="st0" points="42.4,80.9 42.4,80.9 50.4,80.9 46.5,68.6 "/>
<path d="M59.4,92.8l-9.6-29.6h-3.3L37,92.1h-3.8L20,72.9l0,0c1.2-0.1,2.3-0.3,3.5-0.7c1.5-0.6,2.9-1.3,4.1-2.2
	c1.3-1,2.3-2.3,3.2-3.9c1.5-3.1,1.5-6.5,0-9.6c-0.7-1.5-1.9-2.8-3.2-3.9c-1.3-0.9-2.6-1.6-4.1-2.2c-1.3-0.4-2.8-0.7-4.2-0.7H0.6v2
	h3.2v40.2H0.6v2h13.8v-2h-3.2V73.1h0.3l14.7,21.2h15.1v-1.5h-2.6l3.5-10.5h9l3.5,10.5h-2.8v1.5h9.6v-1.5H59.4L59.4,92.8z M14.7,71
	H11V52h3.8c1.2,0,2.5,0.1,3.6,0.4c1,0.1,1.9,0.6,2.6,1c0.7,0.4,1.3,1.2,1.7,1.9c1.5,3.9,1.5,8.3,0,12.2c-0.4,0.7-1,1.5-1.7,1.9
	c-0.9,0.6-1.7,0.9-2.6,1C17.1,70.9,16,71,14.7,71z M42.4,80.9L42.4,80.9l4.1-12.3l4.1,12.3H42.4L42.4,80.9z"/>
<polygon points="324.7,92.8 326.6,92.8 326.6,64.8 324.7,64.8 324.7,63.3 332.5,63.3 345.2,84.5 345.2,64.8 342.9,64.8 342.9,63.3 
	349.1,63.3 349.1,64.8 347.1,64.8 347.1,94.4 345.2,94.4 328.6,66.4 328.6,92.8 330.8,92.8 330.8,94.4 324.7,94.4 324.7,92.8 "/>
<path d="M200.9,49.8h13.8V52h-3.2v40.2h7.6c1.7,0,3.5-0.6,4.8-1.9c1.2-1.2,2-2.8,2.6-4.4c0.6-1.7,0.9-3.5,1-5.2
	c0.1-1.7,0.3-3.2,0.3-4.4h3.1v17.9h-29.9v-2h3.3V52h-3.2L200.9,49.8L200.9,49.8L200.9,49.8z"/>
<path d="M247.3,63.3h-3.3L234.3,93H232v1.5h6.8V93h-2.6l3.5-10.5h9l3.5,10.5h-2.8v1.5h9.6V93h-2L247.3,63.3z M239.8,80.9L239.8,80.9
	l4.1-12.3l4.1,12.3H239.8L239.8,80.9z"/>
<path d="M321.5,82.9c0,1-0.1,2-0.3,3.1c-0.1,1.2-0.4,2.2-0.9,3.3c-0.4,1-1,1.9-1.7,2.6c-0.9,0.7-2,1.2-3.1,1h-6.7V79.5h2
	c0.9,0,1.9,0.1,2.8,0.6c0.6,0.3,1,0.9,1.3,1.5c0.3,0.6,0.4,1.2,0.6,1.9c0.1,0.7,0.1,1.3,0.1,1.9h1.5V71.9h-1.5
	c0,0.6-0.1,1.3-0.1,1.9c-0.1,0.6-0.3,1.3-0.6,1.9c-0.3,0.6-0.7,1.2-1.3,1.5c-0.9,0.4-1.7,0.6-2.8,0.6h-2V64.8h6.7c1,0,2,0.3,2.9,0.9
	c0.7,0.6,1.3,1.3,1.7,2.2c0.4,0.9,0.7,1.9,0.9,2.9c0.1,1,0.3,1.9,0.4,2.9h1.7V63.3h-22.1v1.5h2.6V93H302l-9.3-13.4l0,0
	c0.9,0,1.6-0.3,2.5-0.6c1-0.3,2-0.9,2.9-1.5c0.9-0.7,1.6-1.7,2.2-2.8c1-2,1-4.5,0-6.7c-0.6-1-1.3-2-2.2-2.8
	c-0.9-0.6-1.9-1.2-2.9-1.5c-0.9-0.3-1.9-0.6-2.9-0.6h-13.1v1.5h2.2v28h-2.3v1.5h9.6v-1.5h-2.3V79.6h0.3l10.3,14.8h26.7V82.9
	L321.5,82.9L321.5,82.9z M289,78h-2.6V64.8h2.6c0.9,0,1.7,0.1,2.6,0.3c0.7,0.1,1.3,0.4,1.9,0.7c0.4,0.3,0.9,0.7,1.2,1.3
	c1,2.8,1,5.8,0,8.6c-0.3,0.6-0.7,1-1.2,1.3c-0.6,0.3-1.2,0.6-1.9,0.7C290.7,78,289.8,78,289,78L289,78z"/>
<path d="M272.4,64.8h1.9V86c0,1.7-0.6,3.5-1.9,4.8c-1,1.2-2.5,1.7-4.1,1.9c-1.5,0.1-2.9-0.3-4.1-1.2c-1.2-1.2-1.9-2.8-1.9-4.4V64.8
	h2.6v-1.5h-9.9v1.5h2.3v21.6c0,1.2,0.3,2.3,0.7,3.3c0.9,2,2.5,3.8,4.6,4.6c2.6,1,5.4,1,8,0c2-0.9,3.8-2.5,4.6-4.6
	c0.4-1,0.7-2.2,0.7-3.3l0,0V64.8h1.9v-1.5h-5.7V64.8L272.4,64.8z"/>
<path d="M159.9,34.1c-0.3,0-0.4-0.1-0.4-0.3c-0.1-0.1,0-0.4,0.1-0.6c0.6-0.4,1.2-0.9,1.7-1.2c1.7-1.2,3.5-2.3,5.1-3.3
	c1.6-1,3.5-2.3,5.2-3.5c1.7-1.2,3.1-2.2,4.5-3.3c0.7-0.6,1.5-1.2,2.2-1.7c0.4-0.3,0.7-0.7,1-1.2c0.1-0.3,0.1-0.6,0-0.9
	c-0.3-0.6-0.6-1.5-0.9-1.9c0-0.1-0.1-0.3-0.1-0.4c0-0.3,0.1-0.6,0.4-0.7c0.3-0.3,0.6-0.1,0.9,0l0.1,0.1c1.2,2.2,2,4.4,2.9,6.7
	c0.1,0.4-0.1,0.7-0.6,0.9c-0.1,0-0.4,0-0.6-0.1c-0.4-0.6-0.7-1.3-1-2c-0.3-0.4-0.7-0.3-1,0c-1,0.7-1.9,1.3-2.8,2
	c-1.5,1.2-2.9,2.2-4.4,3.3c-1.5,1.2-3.3,2.5-5.1,3.6l-5.1,3.3C161.5,33.4,160.8,33.8,159.9,34.1L159.9,34.1L159.9,34.1z
	 M167.6,106.5h-0.1c-0.3-0.1-0.6-0.4-0.7-0.7s-0.4-0.4-0.6-0.7c-0.1-0.1-0.4-0.3-0.7-0.4l-0.1-0.1c0-0.1,0-0.1,0-0.3
	c0-0.1,0-0.4-0.3-0.6c-0.3-0.1-0.6-0.3-0.9-0.6v-0.1c-0.1-0.1,0-0.4,0.1-0.6c0.1-0.1,0.3-0.1,0.3-0.3c-0.1-0.3-0.3-0.4-0.4-0.7
	c-0.4-0.4-0.6-1-0.9-1.6c0-0.4,0-0.7,0-1.2c0-0.3,0.1-0.4,0.4-0.7c0.1-0.3,0.3-0.6,0.4-0.9s0.3-0.7,0.4-1c0-0.1,0-0.4,0.1-0.6
	c0.1-0.1,0-0.3,0-0.4c0-0.1,0-0.3,0-0.6c0-0.9-0.1-1.6-0.1-2.5c0-0.1,0.1-0.4,0.1-0.6c0-0.4,0-0.7,0-1.2c0-0.1,0-0.3,0-0.4
	c-0.1-0.4-0.3-0.7-0.1-1.2c0-0.4,0.4-0.7,0.4-1.2v-0.1c0-0.3,0-0.6,0-0.9c0-0.4-0.1-0.6-0.4-0.3c0,0.1-0.1,0.1-0.1,0.3
	c0,0.1-0.1,0.3-0.1,0.6c0,0.6,0,1.2,0,1.6c0,0.1,0,0.1,0,0.3l-0.1,0.3c0,0.3,0,0.4,0,0.7c-0.1,0.1-0.4,0.3-0.6,0.1
	c0,0-0.1,0-0.1-0.1c-0.1-0.1-0.4-0.3-0.6-0.3c-0.6-0.1-1-0.4-1.5-0.7c-0.4-0.3-1-0.6-1.6-0.7c-0.1,0-0.1-0.1-0.3-0.1
	c-0.3-0.3-0.6-0.7-0.7-1.2c-0.1-0.1-0.3-0.3-0.4-0.4c-0.1-0.3-0.3-0.6-0.4-0.7c-0.1-0.4-0.4-0.7-0.7-1.2c-0.3-0.6-0.4-1.2-0.6-1.7
	l-0.1-0.1c0-0.1-0.1-0.4-0.1-0.6c0-0.1-0.1-0.3-0.1-0.3c-0.1-0.1-0.4-0.4-0.6-0.4c-0.1-0.1-0.1-0.1-0.1-0.3c0-0.1-0.1-0.3-0.1-0.6
	c0-0.1,0-0.3,0-0.4c-0.1-0.4,0-0.9-0.1-1.5c0-0.1,0-0.4,0-0.7c0-0.1,0-0.3,0-0.3c0-0.3,0-0.4-0.1-0.7c0-0.1-0.1-0.3-0.1-0.4
	c-0.4-2.5-2-4.5-2.3-7c0-0.3,0-0.6,0.1-0.9c0-0.1,0.1-0.3,0.1-0.4c0-0.4,0-0.4,0-0.7c0-0.3,0.1-0.4,0.4-0.3c0.1,0.1,0.1,0.1,0.3,0.3
	c0.4,0.6,0.3,0.6,0.4,0.7c0.1,0.1,0.3,0.3,0.4,0.4c0,0.1,0.1,0.1,0.3,0.1c0.1,0,0.1-0.3,0-0.6c-0.1-0.3-0.4-0.6-0.7-0.9
	c0,0,0-0.1-0.1-0.1c-0.1-0.1-0.3-0.3-0.3-0.6c-0.6-1.6-0.9-3.3-0.9-5.1c-0.1-1.3-0.3-2.8-0.6-3.9c0-0.4-0.1-0.7-0.4-1
	c-0.1-0.1-0.3,0-0.6,0c-0.6,0.3-1.2,0.7-1.5,1.3c0,0.1-0.1,0.3-0.1,0.4c0,0.3,0,0.6,0.1,0.9c0.1,1.5,0.4,2.8,0.7,4.1
	c0.3,1.6,0.7,3.1,1.3,4.6c0.1,0.3,0.1,0.6,0.3,1c0.1,0.1,0.1,0.4,0.1,0.6c0.1,0.4,0.1,0.9,0.1,1.3c0,0.3-0.1,0.4-0.4,0.4
	c-0.1,0-0.4-0.1-0.4-0.3c0-0.1-0.1-0.4-0.1-0.7c-0.7-3.3-1.6-6.8-2.5-10.2c0-0.1,0-0.4-0.1-0.6c-0.1,0-0.3,0-0.4,0s-0.3,0-0.6,0
	c-0.1,0-0.3-0.1-0.3-0.1c-0.1-0.1-0.3-0.3-0.1-0.4c0-0.1,0.1-0.3,0.3-0.3c0.3-0.1,0.6-0.3,0.7-0.4l0.3-0.1c0.1-0.1,0.1-0.1,0.3-0.1
	c0.1,0,0.3-0.1,0.4-0.1c0.3-0.1,0.4-0.4,0.4-0.7c0-0.3,0-0.6,0-0.9c0-0.1,0-0.3,0-0.3c0-0.1-0.1-0.1-0.1-0.3c0-0.3,0-0.6,0-0.9
	c0-0.1,0-0.1,0-0.3c0-0.1-0.1-0.1-0.1-0.3c-0.1-0.3-0.3-0.7-0.4-1c0,0,0-0.1-0.1-0.1c-0.1-0.3-0.4-0.6-0.6-0.9
	c-0.1-0.1-0.1-0.1-0.3-0.3c-0.1-0.1-0.3-0.3-0.1-0.4l0,0c0.1-0.1,0.3-0.1,0.4-0.1c0.6,0.3,1,0.7,1.3,1.3c0.1,0.3,0.3,0.6,0.4,0.9
	c0.1,0.3,0.1,0.4,0.1,0.7s0,0.6,0,0.9c0,0.4,0-0.1,0,0.1c0,0.3,0,0.7,0,1c0,0.1,0.1,0.4,0.3,0.6c0.1,0.1,0,0.1,0.1,0.1
	s0.1,0,0.3-0.1c0.1-0.1,0.4-0.3,0.6-0.4c0,0,0.1-0.1,0.1-0.3h-0.1h-0.4c-0.3,0-0.3-0.3-0.3-0.6c0-0.1,0-0.3,0-0.4c0-0.1,0-0.4,0-0.7
	c0-0.6-0.1-1-0.6-1.5l-0.6-0.9c-0.1-0.3-0.3-0.4-0.6-0.6c-0.3-0.1-0.4-0.3-0.7-0.4c-0.3-0.3-0.3-0.7,0-1.2c0.1-0.3,0.3-0.4,0.4-0.7
	c0.3-0.3,0.4-0.6,0.7-0.9c0.1-0.1,0.3-0.3,0.4-0.4c0.3-0.1,0.6-0.4,0.9-0.6c0.3-0.1,0.6-0.3,0.9-0.4c0.4-0.3,0.7-0.6,0.7-1
	c0-0.1,0-0.3-0.1-0.3h-0.1c-0.1,0.1-0.3,0.3-0.4,0.4c-0.3,0.1-0.6,0.1-0.9,0c-0.1,0-0.1-0.1-0.3-0.3c-0.3-0.3-0.6-0.6-0.9-0.9
	c-0.3-0.3-0.4-0.3-0.6-0.4c-0.1-0.1-0.1-0.3-0.3-0.3c0-0.1,0-0.3,0-0.4s0.1-0.3,0.4-0.3l0,0c0.1,0,0.3,0.1,0.4,0.1
	c0.3,0,0.4-0.1,0.6-0.4c0-0.1,0-0.3,0.1-0.4c0.1,0,0.1-0.1,0.1-0.3c0-0.3-0.1-0.4-0.3-0.7c0-0.1,0-0.1,0-0.3c0-0.1,0-0.3,0-0.4
	c0-0.1,0.1-0.3,0.1-0.4c0.1-0.3,0.4-0.6,0.7-0.9c0.3-0.3,0.6-0.6,0.9-0.7c0.1-0.1,0.3-0.1,0.6-0.3h0.1c0.3,0,0.4,0.3,0.6,0.3
	c0.1,0,0.4-0.1,0.4-0.3c0.1-0.3,0.4,0,0.7,0c0.1,0.1,0.3,0.1,0.3,0l0,0l0,0c0,0,0,0,0-0.4c0-0.1,0-0.1,0.1-0.3
	c0.3-0.3,0.6-0.6,0.9-0.7c0.1-0.1,0.1,0,0.3-0.1c0.1-0.1,0.3-0.1,0.4-0.3c0.4-0.1,0.1-0.4-0.1-0.3l-0.1,0.1c-0.1,0-0.1,0-0.3,0
	c0,0.1,0,0.1,0,0.1c-0.1,0.1-0.3,0.3-0.6,0.3c-0.3,0.1-0.6,0.3-0.9,0.4c-0.3,0.1-0.4,0.4-0.7,0.6c-0.1,0.1-0.7,0.1-0.4-0.4
	c0-0.1,0.1-0.3,0.1-0.3c0.1-0.4,0.1-0.9,0-1.3c-0.1-0.4,0-0.9,0.3-1.3c0.7-0.9,1.6-1.5,2.6-1.7c0.4,0,0.7,0,1.2,0
	c0.4,0,0.7,0.1,1,0.3c0.1,0,0.4,0.1,0.6,0.4c0,0.1,0,0.3-0.1,0.4c0,0-0.1,0.1-0.1,0.3c0,0.3,0.3,0.4,0.6,0.4l0,0
	c0.1,0,0.3-0.1,0.4-0.1s0.3,0,0.3,0.1v0.1c0,0.1-0.1,0.1-0.3,0.1c-0.1,0-0.3,0.1-0.3,0.1c-0.1,0-0.3,0-0.6,0c-0.3,0-0.1,0.1-0.4,0.1
	c-0.3,0-0.6,0.1-0.7,0.3c-0.4,0.3-0.1,0.7,0.3,0.4c0.1-0.1,0.3-0.1,0.4-0.1c0.3-0.1,0.6-0.1,0.9-0.3c0.1,0,0.1,0,0.4-0.1
	c0.1-0.1,0.4-0.1,0.7-0.1c0.3,0.1,0.1,0.6,0,0.7s-0.3,0.1-0.6,0.3c-0.1,0-0.1,0.1-0.1,0.1c-0.1,0.1-0.1,0.3-0.1,0.4
	c0,0.1,0,0.4,0,0.6c0,0.1,0.1,0.1,0.1,0.3c0.1,0.3,0.4,0.6,0.7,0.7c0.1,0.1,0.4,0.1,0.6,0.1c0.1,0,0.4,0,0.6,0
	c0.1-0.1,0.4-0.1,0.7-0.3c0.1,0,0.1,0,0.3,0.1c0.1,0,0.1,0.1,0.3,0.3c0.1,0.1,0.1,0.3,0.1,0.4s0,0.3,0,0.4s0.1,0.3,0.3,0.3
	c0,0,0.1,0,0.1-0.1c0.1-0.1,0.1-0.3,0.1-0.4c-0.1-0.3,0-0.6,0.1-0.7s0.4-0.1,0.6,0c0.4,0,0.7,0.3,1.2,0.4c0.7,0.3,1.3,0.6,1.9,1
	c0.1,0.1,0.3,0.3,0.6,0.4c0.4,0.3,1,0.6,1.5,0.7c0.1,0.1,0.3,0.1,0.4,0.3c0.1,0.1,0.1,0.1,0.3,0.3c0.1,0.1,0.1,0.1,0.1,0.3
	c0,0.6-0.3,0.4-0.7,0.6c-0.1,0-0.3,0-0.4,0.1c-0.1,0-0.3,0.1-0.4,0.3c-0.1,0.1-0.3,0.3-0.3,0.4c-0.1,0.1-0.3,0.4-0.6,0.6
	c-0.3,0.1-0.6,0.1-0.9-0.1c-0.4-0.1-0.7-0.4-1-0.9c0-0.1-0.1-0.1-0.1-0.3c-0.1-0.3-0.4-0.3-0.3,0c0.1,0.1,0.1,0.3,0.3,0.6
	c0,0.1,0,0.1,0,0.3s0,0.1,0.1,0.3c0,0.1,0,0.3,0.1,0.6c0.1,0,0.1,0,0.3,0c0.3,0,0.4,0.1,0.4,0.4c0.1,0.1,0,0.4-0.1,0.4l0,0
	c-0.1,0.1-0.3,0.1-0.4,0.1c-0.4,0.1-0.7,0.4-1.3,0.6l-0.1,0.1c-0.1,0-0.1,0-0.3,0c-0.1,0-0.3,0-0.6,0c-0.1,0-0.3,0-0.4,0v0.1
	c0,0.4,0,0.7,0.1,1.2c0,0.1,0,0.4,0.1,0.6c0.1,0.3,0.4,0.6,0.6,1c0,0.3,0.1,0.7,0.4,1c0.1,0.1,0.3,0,0.3-0.1c0.3-0.4,0.9-0.9,1.5-1
	c0.4-0.1,0.9-0.1,1.3-0.1c0.3,0.1,0.4,0.3,0.7,0.4c0.3,0.1,0.6,0.1,0.7-0.1s0.1-0.6,0.1-0.7c0-0.3,0.3-0.4,0.4-0.4s0.3,0,0.4,0
	s0.1,0,0.1,0.1c0.1,0.1,0.1,0.4,0,0.6l0,0c-0.1,0.1-0.1,0.1-0.3,0.3c-0.1,0.1-0.1,0.3-0.1,0.4v0.1c0.1,0.3,0.3,0.6,0.4,0.7
	s0.1,0.3,0,0.4c-0.1,0.4-0.3,0.9-0.1,1.2c0.1,0.3,0.3,0.6,0.4,1c0.1,0.1,0.1,0.4,0,0.6c-0.1,0-0.1,0.1-0.3,0.1c-1,0-1.9,0-2.9,0.1
	l-0.6,0.1c-0.3,0-0.6,0-0.7,0c-0.4,0.1-0.7,0.3-1.2,0.6c-0.3,0.1-0.6,0.3-0.9,0.4c-0.1,0-0.3,0.1-0.4,0.1c-0.3,0.1-0.4,0.3-0.7,0.4
	c-0.1,0.1-0.3,0.3-0.6,0.3c-0.3,0.1-0.4,0-0.6-0.3c0-0.3,0-0.6,0-0.9c0-0.1,0.1-0.3,0.1-0.4c0.1-0.3,0.4-0.4,0.7-0.6
	c0.1,0,0.1,0,0.3,0c0.3,0,0.6-0.1,0.7-0.4c0-0.1,0-0.1,0-0.3c-0.1-0.1-0.3-0.3-0.6-0.3c-0.3,0-0.6,0-0.9-0.1h-0.1
	c-0.1,0-0.3-0.1-0.4-0.3c-0.1-0.1-0.3-0.3-0.4-0.4c-0.3-0.3-0.4-0.6-0.4-1c0-0.1,0.1-0.1,0.1-0.1c0.1,0,0.3,0,0.6,0
	c0.1,0,0.3-0.1,0.3-0.1c0.1-0.3,0.3-0.6,0.6-0.7c0.1,0,0.1,0,0.3,0c0.3,0.1,0.4,0.1,0.7,0.3c0.1,0,0.1-0.1,0.1-0.1s0,0,0-0.1
	c-0.1-0.3-0.4-0.6-0.7-0.9c0-0.1-0.1-0.1-0.1-0.3c0-0.1,0-0.1,0-0.3c0-0.3,0-0.6,0.1-0.7s0-0.1,0.1-0.4c0-0.3,0-0.4,0-0.7V46
	c-0.1,0-0.4,0.1-0.6,0.3c-0.1,0.1-0.1,0.1-0.3,0.1c-0.1,0-0.4,0-0.6,0c-0.3,0-0.4,0-0.7,0l0,0l0,0c0.1,0.1,0.3,0.1,0.4,0.1
	s0.3,0,0.4,0.1c0.1,0.1,0.3,0.1,0.4,0.4c0.1,0.1,0.1,0.3,0.3,0.4c0.1,0.3,0.1,0.4,0.1,0.7c0,0.1-0.1,0.3-0.1,0.4
	c-0.1,0.3-0.4,0.6-0.7,0.7c-0.6,0.1-1.2,0.1-1.7,0.1s-0.6-0.3-0.7-0.7c0-0.1,0-0.3,0-0.4c0-0.3-0.1-0.4-0.3-0.7
	c-0.1-0.3-0.3-0.4-0.4-0.7c0-0.1,0-0.3,0-0.4s0.1-0.4-0.1-0.6c-0.3-0.1-0.3,0.4-0.3,0.6c0,0.1,0.1,0.4,0.1,0.6s0,0.1,0,0.1
	s0.1,0.1,0.1,0.3c0,0.1,0.1,0.4,0.1,0.6c0,0.1,0,0.6,0.1,0.9s0,0.4,0.1,0.7c0.1,0.3,0,0.7,0.1,1.2l0.1,0.4c0,0.1,0,0.1,0,0.3
	c0,0.3,0.1,0.6,0.1,0.9c0,0.1,0,0.6,0.1,0.1c0-0.1,0-0.4,0-0.6c0-0.6,0.3-0.3,0.4,0c0,0.1,0,0.1,0,0.3c0.1,0.3,0.1,0.6,0.1,0.9
	c0,0.3,0.1,0.6,0.1,0.7c0,0.1,0,0.1,0.1,0.3c0,0.3,0.1,0.6,0.1,0.9c0,0.1,0,0.1,0.1,0.3c0,0.3,0,0.6,0.1,1s0.1,0.9,0.1,1.3
	c0,0.4,0,0.4,0.1,0.6c0,0.3,0.3,0.4,0.4,0.3l0,0c0.1,0,0.4-0.1,0.4-0.4c0.1-0.3,0.3-0.7,0.4-1.2c0-0.1,0.1-0.3,0.1-0.4
	c0.1-0.4,0.4-0.7,0.9-0.9c0.1-0.1,0.3-0.3,0.4-0.6c0-0.1,0.1-0.3,0.3-0.3c0.1-0.1,0.4-0.3,0.6-0.4c0.1,0,0.4,0,0.6,0
	c0.1,0,0.1,0,0.3,0l0.4-0.1c0.6-0.1,1.2-0.3,1.7-0.3c0.1,0,0.1-0.1,0.3-0.1h0.3c0.4-0.1,1-0.1,1.5-0.1c0.1,0,0.4,0.1,0.6,0.3
	c0.1,0.1,0.1,0.1,0.1,0.3c0,0.3,0,0.6-0.1,0.9c-0.1,0.1-0.3,0.3-0.4,0.4c0,0.3,0.3,0.3,0.6,0.3c0.1,0,0.3,0.1,0.6,0.1
	c0.1,0,0.1,0.1,0.3,0.1l0.1,0.1c0,0.1,0,0.1,0,0.3c-0.3,0.3-0.6,0.4-1,0.4l-1.2,0.3c-0.1,0-0.3,0-0.4,0s-0.7,0.6-0.4,0.9
	c0.3,0.3,0.7-0.4,1-0.6c0.4-0.4,1.2-0.4,1.6-0.1l0.1,0.1c0,0.3,0,0.4,0,0.7c0,0.1,0,0.3-0.1,0.6c-0.1,0.3,0,0.1,0,0.3
	s-0.1,1,0.1,0.7c0.1-0.1,0.3-0.3,0.1-0.6c0-0.1,0-0.4,0-0.6c0-0.1,0-0.3,0-0.4s0.1-0.4,0.3-0.4c0.1,0,0.3,0,0.3,0
	c0.3,0.1,0.4,0.4,0.4,0.7c0,0.3,0,0.4,0,0.7c0,0.1,0,0.3-0.1,0.4c0,0.1-0.1,0.3,0,0.3h0.1c0.1-0.1,0.4-0.1,0.6,0l0,0c0,0,0,0,0,0.1
	s0,0.3,0,0.6c0,0.1,0,0.1,0,0.3c0,0.1-0.1,0.1-0.4,0.9c-0.1,0.3-0.1,0.6,0,0.7s0.3,0,0.3-0.1s0.1-0.3,0.1-0.4s0-0.4,0.3-0.4
	c0.3,0,0.6,0.1,0.6,0.4s0,0.6,0,0.9c0,0.1-0.1,0.4-0.1,0.6c0,0.3,0,0.6-0.1,0.9c-0.1,0.1-0.1,0.3-0.3,0.4c-0.1,0.4,0,0.9-0.1,1.5
	c-0.1,0.6-0.4,0.7-0.6,1.2c-0.1,0.4-0.3,0.7-0.3,1.2c0,0.1,0,0.1-0.1,0.3c-0.1,0.7-0.4,1.5-0.9,2c-0.1,0.3-0.3,0.4-0.3,0.7v0.1
	c0.3,0.1,0.4,0.1,0.7,0.1c0.3,0.1,0.1,0.4,0,0.6c-0.1,0.1-0.3,0.3-0.4,0.4c0,0.1,0.1,0,0.3,0h0.1c0.1,0.1,0.1,0.3,0.1,0.6
	c0,0.1,0,0.4,0,0.7c0,0.1,0.1,0.7,0.4,0.4v-0.1c-0.1-0.3-0.1-0.6,0-0.9h0.1c0.3,0.1,0.6,0.3,0.6,0.7c0,0.1,0,0.3,0.1,0.4
	c0,0.3,0,0.6,0,0.9s-0.3,0.6-0.6,0.9l-0.1,0.1H172c-0.1,0-0.4,0-0.6,0.1h-0.1c-0.1,0-0.4-0.1-0.6-0.3c-0.1-0.1-0.1-0.4-0.3-0.6
	c0-0.1-0.1-0.1-0.1-0.1c-0.3-0.1-0.4-0.4-0.4-0.7c0-0.1-0.1-0.3-0.1-0.4c-0.1-0.3-0.4-0.6-0.6-0.9v-0.1c-0.1-0.3-0.3-0.7-0.3-1.2
	c0-0.1-0.1-0.3-0.3-0.3c-0.3-0.3-0.4-0.6-0.7-0.9c-0.1-0.1-0.1-0.4-0.1-0.7c-0.1-0.7,0-1.5-0.1-2.2v-0.1c0-0.4-0.1-0.9-0.4-1.3
	c-0.1-0.1-0.1-0.3-0.1-0.4c0-0.3-0.1-0.7-0.4-1l-0.1-0.3c-0.4-0.6-0.9-1-1.3-1.5c-0.3-0.3-0.4-0.7-0.6-1.2v-0.1
	c0.1-0.1,0.1-0.3,0.3-0.4c0-0.1,0-0.3-0.1-0.3c-0.3,0-0.4,0.1-0.6,0.4c-0.1,0.1-0.1,0.1-0.1,0.3s0.1,0.3,0.3,0.4
	c0.1,0.1,0.6,0.6,0.1,0.9c-0.4,0.1-0.9,0-1.2-0.3c-0.3-0.1-0.7-0.3-0.9-0.4c0-0.1-0.1-0.1-0.1-0.3s0-0.3,0-0.4c0-0.1,0-0.3,0-0.6
	c-0.1-0.3-0.4-0.6-0.4-0.7s-0.1-0.6-0.1-0.9c0-0.1,0-0.3-0.1-0.6c-0.1-0.1-0.1-0.3-0.3-0.3c-0.1-0.1-0.4-0.3-0.6,0
	c0,0.1,0,0.3,0.1,0.4c0.1,0.3,0.1,0.4,0.3,0.7c0,0.1,0.1,0.3,0.1,0.4s0,0.3,0.1,0.6c0.1,0.3,0.1,0.4,0.1,0.7c0,0.1,0.1,0.4,0.1,0.6
	s0,0.1,0.1,0.3s0.3,0.4,0.4,0.6s0.1,0.1,0.3,0.3c0.1,0.1,0.4,0.3,0.6,0.3c0.3,0,0.4,0.1,0.7,0.3c0.1,0.1,0.3,0.3,0.3,0.4l0.4,0.6
	c0.1,0.1,0.4,0.3,0.6,0.6c0.1,0.1,0.1,0.3,0.1,0.4c0,0.3,0,0.6,0,1c-0.1,0.4-0.1,0.9,0,1.3s0.4,0.7,0.6,1.2c0.1,0.1,0.1,0.4,0.3,0.6
	c0,0.3,0,0.7,0,1c0,0,0,0,0,0.1c0,0.3,0,0.7,0,1s0,0.6,0,0.9c0,0.1,0.1,0.4,0.3,0.6c0.3,0.4,0.6,0.9,0.9,1.3l0.3,0.4
	c0,0,0.1,0.3,0.3,0.4c0.1,0.3,0.4,0.6,0.7,0.7c0,0,0,0.1,0.1,0.1c0.3,0.3,0.7,0.7,0.9,1.2c0.1,0.1,0.1,0.3,0.1,0.6
	c0,0.3,0,0.6,0,0.9c0,0.1,0,0.3-0.1,0.4c-0.1,0.1-0.3,0.3-0.3,0.6c0.1,0.1,0.4,0.1,0.6-0.1l0,0c0.1-0.1,0.3-0.4,0.3-0.7s0-0.6,0-0.9
	s0.3-0.4,0.6-0.4c0.1,0,0.1,0,0.3,0.1c0.1,0.1,0.1,0.3,0.1,0.4c0,0.1,0.1,0.1,0.1,0.3c0,0.1,0,0.3,0,0.3c0,0.1,0.1,0.3,0.1,0.3
	c0,0.1,0.1,0.3,0.1,0.4c0.1,0.3,0.1,0.7,0.1,1.2c0,0.1-0.1,0.3-0.1,0.4l-0.6,0.7c0,0.1-0.1,0.1-0.1,0.3c0,0.3,0,0.6-0.1,0.9
	c-0.1,0.3-0.3,0.4-0.3,0.7s0.1,0.4,0.1,0.7v0.1c0,0.4,0,0.7,0,1.2c0,0.1-0.1,0.4-0.1,0.6c-0.3,0.6-0.3,0.6-0.6,0.9
	c-0.3,0.6-0.7,1.2-1,1.6l-0.1,0.3c-0.3,0.6-0.6,1.3-1,1.9l-0.3,0.3c-0.1,0.1-0.1,0.3-0.1,0.4c0,0.3-0.1,0.4-0.1,0.7
	c-0.1,0.4-0.4,0.9-0.6,1.3c0,0.1,0,0.1,0,0.3c0,0.3-0.1,0.4-0.1,0.7c0,0.1,0,0.1-0.1,0.3c0,0.1,0,0.4-0.1,0.6c0,0.1,0,0.1,0,0.3
	s0,0.4,0,0.6c0.1,0.3,0.3,0.4,0.4,0.7s0.1,0.7,0,1s-0.3,0.7-0.6,1c-0.1,0.3-0.1,0.4,0.1,0.4h0.3c0.1,0,0.3,0.1,0.3,0.1
	c0.3,0.4-0.4,0.7-0.6,1c-0.1,0-0.1,0.1-0.1,0.3v0.1l0,0l0.3-0.1c0.1-0.1,0.4-0.1,0.6-0.1c0.3,0.1,0.4,0.3,0.6,0.6
	c0.3,0.3,0.6,0.4,0.7,0.7c0,0.1,0.1,0.1,0.1,0.3c0,0.1,0,0.3,0,0.4c0,0.1-0.1,0.3-0.1,0.4C168.1,105.9,167.9,106.2,167.6,106.5
	c-0.1,0-0.3,0-0.4,0l0,0l0,0H167.6z M179.7,88.5h-0.3c-0.1,0-0.3,0-0.3-0.1s0.1-0.3,0.3-0.3c0.1,0,0.3,0,0.4,0s0.1,0,0.3,0
	c0.1,0,0.7-0.6,0.7-0.1c0,0.1,0,0.1,0,0.3c0,0.1-0.1,0.1-0.3,0.3c-0.1,0.1-0.3,0.1-0.4,0.1C180,88.5,179.8,88.5,179.7,88.5
	L179.7,88.5L179.7,88.5z M153.8,54.5l0.1-0.1c0-0.1,0.3-0.4,0.4-0.6c0.3-0.4,0.6-0.9,0.9-1.3c0.1-0.1,0.1-0.3,0.3-0.4
	c0.1-0.1,0.3-0.1,0.4,0.1c0,0.1,0,0.3-0.1,0.4c-0.3,0.4-0.4,0.6-1,1.3c-0.1,0.3-0.4,0.6-0.7,0.9C154,54.6,153.5,54.8,153.8,54.5
	L153.8,54.5L153.8,54.5z M159.2,49.1c-0.1,0-0.3-0.1-0.3-0.3l0,0l0,0c0-0.1,0-0.3,0.1-0.4c0-0.1,0.1-0.1,0.3-0.1
	c0.1,0,0.1,0.1,0.1,0.3c0,0.1,0,0.4-0.1,0.6C159.4,48.9,159.2,49.1,159.2,49.1L159.2,49.1L159.2,49.1z M150.5,100.4l-0.1-0.1
	c-0.3-0.1-0.7-0.3-1-0.4c-0.1,0-0.1,0-0.3-0.1c-0.1-0.1-0.1-0.4,0-0.6c0.3-0.4,0.3-1,0.1-1.5c0-0.1,0-0.4,0-0.6c0-0.3,0-0.6,0-0.9
	c0-0.4,0-0.7,0.1-1.2c0.1-0.7,0.4-1.5,0.9-2.2c0.1-0.4,0.3-0.7,0.4-1c0.1-0.4,0.3-0.9,0.4-1.3c0-0.1,0.1-0.3,0.1-0.4
	c0.3-0.9,0.6-1.7,0.6-2.6c0.3-0.4,0.4-0.9,0.6-1.3c0-0.4,0-0.7,0.1-1.2c0,0,0-0.1,0-0.3c0-0.1,0.1-0.1,0.1-0.1s0.1,0,0.1,0.1
	l0.3,0.3c0.1,0.1,0.3,0.3,0.4,0.4c0.1,0.1,0.4,0.1,0.4-0.1s-0.1-0.6-0.4-0.9c-0.3-0.4-0.4-1-0.7-1.5c-0.1-0.1,0-0.1-0.1-0.3
	c-0.9-1.6-1.3-3.5-1.3-5.2c0.1-0.4,0.3-0.9,0.6-1.2c0.1-0.1,0.3-0.3,0.3-0.4c0-0.1,0-0.3,0-0.4c0-0.1-0.1-0.4-0.1-0.6
	c-0.1-0.4-0.1-0.7-0.1-1.2c0.1-0.3,0.3-0.6,0.4-0.9c0-0.1,0.1-0.3,0.3-0.1c0.1,0.3,0.3,0.4,0.4,0.7c0.6,1,1,2.2,1.3,3.3
	c0,0.4,0,0.9,0,1.3c0,0.4,0.1,1,0.3,1.6c0,0.3,0.3,0.7-0.1,0.7h-0.1c-0.3-0.3-0.6-0.7-0.7-1.2c0-0.1-0.1-0.3-0.1-0.4
	c-0.1-0.1-0.1-0.3-0.1-0.3c0.1-0.3,0.1-0.6,0-0.9c-0.1-0.1-0.3-0.3-0.4,0c-0.1,0.3,0.1,0.6,0,0.9c0,0.1-0.3,0.3-0.4,0.3l0,0
	c-0.1,0-0.1-0.1-0.3-0.1c0,0-0.1,0-0.1,0.1l0,0c0,0.1,0.1,0.4,0.1,0.6c0.3,0.4,0.7,0.7,1,1.2c0.3,0.4,0.3,0.4,0.4,0.7l0.1,0.3
	c0.1,0.1,0.3,0.6,0.4,0.4c0.1,0,0.1-0.1,0.3-0.3c0.3-0.1,0.6,0,0.7,0.3c0.1,0.1,0.3,0.3,0.3,0.4c0.1,0.4,0.1,0.9,0.3,1.5
	c0,0.1,0.1,0.4,0.1,0.6c0,0.1,0.1,0.3,0.1,0.4c0.1,0.3,0.1,0.4,0.3,0.7c0.1,0.1,0.3,0.3,0.4,0.6c0.4,0.4,0.9,1,1.2,1.6
	c0,0.1,0.1,0.3,0.1,0.3v0.1c0,0.1-0.1,0.1-0.3,0c-0.4-0.1-0.9-0.4-1.3-0.7c-0.1-0.3-0.3-0.4-0.4-0.7c-0.1-0.3-0.3-0.4-0.6-0.1
	c-0.1,0.1-0.1,0.4,0,0.6c0.1,0.4,0.6,0.7,1,0.9c0.6,0.1,1,0.3,1.5,0.6c0.1,0.1,0.1,0.3,0,0.3l0,0l0,0c-0.1,0-0.3,0-0.4,0
	s-0.3,0.1-0.1,0.3c0,0.1,0.1,0.3,0.1,0.3l0,0h0.1c0.3-0.1,0.6-0.3,1-0.4c0,0,0,0,0.1,0c0,0.3,0,0.6-0.3,0.7
	c-1.3,1.3-2.8,2.5-4.2,3.6c-1,0.6-1.9,1.7-2.2,2.9c0,0.7,0,1.6,0,2.3c0,0.3-0.1,0.7-0.3,1c-0.1,0.1-0.3,0.3-0.3,0.4
	c-0.1,0.1,0,0.4,0,0.6C151.2,100.1,150.9,100.4,150.5,100.4L150.5,100.4L150.5,100.4z M177.2,110.4h-0.3c-0.6-0.1-0.9-0.4-1-1
	c0-0.3,0.1-0.6,0.3-0.7c0-0.1,0-0.1,0-0.3c0-0.1,0-0.1,0-0.3c-0.1-0.3-0.1-0.6-0.1-0.9c0-0.1,0-0.3,0-0.6c0-0.3,0-0.6,0-0.9
	c0.1-0.4,0.4-1,0.7-1.3c0.1-0.3,0.3-0.6,0.3-0.9c0-0.3,0.1-0.3,0.1-0.3c0.1-0.4,0.1-1,0.1-1.5s0-0.6,0-0.9s0.1-0.4,0.3-0.7l0.1-0.1
	c0.3,0,0.6-0.1,0.9-0.3c0.1-0.1,0.3-0.1,0.4-0.4c0.1-0.3,0-0.4-0.3-0.4c-0.3,0-0.4,0-0.7-0.1c-0.1-0.1-0.1-0.4-0.1-0.7
	s0.1-0.4,0-0.6c-0.1-0.1,0-0.6,0-0.9c0-0.7,0-1.3,0.3-2c0.1-0.3,0.3-0.7,0.4-1.2c0-0.4-0.4-0.7,0-1c0,0,0.1,0,0.1-0.1
	c0.1-0.1,0.3-0.4,0.3-0.6c0.1-0.4,0.1-0.9,0.1-1.3c0-0.1,0-0.4-0.1-0.6c0-0.1-0.1-0.3-0.1-0.4c-0.1-0.4-0.3-0.7-0.4-1v-0.1
	c0,0,0.1-0.1,0.1-0.3c-0.1-0.4-0.4-0.9-0.9-1c-0.1-0.1-0.1-0.1-0.3-0.3c-0.1-0.4-0.1-1-0.1-1.5c0-0.1,0-0.3,0.1-0.4
	c0.1-0.3,0.3-0.4,0.4-0.7v0c0.1-0.1,0.4-0.4,0.6-0.7c0-0.1,0-0.3,0-0.3c0-0.3,0-0.4,0-0.7c0.1-0.1,0.3-0.3,0.4-0.6
	c0-0.1,0.1-0.3,0.1-0.4c0-0.1,0-0.1,0-0.3c0.1-0.1,0.1-0.4,0.1-0.6c0-0.6,0-1.2,0-1.9c0-0.4-0.1-0.7-0.4-1.2
	c-0.1-0.1-0.3-0.3-0.3-0.4c-0.1-0.1-0.1-0.3-0.1-0.4c0-0.3,0-0.7,0-1s-0.3-0.7-0.4-0.3c0,0.1,0,0.1,0,0.3c0,0.3,0,0.7,0,1
	s0,0.4,0,0.7c-0.1,0.3-0.3,0.6-0.3,0.9c0,0.1,0,0.3,0.1,0.6c0.3,0.4,0.3,0.9,0.3,1.3c0,0.3,0,0.4-0.1,0.7c0,0.1-0.1,0.1-0.1,0.3
	c-0.1,0.3-0.3,0.7-0.4,1c0,0.1-0.1,0.3-0.1,0.4s-0.3,1.2-0.7,0.9c-0.1-0.1-0.3-0.3-0.3-0.4c-0.1-0.4-0.1-0.7-0.3-1.2l-0.3-0.6
	c0-0.1-0.1-0.1-0.1-0.3c-0.1-0.3-0.3-0.6-0.4-0.9s-0.4-0.7-0.6-1c0-0.1,0-0.3-0.1-0.3c-0.1-0.1-0.1-0.3-0.1-0.6c0-0.1,0-0.1,0.1-0.3
	l0.6-0.3c0.1-0.1,0.3-0.3,0.3-0.4c0-0.1,0-0.4,0-0.6c0-0.6,0-1,0-1.6c0-0.1-0.1-0.3-0.3-0.3c0-0.1,0-0.3,0-0.4
	c-0.1-0.1-0.1-0.4,0-0.6c0,0,0,0,0.1,0c0.1-0.1,0.3-0.1,0.4-0.3c0.1-0.1,0.1-0.3,0.3-0.4c0,0,0.1,0,0.1-0.1c0.1-0.1,0.1-0.1,0.1-0.3
	c0.1-0.3,0.3-0.6,0.3-1c0.1-0.1,0.1-0.4,0.1-0.6c0-0.3-0.1-0.4-0.1-0.7c0-0.4,0-0.9-0.1-1.3c0-0.3-0.1-0.4-0.3-0.6
	c-0.1-0.1-0.1-0.3-0.3-0.4c-0.1-0.1-0.1-0.3-0.3-0.4c0-0.1-0.1-0.3-0.1-0.3c0-0.1,0-0.3,0.1-0.3h0.1c0.1,0.1,0.4,0.1,0.6,0.3
	c0.1,0,0.1,0.1,0.3,0.1c0.4,0.1,0.7,0.1,1.2,0.3h0.3l0.4,0.1c1,0.4,2,1,2.8,1.9c0.3,0.3,0.6,0.6,0.7,0.9c0,0,0,0,0.6,0.6
	c1,1.2,1.9,2.3,2.5,3.6c0.6,1.2,0.9,2.5,1,3.8c-0.1,2.3-0.9,4.5-2,6.5c-0.4,1-0.9,2-1.2,3.1c0,0.3-0.1,0.4-0.1,0.6
	c-0.1,0.9-0.3,1.6-0.6,2.5c-0.1,0.1-0.1,0.4-0.1,0.7c0,0.4-0.1,0.9-0.4,1.2c0,0.1,0,0.1,0,0.3c0,0.1-0.1,0.1-0.1,0.3
	c0,0.4-0.1,1-0.3,1.5c0,0.1-0.1,0.3-0.3,0.3c-0.1,0.1-0.3,0.1-0.4,0V95c0-0.3,0-0.6-0.1-0.7c-0.1-0.1-0.1-0.1-0.1-0.1
	c0-0.3,0-0.4,0.1-0.7c0-0.3,0-0.6,0-0.9c0-0.1,0-0.1,0-0.3c0-0.1-0.1-0.3-0.3-0.1c0,0.1-0.1,0.3-0.1,0.4c0,0.1,0,0.3,0,0.4
	c-0.1,0.6-0.1,1.2-0.1,1.7c0,0.3,0.1,0.4,0.1,0.7c0,0.1,0.1,0.1,0.1,0.3c0,0.1,0,0.3,0,0.3c0.3,0.6,0.1,0.6,0.7,0.1
	c0.1-0.1,0.4-0.3,0.4,0.1c0,0.1,0,0.4,0,0.6c0,0.1,0,0.3-0.1,0.4c-0.3,0.4-0.6,0.9-0.9,1.3c0,0.1,0,0.1,0,0.3
	c-0.1,0.3-0.1,0.7-0.3,1c0,0.1-0.1,0.1-0.1,0.3c0,0.3-0.1,0.7-0.3,1c-0.3,1-0.6,1.9-0.7,2.9c0,0.6-0.1,1.2-0.4,1.7
	c-0.1,0.1-0.1,0.3-0.1,0.6c0,0.4-0.1,0.9-0.4,1.2c-0.3,0.3-0.3,0.9-0.1,1.3c0.1,0.3,0.4,0.6,0.6,0.9c0.1,0.3,0,0.6-0.4,0.6
	C177.8,110.3,177.5,110.3,177.2,110.4L177.2,110.4L177.2,110.4z M174.3,92.7c-0.1,0-0.4,0-0.6-0.1c0,0-0.1-0.1-0.1-0.3
	c-0.1-0.4,0-0.9-0.1-1.5c-0.1-0.6,0-0.7-0.1-1v-0.1c0-0.4-0.1-1-0.1-1.5c-0.1-0.4-0.1-0.7-0.1-1.2c0.1-0.3,0.4-0.6,0.7-0.6l0.3-0.1
	c0.1-0.1,0.4-0.1,0.7-0.1c0,0,0.1,0,0.1,0.1c0.3,0.4,0.4,0.7,0.7,1c0.1,0.1,0.3,0.1,0.3-0.1c0-0.1-0.1-0.4-0.3-0.6
	c-0.3-0.3-0.4-0.6-0.3-0.9c0-0.1,0.1-0.1,0.1-0.1c0.1,0,0.1,0,0.3-0.1c0.1-0.1,0.1-0.1,0.3-0.3h0.1c0.1,0,0.1,0.1,0.3,0.3
	c0.1,0.4,0,0.4,0.1,0.7s0.1,0.6,0.1,0.9c0,0.3,0.1,0.3,0.1,0.4c0,0.1,0,0.3,0,0.4c0,0.3,0,0.6,0,0.9c0,0.3-0.1,0.4-0.3,0.7
	c-0.4,1-0.9,1.9-1.6,2.6C175.2,92.4,174.9,92.5,174.3,92.7L174.3,92.7L174.3,92.7z M175.1,88.9c-0.1,0-0.3-0.1-0.4-0.1
	c-0.1-0.1-0.3-0.3-0.3-0.6c-0.1-0.4,0-0.9,0.3-1.2c0.3,0,0.4,0.1,0.6,0.3c0.3,0.3,0.6,0.6,0.6,1c0,0.1-0.1,0.4-0.4,0.4
	C175.2,88.9,175.2,88.9,175.1,88.9L175.1,88.9L175.1,88.9z M174.8,90.1c-0.1,0-0.3-0.1-0.1-0.3c0.1-0.1,0.3-0.1,0.6-0.1
	c0,0,0,0,0.1,0.1c0,0,0,0,0,0.1C175.1,89.9,174.9,90.1,174.8,90.1L174.8,90.1L174.8,90.1z M176.6,84.5c-0.1,0-0.3-0.1-0.3-0.3
	c0-0.1,0-0.1,0-0.1c0.1-0.1,0.3-0.1,0.4-0.3c0.1-0.1,0.1-0.1,0.3-0.3c0.6-0.6,0.9-1.3,1-2.2c0-0.1,0.1-0.1,0.1-0.3
	c0-0.1,0-0.3,0-0.4c0-0.4,0-1-0.1-1.5c-0.1-0.3-0.1-0.7-0.1-1c0-0.3,0.4-0.7,0.7-0.4c0.1,0.3,0.1,0.6,0.1,0.9s0.1,0.3,0.1,0.4
	c0.1,0.6,0.1,1,0.1,1.6c0,0.3-0.1,0.6-0.3,0.9c-0.1,0.3-0.3,0.6-0.4,0.7c-0.1,0.4-0.1,0.9-0.4,1.3c0,0,0,0,0,0.1
	C177.7,84.1,177.2,84.4,176.6,84.5L176.6,84.5L176.6,84.5z M174.8,85.4c-0.4,0-0.7,0.1-1.2,0c-0.3-0.1-0.4-0.4-0.4-0.7
	c0-0.1,0-0.4-0.1-0.6c-0.1-0.6-0.3-1-0.4-1.5c-0.1-0.4-0.3-0.7-0.3-1s-0.3-0.6-0.4-0.9c-0.4-0.6-0.9-1.2-1.2-1.7v-0.1
	c0.1-0.3,0.4-0.4,0.7-0.3c0.3,0,0.7,0.3,0.9,0.6c0.1,0.3,0.3,0.7,0.4,1.2s0.1,0.7,0.3,1.2c0.1,0.3,0.3,0.6,0.4,0.7
	c0.1,0,0.1,0.1,0.1,0c0.1-0.4,0.1-0.9-0.1-1.3c-0.1-0.3-0.3-0.4-0.4-0.7l-0.4-0.6c0,0,0-0.1,0-0.3c-0.3-0.4-0.3-0.9-0.1-1.3
	c0-0.1,0.1-0.3,0.1-0.3c0.1-0.1,0.3-0.1,0.4-0.3c0.1-0.1,0.4-0.1,0.6,0l0,0v0.1c0,0.1,0.1,0.3,0.1,0.3c0,0.1,0,0.3,0,0.4L174,79
	c0.1,0.4,0.3,0.7,0.4,1.2s0.3,0.9,0.4,1.3c0,0.1,0.1,0.3,0.1,0.3c0,0.3,0.1,0.6,0.3,0.7c0.1,0.1,0.1,0.4,0.1,0.6
	c0.3,0.6,0.1,1.2-0.1,1.7c-0.1,0.1-0.3,0.1-0.4,0.1C175.1,85.6,175.1,85.6,174.8,85.4L174.8,85.4L174.8,85.4z M171.4,85.3
	c-0.3,0-0.4-0.1-0.3-0.4c0.1-0.1,0.1-0.3,0.3-0.4c0-0.1,0.1-0.4,0.3-0.6c0.1-0.1,0.3-0.1,0.4,0c0.3,0.1,0.4,0.6,0.4,0.9
	c0,0.1,0,0.1-0.1,0.1c0,0.1-0.1,0.1-0.3,0.1C172,85.3,171.7,85.3,171.4,85.3L171.4,85.3L171.4,85.3z M171.3,86.4
	c-0.1,0-0.3-0.1-0.4-0.3c0-0.1,0-0.1,0-0.3c0-0.1,0.1-0.3,0.3-0.3c0.3-0.1,0.6-0.1,0.9,0c0.1,0,0.3,0.3,0.3,0.4l0,0
	C172.3,86.6,171.6,86.4,171.3,86.4L171.3,86.4L171.3,86.4z M188.1,72.2c-0.6-0.3-1.2-0.6-1.6-1c-0.6-0.3-1.3-0.7-1.9-1
	c-0.1,0-0.1-0.1-0.1-0.3c-0.1-0.1-0.1-0.3-0.3-0.4c0-0.1-0.1-0.1-0.1-0.3s0-0.3,0-0.4c0-0.1,0.1-0.3,0.4-0.4c0.3,0,0.6,0,0.9,0
	c0.6,0,1,0,1.5,0.1c0.3,0.1,0.4,0.3,0.7,0.4c0.1,0.3,0.4,0.6,0.6,0.7c0.3,0.1,0.6,0.1,0.9,0.4c0.3,0.3,0.4,0.6,0.4,0.9
	c0,0.1,0,0.4-0.1,0.6c0,0.1-0.1,0.1-0.1,0.3c-0.1,0.1-0.3,0.3-0.4,0.3C188.7,72.2,188.4,72.2,188.1,72.2L188.1,72.2L188.1,72.2z
	 M188.1,71.2c-0.1,0-0.1,0-0.3-0.1c-0.3,0-0.4-0.1-0.6-0.3c-0.3-0.3-0.4-0.4-0.7-0.7c-0.1-0.1-0.4-0.1-0.6-0.3
	c-0.3-0.1-0.7-0.1-0.4-0.4l0.1-0.1V69v-0.1c0.1,0,0.3,0,0.4,0s0.3,0.1,0.4,0.3c0,0.1,0,0.3,0.1,0.3c0.1,0.1,0.3,0.1,0.6,0.3
	c0,0.1,0.1,0.3,0.1,0.4l0.1,0.1c0.3,0.1,0.4,0.3,0.7,0.4C188.4,70.9,188.6,71.2,188.1,71.2L188.1,71.2L188.1,71.2z M184.1,70.4
	c-0.3,0-0.4-0.3-0.6-0.4c-0.1-0.3-0.3-0.4-0.4-0.7c0-0.1,0-0.1,0-0.3c0.1-0.3,0.4-0.3,0.7-0.1l0.1,0.1c0.1,0.3,0.1,0.4,0.3,0.7
	c0,0.1,0.1,0.3,0.1,0.3C184.5,70.3,184.3,70.4,184.1,70.4L184.1,70.4L184.1,70.4z M166.3,70.7c-0.3-0.1-0.4-0.4-0.6-0.7
	c-0.1-0.1-0.1-0.3-0.1-0.4c0-0.1,0-0.4,0-0.6c0-0.1,0-0.1,0.1-0.3c0.1-0.1,0.3-0.1,0.4,0c0,0,0,0,0,0.1c0.1,0.3,0.4,0.6,0.6,0.9
	c0.1,0.3,0.1,0.6,0,0.9C166.6,70.7,166.5,70.9,166.3,70.7L166.3,70.7L166.3,70.7L166.3,70.7z M169.2,78.1c-0.1,0-0.1,0-0.3-0.1
	c-0.6-0.4-1-0.9-1.3-1.5c-0.1-0.3-0.4-0.6-0.6-0.9c0-0.1,0-0.3,0-0.4c-0.1-0.1-0.3-0.3-0.4-0.4v-0.1c0-0.1,0.1-0.3,0.1-0.3
	c0-0.1-0.1-0.4-0.1-0.6c0-0.1,0-0.3,0-0.4c0.1-0.4,0.4-0.3,0.7,0c0.1,0,0.1,0.1,0.1,0.3c0,0.1,0,0.3,0.1,0.4c0,0,0.1,0.1,0.1,0.3
	c0,0.3,0.1,0.7,0.1,1c0.1,0.3,0.3,0.6,0.4,0.9c0,0.1,0.1,0.1,0.1,0.3c0.4,0.3,0.7,0.6,1.2,1c0.1,0.1,0.1,0.4,0,0.7
	c0,0-0.1,0-0.1,0.1C169.5,78.1,169.4,78.1,169.2,78.1L169.2,78.1L169.2,78.1z M173.2,76.8C173,76.8,173,76.8,173.2,76.8
	c-0.1-0.6-0.3-1-0.4-1.6c-0.1-0.3-0.1-0.6-0.4-0.7c-0.1-0.3-0.3-0.6-0.4-0.9c-0.1-0.3-0.4-0.4-0.6-0.7c0-0.1,0-0.4,0-0.6
	c0-0.3,0.1-0.4,0.3-0.7c0.1,0,0.3,0,0.3,0c0.1,0,0.1,0.1,0.3,0.1v0.1c0.1,0.3,0.3,0.7,0.4,1.2c0,0.1,0.1,0.1,0.1,0.3
	c0.3,0.3,0.4,0.7,0.6,1c0,0.1,0,0.4,0.1,0.6c0,0.3,0,0.7,0,1C173.5,76.3,173.3,76.5,173.2,76.8c0,0-0.1,0-0.1-0.1l0,0L173.2,76.8z
	 M174,75.2c-0.1,0-0.1-0.1-0.1-0.1c-0.1-0.3-0.1-0.6-0.1-0.9v-0.1c0.1-0.1,0.4-0.1,0.4,0.1c0.1,0.3,0.1,0.6,0.1,0.9
	c0,0.1-0.1,0.3-0.1,0.3C174.2,75.2,174,75.2,174,75.2L174,75.2z M174.2,76.8c-0.3-0.1-0.4-0.6-0.3-0.9c0-0.1,0-0.3,0.1-0.4
	c0.3,0,0.4,0.3,0.4,0.4c0,0.1,0,0.4,0,0.6C174.5,76.7,174.3,76.8,174.2,76.8L174.2,76.8L174.2,76.8z M174.5,72.8L174.5,72.8
	c-0.3-0.1-0.3-0.3,0-0.6c0.1-0.1,0.3-0.3,0.3-0.6c0.1-0.1,0.1-0.3,0.1-0.4c0-0.1-0.1-0.1-0.1-0.3c0-0.1,0-0.3,0-0.4
	c0-0.1,0.1-0.1,0.1-0.3c0-0.7,0-1.3-0.1-2c0-0.3-0.1-0.4-0.3-0.7v-0.1l-0.1-0.1c-0.1-0.1-0.1-0.3,0-0.4h0.1c0.1,0,0.1,0.1,0.3,0.1
	c0.3,0.3,0.4,0.6,0.6,1c0.1,0.3,0.1,0.4,0.1,0.7c0.1,0.3,0.1,0.7,0.3,1c0,0.1,0.1,0.3,0.1,0.4c0.1,0.6,0.1,1.2,0.1,1.6
	c0,0.1-0.1,0.4-0.1,0.6c-0.1,0.3-0.4,0.6-0.7,0.6c-0.1,0-0.1,0.1-0.3,0.1h-0.1L174.5,72.8z M173.2,72c-0.1,0-0.3-0.1-0.4-0.4
	l-0.1-0.1c-0.3-0.3-0.4-0.6-0.4-1c0.1-0.3,0.1-0.4,0.3-0.7c0-0.1,0-0.4,0-0.6c0-0.3,0.1-0.6,0.1-0.7c0-0.3,0.4-0.4,0.4-0.7
	c0-0.1-0.1-0.4-0.1-0.6c0-0.1,0-0.3-0.1-0.4c0-0.1,0-0.3,0-0.4c0-0.1,0.1-0.1,0.3,0l0,0l0,0c0.1,0.1,0.1,0.4,0.3,0.7
	c0.1,0.1,0.3,0.3,0.3,0.6c0,0.1,0,0.4,0.1,0.6c0,0.1,0.1,0.4,0.3,0.6c0,0.1,0.1,0.1,0.1,0.3c0.1,0.6,0.1,1,0.1,1.6
	c0,0.1,0,0.4-0.1,0.6c-0.1,0.4-0.3,0.7-0.7,0.9C173.3,71.9,173.2,71.9,173.2,72L173.2,72L173.2,72z M182.8,70.7
	c-0.1,0-0.3,0-0.4-0.1s-0.3-0.3-0.4-0.4c-0.3-0.1-0.3-0.4-0.1-0.7c0.1-0.3,0.4-0.3,0.6-0.3l0,0c0.4,0.1,0.9,0.4,1,0.9
	c0,0.3,0.1,0.4-0.1,0.6C183,70.7,182.9,70.7,182.8,70.7L182.8,70.7L182.8,70.7z M168.5,103.6c-0.3,0-0.4-0.1-0.6-0.4l0,0
	c-0.1-0.7-0.1-1.3,0-2c0-0.1,0-0.3,0-0.4s0.1-0.6,0.1-0.7c0.1-0.6,0-1.3-0.4-1.7c-0.1-0.3-0.1-0.4-0.3-0.7c-0.1-0.3-0.3-0.6-0.3-0.9
	c-0.1-0.3-0.1-0.7,0-1c0.1-0.4,0.4-0.9,0.9-1.3c0.3-0.1,0.6-0.3,0.7,0.1c0,0.3,0,0.7,0,1.2c0.1,0.1,0.3,0.4,0.6,1c0,0.1,0,0.3,0,0.4
	c0,0.3-0.1,0.4-0.1,0.7c0.1,0.3,0.3,0.6,0.6,0.7c0.1,0.3,0.1,0.7,0.1,1c0,0.1,0,0.4-0.1,0.6c-0.1,0.1-0.1,0.3-0.1,0.4
	c0,0.1,0,0.3,0.1,0.3s0.1-0.3,0.3-0.4c0.1-0.1,0.3-0.4,0.4-0.7c0.1-0.1,0.1-0.4,0.1-0.6c0-0.1,0-0.3,0-0.4c-0.1-0.3-0.3-0.4-0.6-0.7
	c-0.1-0.1-0.1-0.3-0.1-0.4c0-0.1,0-0.1,0-0.3s0-0.3,0.1-0.4c0-0.1,0-0.3,0-0.3c-0.1-0.6,0-1.2-0.3-1.7c-0.1-0.3-0.3-0.4-0.3-0.7
	s0-0.3,0-0.4c-0.1-0.4-0.3,0-0.6,0.1c-0.3,0.1-0.3,0-0.4-0.1c0-0.1,0-0.3,0-0.3c0-0.3,0.1-0.7,0.6-0.9c0.3-0.1,0.4-0.3,0.6-0.6
	c0-0.3,0-0.7,0.1-1c0.1-0.1,0.4,0,0.4,0.1c0,0.1,0.1,2,0.1,2.3s0,0.6,0.1,1c0,0.1,0.1,0.4,0.1,0.6c0.1,0.7,0.3,1.6,0.4,2.3
	c0,0.3,0.1,0.3,0.1,0.6c0.1,0.6,0.1,1.2,0.1,1.6c-0.1,0.3-0.3,0.6-0.6,0.9c-0.1,0.1-0.1,0.4-0.1,0.6c0,0.3-0.1,0.4-0.1,0.7
	c0,0.1-0.1,0.3-0.3,0.4c-0.4,0.4-0.7,0.9-1.2,1.3C168.9,103.6,168.7,103.6,168.5,103.6L168.5,103.6L168.5,103.6z M170.5,105.2
	c-0.4-0.1-0.3-0.4-0.4-0.7c-0.1-0.1-0.3-0.4-0.3-0.6c-0.1-0.4,0-0.9,0.3-1c0,0,0,0,0.1,0h0.1c0.3,0.1,0.6,0.3,0.6,0.6v0.1
	c0.1,0.3,0.3,0.6,0.3,0.9c0,0.1,0,0.3-0.1,0.4c-0.1,0.1-0.3,0.3-0.4,0.4C170.7,105.2,170.7,105.2,170.5,105.2L170.5,105.2
	L170.5,105.2z M168.7,107.3c-0.3-0.1-0.4-0.3-0.3-0.6c0.1-0.3,0.3-0.4,0.4-0.6V106c0-0.3,0.1-0.6,0.1-0.9c0-0.1,0-0.3,0-0.4
	c0-0.1-0.1-0.3,0.1-0.4c0.1,0,0.4,0,0.6,0.1l0.1,0.1c0,0.3,0,0.7,0.1,1c0.1,0,0.3,0.1,0.4,0.3c0,0.1,0,0.3-0.1,0.4
	c-0.3,0.3-0.4,0.6-0.7,0.7c-0.1,0.1-0.3,0.1-0.4,0.1C168.8,107.3,168.7,107.3,168.7,107.3L168.7,107.3L168.7,107.3z M153.5,110.5
	c-0.6-0.3-1.2-0.6-1.6-1c-0.1-0.1-0.1-0.3-0.1-0.6c0-0.1,0-0.1,0-0.3c0-0.1-0.1-0.3-0.1-0.4c0,0,0,0-0.1,0s-0.4,0.1-0.7,0.1
	c-0.3,0-0.4,0-0.6-0.3c0-0.1-0.1-0.1-0.1-0.3c0-0.1,0-0.1,0-0.3c0-1.2,0-2.3-0.3-3.3c-0.1-0.4-0.1-0.9-0.1-1.3s-0.3-1.2-0.4-1.6
	c-0.1-0.1-0.1-0.4,0-0.6c0-0.1,0.1-0.1,0.3-0.1l0,0c0.1,0,0.3,0.1,0.4,0.1c0.3,0.1,0.6,0.3,0.9,0.3c0.3,0,0.4,0.3,0.6,0.6
	c0.1,0.7,0.1,1.6,0.1,2.3c0,0.3,0,0.6,0.1,0.9c0,0.3,0.1,0.4,0.3,0.7c0.3,0.4,0.4,0.7,0.9,1c0.1,0.3,0.1,0.6,0.1,0.9
	c0,0.1,0,0.1,0.1,0.1c0,0.1,0.3,0.1,0.4,0.4l0.1,0.3c0,0.1,0.1,0.1,0.3,0.3c0.1,0.1,0.3,0.1,0.4,0.1c0.3-0.1,0.6-0.3,0.7-0.4
	c0.3,0,0.4,0,0.7,0c0.1,0,0.3,0.1,0.4,0.3c0,0.1,0,0.3,0,0.4c-0.3,0.4-0.6,0.7-0.9,1.2s-0.1,0.3-0.3,0.6c-0.3,0.3-0.7,0.4-1,0.1l0,0
	L153.5,110.5z M155.7,112c-0.4-0.1-0.9-0.3-1.2-0.6c-0.3-0.3-0.1-0.6,0.1-0.9c0.1-0.1,0.3-0.4,0.4-0.6c0.1-0.1,0.4-0.4,0.6-0.6
	c0.3-0.3,0.6-0.3,0.9,0l0,0c0.1,0.1,0.3,0.4,0.3,0.7c0,0.1,0,0.4,0,0.6s-0.1,0.3-0.1,0.6c0,0.1,0,0.4-0.1,0.6
	C156.5,112,156,112,155.7,112L155.7,112L155.7,112z M162.7,116.1c-0.1-0.6,0-1.2,0.1-1.7c0-0.1,0.1-0.3,0.3-0.3
	c0.1-0.1,0.3-0.1,0.6,0c0.4,0.3,0.4,0.6,0.9,0.4c0.1,0,0.4-0.3,0.1-0.4c-0.3-0.1-0.6-0.1-0.9-0.3s-0.6-0.4-0.4-0.7
	c0.1-0.3,0.4-0.4,0.7-0.7c0.3-0.3,0.3-0.6,0.3-0.9c-0.1-0.4-0.1-0.9,0-1.2c0.1-0.1,0.1-0.3,0.1-0.4c0-0.3,0.1-0.6,0.3-0.7
	c0.3-0.3,0.6-0.7,0.7-1.2c0.1-0.3,0.4-0.6,0.6-0.9c0-0.3,0.1-0.4,0.3-0.7c0.3-0.3,0.4,0,0.7,0.1c0.1,0.1,0.1,0.3,0.3,0.4
	c0.3,0.1,0.4,0.3,0.6,0.6c0,0.1,0,0.1,0,0.3s-0.1,0.3-0.1,0.4c-0.3,0.4-0.4,0.7-0.7,1.2c-0.1,0.3-0.1,0.4-0.1,0.7c0,0.4,0,0.7,0,1
	s-0.1,0.6-0.4,0.6c-0.3,0.1-0.6,0.4-0.7,0.7c-0.1,0.1-0.1,0.3-0.1,0.4c0.3,0.4,0.4,1.2,0.4,1.7c-0.3,0.3-0.6,0.6-0.9,0.6l-0.6,0.3
	l-1,0.6C163.3,116.2,162.8,116.5,162.7,116.1L162.7,116.1L162.7,116.1z M165.6,110.4c-0.1,0-0.1-0.1-0.1-0.1c0-0.1,0-0.3,0.3-0.3
	c0.1,0,0.3,0,0.4,0s0.3,0.1,0.3,0.3c0,0.1,0,0.1-0.1,0.3C166.2,110.5,165.9,110.5,165.6,110.4L165.6,110.4L165.6,110.4L165.6,110.4z
	 M175.8,112.1c-0.1,0-0.3-0.1-0.3-0.1c0-0.1,0-0.1,0-0.3c0-0.1,0.1-0.4,0.3-0.6c0-0.3,0.1-0.4,0.1-0.7c0.1-0.1,0.4-0.3,0.6-0.1
	c0.1,0.1,0.4,0.3,0.7,0.3c0.3,0,0.7-0.1,0.9,0.3c0.1,0.3,0,0.7-0.3,0.9c-0.3,0.1-0.6,0.3-0.9,0.3h-0.3
	C176.1,112.1,175.9,112.1,175.8,112.1L175.8,112.1L175.8,112.1z M154.9,82.8c0-0.1,0-0.3-0.1-0.4c0-0.3,0.1-0.7,0.4-0.4
	c0.1,0.1,0.1,0.4,0,0.7C155.1,82.9,155,83.1,154.9,82.8L154.9,82.8L154.9,82.8z M155.3,90.1c0.1-0.3,0.3-0.7,0.4-1v-0.1
	c0-0.1,0-0.4-0.1-0.6c0-0.3,0.3-0.4,0.4-0.3s0.3,0.3,0.3,0.6c0,0,0,0,0,0.1c-0.3,0.6-0.6,1.2-0.9,1.6
	C155.1,90.6,155,90.5,155.3,90.1L155.3,90.1L155.3,90.1z M150.5,99.4c-0.1,0-0.1,0-0.3-0.1c-0.1,0-0.3-0.1-0.1-0.3
	c0.1,0,0.3-0.1,0.4-0.1c0.1-0.1,0.1-0.3,0.1-0.4c0-0.3,0-0.3,0.1-0.4s0-0.6,0-0.7c0.1-0.6,0.4-0.4,0.3,0.1c0,0.4,0,1-0.1,1.5
	C150.9,98.9,150.8,99.2,150.5,99.4L150.5,99.4L150.5,99.4z M151.2,94.6c-0.1,0-0.4-0.1-0.6-0.1v-0.1c0-0.1,0-0.1,0.1-0.3
	c0.3-0.3,0.3-0.1,0.6,0.1c0,0.1,0.1,0.1,0.1,0.1s0.3,0,0.3,0.1C151.5,94.6,151.4,94.7,151.2,94.6L151.2,94.6L151.2,94.6z
	 M146.1,58.8c0-0.1,0-0.1,0-0.3c0.4-0.6,0.7-1.2,0.9-1.3c0-0.1,0.1-0.1,0.1-0.3c0,0,0-0.1,0-0.3l0,0c-0.1,0-0.3,0-0.3,0.1
	c-0.3,0.4-0.4,0.9-0.7,1.2c0,0.1-0.1,0.1-0.1,0.1c-0.1,0.1-0.4,0.1-0.6,0c-0.3-0.1-0.9-0.7-0.7-1s0.6,0.1,0.7,0.1
	c0.3,0,0.4-0.1,0.6-0.4c0.1-0.1,0.1-0.4,0.3-0.6c0-0.1,0-0.3-0.1-0.4c-0.1,0-0.4,0.1-0.6,0.3c-0.3,0-0.4,0.1-0.7,0
	c-0.3,0.1-0.4,0.3-0.6,0.6c-0.1,0.1-0.3,0.1-0.6,0.1c-0.1,0-0.1-0.1-0.1-0.1c0-0.4,0.1-0.7,0.4-1c0.1-0.1,0.1-0.3,0.1-0.4
	c0-0.3,0.1-0.6,0.1-0.9c0.1-0.3,0.4-0.6,0.9-0.6c0.3-0.1,0.4-0.4,0.7-0.7c0.3-0.3,0.7-0.6,1-0.9c0.3-0.3,0.1-0.3,0.4-0.4
	c0.1-0.1,0.3-0.1,0.4,0c0.1,0,0.1,0.1,0.1,0.1c0.4,0.6,0.9,1.2,1,1.9c0.1,0.4,0.1,0.3,0.1,0.6c0,0.4,0,0.7,0,1.2
	c0,0.3,0,0.6-0.1,0.7c-0.3,0.6-0.7,1.2-1.3,1.6c0,0,0,0-0.4,0.4l-0.3,0.3C146.4,59,146.1,59.1,146.1,58.8L146.1,58.8L146.1,58.8z
	 M158.1,44.6c-0.1,0-0.1,0-0.3-0.1c-0.1-0.3-0.1-0.7,0-1.2c0-0.1,0-0.3,0.1-0.4s0.3-0.1,0.4,0c0,0.1,0.1,0.1,0.1,0.3
	c0.1,0.3,0.4,0.7,0.6,1v0.1c0,0,0,0.1-0.1,0.1C158.6,44.6,158.5,44.6,158.1,44.6L158.1,44.6L158.1,44.6z M149.2,42
	c-0.3,0-0.4-0.3-0.4-0.6c0-0.3,0-0.4,0.4-0.3c0.1,0,0.4,0.1,0.4,0.4C149.5,41.8,149.5,42,149.2,42L149.2,42L149.2,42z M149,42.8
	c-0.3,0-0.6-0.1-0.4-0.6c0.1-0.1,0.4-0.3,0.7,0c0.1,0,0.1,0.1,0.1,0.1C149.3,42.7,149.3,42.8,149,42.8L149,42.8L149,42.8z M154,45.9
	c-0.1,0-0.3-0.1-0.3-0.1c-0.1-0.1-0.1-0.4,0-0.6l0,0c0.1-0.3,0.3-0.4,0.6-0.6c0.1-0.1,0.3-0.3,0.4-0.4s0.4-0.1,0.6,0v0.1
	c0,0.4-0.1,1-0.4,1.3c-0.1,0.1-0.3,0.3-0.4,0.4C154.1,45.9,154,45.9,154,45.9L154,45.9L154,45.9z M164.2,49.7c-0.6-0.3-1-0.9-1-1.6
	v-0.1c0.1-0.1,0.3-0.4,0.4-0.6c0.6-0.4,1.2-0.7,1.9-1l0,0c0.4-0.1,0.9-0.4,1.3-0.6c0.4-0.1,1,0,0.9-0.4c-0.1-0.4-0.4-0.3-0.3-0.7
	c0-0.1,0.1-0.3,0.3-0.3c0.1-0.1,0.3-0.1,0.4-0.3c0.4-0.1,1-0.3,1.5-0.4c0.3-0.1,0.6-0.3,0.9-0.1c0.1,0.1,0.1,0.1,0.3,0.3l0.1,0.1
	c0.4,0.9,0.6,1.7,0.4,2.8c0,0.1-0.1,0.3-0.1,0.4c-0.3,0.3-0.7,0.4-1.2,0.4c-0.3,0-0.6,0.1-0.7,0.3c-0.3,0.1-0.4,0.3-0.6,0.4h-0.1
	c-0.4,0.1-0.7,0.4-1.2,0.6c-0.4,0.1-0.9,0.4-1.3,0.6c-0.3,0-0.6,0-0.9,0c-0.1,0-0.3,0.1-0.4,0.1C164.4,49.5,164.3,49.5,164.2,49.7
	L164.2,49.7L164.2,49.7z M157,35.1c-0.1,0-0.1,0-0.3-0.1l0,0c0-0.1,0.1-0.1,0.1-0.1c0.1,0,0.1,0,0.3-0.1c0.1-0.1,0.3-0.1,0.6-0.1
	l0.1,0.1v0.1c-0.1,0.1-0.3,0.3-0.4,0.3C157.3,35.1,157.2,35.1,157,35.1L157,35.1L157,35.1z M155.3,47.2c-0.1,0-0.3,0-0.3-0.1
	c-0.4-0.3-0.9-0.7-1.5-1c-0.3-0.1-0.6-0.3-0.7-0.6c-0.1-0.1-0.1-0.3-0.1-0.4v-0.1c-0.4-0.4-0.7-0.7-1.2-1.2
	c-0.1-0.1-0.1-0.1-0.1-0.3c-0.1-0.3-0.3-0.6-0.4-0.9c0-0.1,0-0.4,0-0.6c0-0.6,0.1-1,0.4-1.5c0.3-0.4,0.7-0.7,1.2-0.9
	c0.3,0,0.4,0,0.7,0c0.1,0,0.1-0.1,0.3,0c0.1,0.1,0,0.1,0,0.3c0,0.1,0.6,0,0.7-0.1c0.1,0,0.1,0,0.3,0c0.1,0.1,0.3,0.4,0.4,0.6
	c0.4,0.1,0.7,0.4,1,0.7c0.1,0.3,0.3,0.6,0.4,0.7h0.1c0.1,0,0.4,0,0.6,0c0.3-0.1,0.6-0.3,0.9-0.7c0.1-0.1,0.3-0.4,0.4-0.6
	c0.1-0.1,0.3-0.1,0.4,0c0,0,0,0.1,0,0.3s-0.1,0.1-0.1,0.3c-0.1,0.1-0.1,0.3-0.1,0.4c0,0.3,0,0.6,0,0.9c0,0.3,0.1,0.4,0.3,0.6
	c0.1,0.1,0.3,0.3,0.4,0.6c0.1,0.1,0.1,0.3,0.3,0.4c0,0.3,0.1,0.6,0.1,0.9c0,0.1,0.1,0.1,0.3,0.1c0.1,0,0.1-0.1,0.1-0.3
	c0-0.3,0.1-0.4,0.3-0.7l0.1-0.1c0-0.1,0-0.1,0-0.3c-0.1-0.1,0-0.3,0.3-0.1c0.3,0,0.4,0,0.7,0c0.6-0.1,1-0.6,1-1.2c0-0.1,0-0.4,0-0.6
	c0-0.1,0-0.3,0-0.4c0-0.3,0.1-0.4,0.4-0.1c0,0,0.1,0.1,0.1,0.3c0,0.1,0,0.1,0,0.3c0,0.4,0,0.9-0.1,1.3c-0.1,0.4-0.3,0.9-0.6,1.2
	c0,0.1-0.1,0.1-0.3,0c-0.3-0.1-0.7-0.4-1-0.1c-0.1,0.3-0.3,0.6-0.3,0.9c0,0.1,0,0.1,0,0.3c0,0.1-0.1,0.3-0.1,0.4
	c0,0.3-0.3,0.6-0.6,0.7c-0.1,0-0.3,0-0.3-0.1l-0.3-0.1c-0.1-0.1-0.3-0.3-0.4-0.6c-0.1-0.1-0.1-0.3-0.4-0.1c-0.3,0.1-0.4,0.4-0.6,0.7
	c0,0.1,0,0.3,0,0.4v0.1l0,0c0-0.1-0.1-0.3-0.1-0.4s-0.1-0.3-0.3-0.3h-0.1c-0.3,0.1-0.4,0.1-0.6,0.3c-0.3,0.3-0.4,0.4-0.7,0.7
	C155.7,47.1,155.4,47.2,155.3,47.2L155.3,47.2L155.3,47.2z M156,38.5h-0.3c-0.1,0-0.3,0-0.3-0.1v-0.1c0.1-0.3,0.1-0.4,0.3-0.6
	c0.1,0,0.3,0,0.3,0l0,0C156.2,37.9,156.2,38.2,156,38.5L156,38.5C155.9,38.5,155.9,38.5,156,38.5L156,38.5L156,38.5z M160.7,64.6
	c-0.1,0-0.1-0.1-0.1-0.3c-0.1-0.4-0.3-0.9-0.6-1.5c-0.3-0.6,0-0.3-0.1-0.4c-0.1-0.1-0.1-0.4-0.3-0.7c0-0.1,0-0.1,0-0.3
	c0.1,0,0.1,0,0.3,0.1c0,0.1,0.1,0.3,0.1,0.4s0,0.3,0,0.4c0,0.1,0.1,0.3,0.1,0.4c0,0.1,0,0.3,0,0.3c0.1,0.4,0.3,0.7,0.4,1.2
	C160.8,64.5,160.7,64.6,160.7,64.6c-0.1,0-0.1,0-0.1,0l0,0H160.7z M158.3,57.8c-0.1-0.3-0.1-0.6-0.1-0.9v-0.1c0-0.1,0.1,0,0.3,0
	l0.1,0.1c0,0.3,0,0.4,0,0.7S158.5,58,158.3,57.8L158.3,57.8L158.3,57.8z M170.4,66.7C170.4,66.7,170.3,66.7,170.4,66.7
	c-0.1-0.1,0-0.1,0-0.3c0.1-0.1,0.1-0.3,0.3-0.3c0.1-0.3,0.3-0.4,0.4-0.7h0.1l0,0l0,0v0.1l0,0l0,0c0,0.1-0.1,0.4-0.3,0.6
	c0,0.1-0.1,0.3-0.3,0.4C170.5,66.7,170.5,66.7,170.4,66.7L170.4,66.7L170.4,66.7z M154.7,56.5c-0.3-0.1-0.1-0.3,0-0.6
	c0.4-0.6,1-1.2,1.3-1.9c0.1-0.3,0.3-0.6,0.4-0.9c0.1-0.3,0.3-0.6,0.3-0.9c0.1-0.3,0.3-0.3,0.3,0c0,0.1,0,0.3,0,0.4s-0.1,0.3-0.1,0.4
	c-0.1,0.6-0.4,1-0.7,1.5c-0.3,0.4-0.4,0.7-0.7,1.2c-0.1,0.3-0.3,0.4-0.6,0.6C154.9,56.5,154.9,56.5,154.7,56.5L154.7,56.5
	L154.7,56.5z M153,57.5c-0.3,0-0.1-0.3,0-0.4s0.3-0.3,0.4-0.3c0.3,0,0.6,0,0.4,0.3c0,0.1-0.1,0.4-0.4,0.4
	C153.3,57.5,153.1,57.5,153,57.5L153,57.5L153,57.5z M152.1,56.4h-0.1c0-0.1,0-0.3,0.1-0.4c0.3-0.3,0.6-0.6,0.9-0.9
	c0.4-0.3,0.4,0.1,0.3,0.4c-0.1,0.4-0.6,0.7-0.9,0.9H152.1L152.1,56.4L152.1,56.4z M151.8,54.8c0.3-0.4,0.7-0.9,1.3-1.2
	c0.3-0.1,0.4-0.1,0.3,0.1c-0.3,0.3-0.6,0.7-0.9,1c-0.1,0.1-0.1,0.1-0.3,0.1C152.1,55,151.7,55.2,151.8,54.8L151.8,54.8L151.8,54.8z
	 M151.1,53.2c0-0.3,0.1-0.6,0.4-0.7c0.1-0.1,0.4-0.3,0.6-0.1c0.1,0,0.3,0.1,0.4,0.3c0.1,0.3-0.3,0.3-0.4,0.3
	c-0.3,0.1-0.4,0.3-0.6,0.6l-0.1,0.1C150.8,53.7,150.9,53.3,151.1,53.2L151.1,53.2L151.1,53.2z M153.1,51.4c-0.1,0-0.3-0.1-0.4-0.1
	c-0.1-0.1-0.4-0.4-0.6-0.7c0-0.1,0-0.1,0-0.3c0.1-0.3,0.4-0.4,0.7-0.4h0.1l0.4,0.1c0.1,0,0.4,0,0.4,0.1s0,0.4-0.1,0.7
	c0,0.1,0,0.1-0.1,0.3C153.5,51.3,153.3,51.4,153.1,51.4L153.1,51.4L153.1,51.4z M154,52.7c-0.3,0,0-0.3,0-0.4s0.6-0.7,0.6-0.3
	C154.7,52.3,154.4,52.7,154,52.7L154,52.7L154,52.7L154,52.7z M155.1,50.5c0.1-0.1,0.1-0.3,0.3-0.4c0.1-0.1,0.3,0,0.3,0.1
	s-0.1,0.3-0.3,0.4C155.3,51,155,50.8,155.1,50.5L155.1,50.5L155.1,50.5z M156.3,49.7c-0.1,0-0.4-0.1-0.4-0.3c0,0,0,0,0-0.1
	s0.1-0.3,0.4-0.3c0.1,0,0.3,0.1,0.3,0.3l0,0l0,0C156.6,49.4,156.6,49.7,156.3,49.7C156.5,49.7,156.5,49.7,156.3,49.7L156.3,49.7
	L156.3,49.7z M156.2,51.7c-0.1,0-0.3-0.1-0.3-0.3c0-0.3,0.1-0.6,0.3-0.7c0.4-0.4,0.3,0,0.3,0.1S156.6,51.6,156.2,51.7L156.2,51.7
	L156.2,51.7z M156,48.2c-0.1,0-0.3-0.1-0.1-0.3c0.1-0.1,0.4,0,0.3,0.1C156.2,48.1,156,48.2,156,48.2L156,48.2L156,48.2z M155,48.2
	c-0.1,0-0.1,0-0.3-0.1c-0.3-0.3-0.7-0.4-1.2-0.6c-0.1,0-0.1-0.1-0.3-0.1c-0.4-0.1-0.9-0.3-1.3-0.6l-0.1-0.1c0-0.6,0.7,0,0.9,0
	c0.4,0.3,0.9,0.4,1.3,0.7c0.3,0.1,0.6,0.3,0.9,0.4c0.1,0,0.1,0.1,0.1,0.3C155.1,48.2,155,48.2,155,48.2L155,48.2L155,48.2L155,48.2z
	 M149.5,44c-0.4,0,0.1-0.6,0.3-0.4c0.1,0.1,0.1,0,0.1,0.1C149.9,43.9,149.6,44,149.5,44L149.5,44L149.5,44L149.5,44z M167.2,53
	c-0.3,0-0.6-0.4-0.9-0.4c-0.6,0-1.2,0-1.9,0.1c-0.3,0.1-0.7,0.3-1,0.4c-0.1,0-0.1,0-0.1-0.1c0.1-0.1,0.4-0.3,0.6-0.4
	c0.1,0,0.3-0.1,0.3-0.1c0.1-0.1,0.1-0.1,0.3-0.3c0.3-0.3,0.3-0.4,0.7-0.3c0.1,0,0.4,0.1,0.6,0.1c0.4,0,0.9,0,1.3,0
	c0.1,0,0.1,0,0.3-0.1c0.1-0.1,1.3-0.6,0.9,0c-0.1,0.4-0.4,0.7-0.7,1C167.4,53,167.4,53.2,167.2,53L167.2,53L167.2,53z M160.8,41.4
	c0-0.1,0-0.3,0-0.4s0.1-0.3,0.3-0.3c0,0,0.1,0,0.1,0.1c0.1,0,0.1,0.1,0.1,0.3c0,0.1-0.1,0.3-0.1,0.4C161.1,41.8,161,41.7,160.8,41.4
	L160.8,41.4L160.8,41.4z M161.1,39.8v-0.1c0,0,0-0.1,0.1-0.1c0.1-0.1,0.3,0,0.3,0.1s0,0.1,0,0.1C161.2,40.1,161,40.2,161.1,39.8
	L161.1,39.8L161.1,39.8z M155,71.8c0-0.1,0-0.1,0-0.3c0-0.1-0.1-0.1-0.1-0.3c-0.3-0.3-0.4-0.6-0.6-1c0-0.1,0-0.3,0-0.6
	c0.1-0.3,0.4,0,0.6,0.4c0.1,0.1,0.1,0.3,0.3,0.4c0,0.1,0.1,0.4,0.1,0.6c0,0.1,0,0.3,0,0.6c0,0.1-0.1,0.3-0.1,0.4
	C154.9,72.6,154.9,72.3,155,71.8L155,71.8L155,71.8z M167.5,92.2c-0.1,0-0.1,0-0.1-0.1c0-0.1,0.1-0.3,0.3-0.4c0-0.1,0.1-0.3,0.1-0.4
	c0-0.1,0-0.4,0-0.6c0.1-0.3,0.3-0.6,0.4-0.9c0-0.1,0.1-0.4,0.1-0.6c0-0.1,0-0.4,0.1-0.6c0.1-0.1,0-0.1,0-0.3c0-0.1,0.1-0.3,0.1-0.4
	c0-0.1,0-0.3,0-0.6c-0.1-0.1-0.1-0.3-0.1-0.4c0.1-0.3,0.1-0.6,0-0.7c-0.1-0.3-0.1-0.4-0.3-0.6c-0.1-0.3-0.1-0.4,0-0.6l0.4-0.3
	c0.4-0.3,0.7-0.6,1.2-1c0.1-0.1,0.1-0.3,0.3-0.4c0-0.3,0.3-0.6,0.6-0.6c0.3,0,0.1,0.4,0,0.6c0,0.1-0.1,0.1-0.1,0.3
	c-0.3,0.3-0.3,0.3-0.4,0.4c-0.1,0.3-0.1,0.4-0.1,0.7s-0.3,0.1-0.4,0.3s-0.3,0.3-0.3,0.6c0,0.1,0.1,0.3,0.1,0.3
	c0.1,0.3,0.1,0.6,0.3,0.9c0,0.1,0.1,0.3,0.1,0.4s0,0.4,0.1,0.7c0,0.3,0,0.7-0.3,0.9c0,0.1,0,0.1,0,0.4c0,0.3-0.1,0.4-0.1,0.6
	c0,0.3-0.1,0.4-0.3,0.7c-0.3,0.3-0.4,0.4-0.7,0.7c0,0.1,0,0.3,0,0.3c0,0.1-0.1,0.4-0.3,0.6C167.6,91.9,167.6,92.1,167.5,92.2
	L167.5,92.2L167.5,92.2z M166.3,85.4c-0.3,0-0.3-0.1-0.3-0.4c0-0.1,0-0.1,0.1-0.1c0.1-0.3,0.4-0.7,0.6-1c0-0.1,0.1-0.1,0.1-0.1
	c0.1-0.3,0.1-0.6,0.3-0.9c0.1-0.4,0.4-0.6,0.6-0.1c0,0.1,0,0.3,0,0.6c0,0.3-0.1,0.4-0.1,0.7c0,0.1-0.1,0.3-0.3,0.4
	c-0.1,0.1-0.4,0.3-0.6,0.6C166.8,85,166.6,85.3,166.3,85.4L166.3,85.4L166.3,85.4z M162.1,88.2l-0.3-0.3l0,0l0,0
	c-0.4-0.4-0.9-0.9-1.3-1.3c-0.1-0.1-0.3-0.4-0.4-0.6c-0.1-0.1-0.1-0.3-0.3-0.4c-0.1-0.1-0.3-0.3-0.3-0.4c0-0.6-0.1-1.2-0.1-1.6
	c-0.1-0.3-0.1-0.4-0.3-0.7c0-0.1-0.3-0.6,0-0.6c0.3,0.1,0.4,0.3,0.6,0.6c0,0.1,0,0.3,0,0.4s0.1,0.6,0.3,0.9c0.1,0.1,0.3,0.4,0.3,0.6
	c0,0.1,0,0.4,0.1,0.6c0.1,0.4,0.4,0.9,0.9,1.3c0.6,0.6,0.6,0.6,0.6,0.6c0.1,0.1,0.3,0.1,0.4,0c0-0.1,0.1-0.1,0-0.3s-0.3-0.4-0.1-0.7
	c0-0.1,0.1-0.3,0.1-0.4c0.1-0.1,0.4-0.3,0.6-0.3c0.1,0,0.3-0.1,0.4-0.1h0.1c0.4,0,0.9-0.3,1.2-0.7c0-0.1,0-0.3,0-0.4
	c0-0.3,0.1-0.6,0.4-0.7c0.1-0.1,0.3-0.3,0.4-0.6c-0.1-0.4-0.1-1,0-1.6c0-0.1,0.1-0.3,0.1-0.3c0.1-0.3,0.4-0.6,0.7-0.6
	c0.1,0,0.1,0.3,0.1,0.4c0,0.1-0.1,0.3-0.1,0.4c-0.3,0.4-0.4,0.9-0.6,1.3c0,0.1,0,0.1-0.1,0.3c0,0.3-0.1,0.6-0.1,0.9
	c0,0.4-0.3,0.9-0.6,1.2c-0.1,0-0.3,0.1-0.4,0.1c-0.3,0.1-0.4,0.4-0.7,0.6c0,0-0.1,0.1-0.3,0.1c-0.1,0-0.3,0-0.3,0
	c-0.1,0-0.3,0.1-0.4,0.3c-0.1,0.1-0.3,0.3-0.3,0.4c0,0.6,0,1.2,0.1,1.6C162.6,88.5,162.4,88.5,162.1,88.2L162.1,88.2L162.1,88.2z
	 M160.5,82.2c-0.3,0-0.3-0.4-0.3-0.7c0-0.1,0.1-0.4,0.1-0.6c0-0.3,0.3-0.6,0.4-0.7c0.1-0.1,0.4-0.1,0.6,0c-0.1,0.3-0.3,0.7-0.4,1
	c0,0.3,0,0.6-0.1,0.7C160.7,82.1,160.8,82.2,160.5,82.2L160.5,82.2L160.5,82.2z M156.6,80.8c-0.1,0-0.3-0.1-0.4-0.3
	c0-0.1-0.1-0.1-0.1-0.3c0-0.1,0.1-0.3,0.3-0.3l0,0l0,0c0.1,0,0.3,0.1,0.3,0.3c0.1,0.1,0.1,0.3,0,0.4
	C156.6,80.8,156.6,80.8,156.6,80.8L156.6,80.8L156.6,80.8z M161.7,79.3c-0.1,0-0.1,0-0.1-0.1V79c0.1,0,0.1,0,0.3,0l0,0
	C161.8,79,161.8,79.2,161.7,79.3C161.8,79.3,161.7,79.5,161.7,79.3L161.7,79.3L161.7,79.3z M162.7,78.7c-0.1,0-0.3-0.1-0.3-0.3v-0.1
	c0.3-0.3,0.4-0.6,0.7-0.9c0.1-0.3,0.4-0.6,0.7-0.9c0-0.1,0.1-0.1,0.1-0.3c0.1-0.3,0.1-0.7,0.1-1c0-0.4,0.1-0.7,0.3-1.2
	c0-0.1,0.1-0.3,0.1-0.3c0.1,0,0.1,0.1,0.1,0.3c0,0.1,0,0.3,0,0.4c0.1,0.3,0.1,0.6,0,0.9c0,0.3,0,0.4-0.1,0.7s-0.3,0.4-0.3,0.6
	s0,0.1,0,0.3c-0.1,0.4-0.4,0.7-0.9,0.9C163.1,78,163,78.4,162.7,78.7L162.7,78.7L162.7,78.7L162.7,78.7z M156.5,77.7
	c-0.1,0-0.3-0.1-0.3-0.1l0,0c0-0.1,0.1-0.3,0.1-0.4c0.1-0.3,0.3-0.3,0.4,0c0.1,0.1,0.1,0.3,0,0.4C156.7,77.6,156.6,77.7,156.5,77.7
	L156.5,77.7L156.5,77.7z M156.3,79.2C156.2,79.2,156.2,79,156.3,79.2c-0.1-0.1-0.3-0.4-0.3-0.6c0-0.1,0.1-0.3,0.1-0.3
	c0.1,0,0.3,0,0.3,0.3C156.6,78.7,156.5,78.9,156.3,79.2L156.3,79.2L156.3,79.2L156.3,79.2z M157.3,76.4c-0.4,0-0.3-0.3-0.1-0.6
	c0.1-0.1,0.1-0.1,0.3-0.3c0.1-0.1,0.3-0.1,0.4-0.3s0.3-0.4,0.4-0.6c0.1,0,0.1-0.1,0.3-0.3c0.1-0.3,0.3-0.7,0.4-0.9
	c0.3-0.3,0.7-0.4,1.2-0.7c0.1-0.1,0.3-0.3,0.3-0.4c0.3-0.4,0.7-0.7,1.2-0.9c0.3-0.1,0.4-0.3,0.7-0.4l0.1-0.1
	c0.1-0.1,0.1-0.1,0.3-0.3c0.1-0.3,0.1-0.4,0.3-0.6c0.1-0.1,0.3-0.3,0.4-0.4c0.1,0,0.1-0.1,0.1-0.3c0.1-0.1,0.3-0.4,0.3-0.6l0.3-0.6
	c0,0,0-0.1,0.1-0.1s0.1,0.1,0.1,0.3c0,0.1,0,0.1,0,0.3c0,0.1,0,0.3,0,0.4c0,0.3-0.1,0.6-0.3,0.7c-0.1,0.1-0.3,0.3-0.4,0.4l0,0
	c-0.3,0.4-0.4,0.7-0.7,1c-0.3,0.3-0.6,0.6-0.9,0.7c-0.9,0.3-1.6,0.9-2.2,1.7c-0.3,0.3-0.7,0.6-1.2,0.9c-0.3,0.3-0.4,0.7-0.6,1
	c-0.1,0.3-0.3,0.6-0.7,0.7l0,0L157.3,76.4z M161.7,69.9c-0.1,0-0.3-0.1-0.3-0.3c0,0,0,0,0-0.1c0-0.3,0.1-0.6,0.3-0.9
	c0.1-0.1,0.1-0.3,0.1-0.6s-0.1-0.7-0.1-1c0-0.1,0-0.3,0-0.3c0-0.1-0.1-0.3-0.3-0.4l-0.3-0.3c-0.1-0.1-0.1-0.3,0-0.4h0.1
	c0.1,0,0.1,0.1,0.3,0.1c0.3,0.3,0.4,0.6,0.6,0.9c0.1,0.3,0.1,0.4,0.1,0.7c0,0.1,0,0.3,0,0.4c0,0.1,0,0.1,0,0.3c0,0.1,0,0.3,0,0.6
	c0,0.3-0.1,0.3-0.1,0.6C162.3,69.4,162.1,69.9,161.7,69.9L161.7,69.9L161.7,69.9z M165.2,98.2c-0.3,0-0.7,0.1-0.9-0.1
	s0.4-0.3,0.7-0.4c0.3-0.3,0.6-0.6,0.6-1c0-0.1,0.1-0.4,0.3-0.3c0,0,0,0,0,0.1c0,0.3,0,0.4-0.1,0.7c0,0.1,0,0.4-0.1,0.6
	C165.5,98.1,165.3,98.2,165.2,98.2L165.2,98.2L165.2,98.2z"/>
<rect class="st0" width="349.3" height="143"/>
</svg>
