<?xml version="1.0" encoding="utf-8"?>
<!-- Generator: Adobe Illustrator 22.1.0, SVG Export Plug-In . SVG Version: 6.00 Build 0)  -->
<svg version="1.1" id="Layer_1" xmlns="http://www.w3.org/2000/svg" xmlns:xlink="http://www.w3.org/1999/xlink" x="0px" y="0px"
	 viewBox="0 0 500 463" style="enable-background:new 0 0 500 463;" xml:space="preserve">
<style type="text/css">
	.st0{fill:#5DBA2F;}
	.st1{fill:#5DBA2F;stroke:#5DBA2F;stroke-width:4;stroke-miterlimit:10;}
</style>
<g>
	<path class="st0" d="M306.2,264.1L231.6,296L81.3,231.7l80.1-34.2l64,64c1.8,1.8,4.1,2.6,6.4,2.6c2.3,0,4.6-0.9,6.4-2.6l64-64
		l80,34.2l18.5,7.4c4.6,1.8,9.8,0.8,13.3-2.7l6.4-6.4l39.9-37.2c2.2-2.1,3.2-5.1,2.7-8.1s-2.5-5.5-5.2-6.8L282.4,99.5V9.3
		c0-5-4-9-9-9h-83.1c-5,0-9,4-9,9v90.2L5.9,177.9c-2.8,1.2-4.7,3.8-5.2,6.8s0.5,6,2.8,8.1L45,231.5l-41.8,39
		c-2.2,2.1-3.2,5.1-2.7,8.1s2.5,5.5,5.2,6.8l43.5,19.5v75c0,3.6,2.2,6.9,5.5,8.3l173.5,74.1c1.1,0.5,2.3,0.7,3.6,0.7
		c1.2,0,2.4-0.2,3.5-0.7l53.4-22.8c4.6-2,6.7-7.3,4.8-11.9c-2-4.6-7.3-6.7-11.9-4.8l-40.8,17.4V327.7l33.4,33.6
		c1.7,1.7,4.1,2.7,6.4,2.7l0,0c0.9,0,1.5-0.7,1.5-1.6c-0.1-1.5-0.1-3-0.1-4.5c0-4.7,0.3-9.3,0.8-13.9l-0.2,0.1l-35-35.2l43.3-18.5
		l22.6-9.1c1-0.4,1.8-1.3,2.1-2.4l0,0C317.4,272.2,313.1,265.3,306.2,264.1L306.2,264.1z M282.4,119.3l155.5,69.6L403.3,221
		L316,183.7l3.9-3.9c1.9-1.9,3-4.5,2.8-7.1c-0.4-4.9-4.4-8.4-9-8.4h-31.2L282.4,119.3L282.4,119.3z M190.2,182.4c5,0,9-4,9-9v-155
		h29v84.2c0,4.5,3.2,8.6,7.7,9.2c5.6,0.8,10.4-3.5,10.4-8.9V18.4h18v154.9c0,5,4,9,9,9h18.4l-60,60l-60-60h18.5V182.4z M25.7,188.9
		l155.5-69.6v45H150c-3.7,0-7,2.2-8.3,5.6c-1.4,3.4-0.6,7.3,2,9.8l4,4L60.2,221L25.7,188.9z M25.5,274.5L60,242.3l155.9,66.6
		l-35,35.2L25.5,274.5z M222.6,440.3L67.2,373.9V313l112,50.2c1.2,0.5,2.4,0.8,3.7,0.8c2.4,0,4.7-0.9,6.4-2.7l33.4-33.6L222.6,440.3
		L222.6,440.3z"/>
	<g>
		<g>
			<g>
				<g>
					<path class="st1" d="M492.6,302.4c-3.4-3.7-8.2-5.9-13.7-6l-27.6-0.5v-0.3c0.1-4.1-1.5-8.2-4.3-10.9c-2.8-2.9-6.6-4.6-10.7-4.7
						l-49.8-0.8c-4.3-0.1-8.2,1.5-11,4.3c-2.9,2.8-4.6,6.6-4.7,10.7v0.3l-27.4-0.4c-5.5-0.1-10.3,2-13.9,5.6
						c-3.5,3.4-5.9,8.4-6,13.7l-1.4,82.7c-0.1,5.5,2,10.3,5.6,13.9c3.4,3.5,8.4,5.9,13.7,6l135.4,2.2c5.5,0.1,10.3-2,13.9-5.6
						c3.5-3.4,5.9-8.4,6-13.7l1.4-82.7C498.2,310.8,496.2,306,492.6,302.4z M488.2,398.8H488c0,3-1.3,5.6-3.3,7.6s-4.7,3.1-7.7,3
						l-135.4-2.2c-3,0-5.6-1.3-7.6-3.3s-3.1-4.7-3-7.7l1.4-82.7c0-3,1.3-5.6,3.3-7.6s4.7-3.1,7.7-3l32,0.5c2.5,0,4.5-1.9,4.6-4.4
						l0.1-4.8c0-1.8,0.7-3.5,1.9-4.6c1.2-1.1,2.9-1.8,4.7-1.7l49.6,0.8c1.8,0,3.5,0.7,4.6,1.9c1.1,1.2,1.8,2.9,1.7,4.7l-0.1,4.8
						c0,2.5,1.9,4.5,4.4,4.6l32,0.5c3,0,5.6,1.3,7.6,3.3s3.1,4.7,3,7.7L488.2,398.8z"/>
					<path class="st1" d="M410.9,315.4c-11.3-0.2-21.7,4.3-29.1,11.5c-7.6,7.3-12.2,17.4-12.4,28.7c-0.2,11.3,4.3,21.7,11.5,29.1
						c7.3,7.6,17.4,12.2,28.7,12.4s21.7-4.3,29.1-11.5c7.6-7.3,12.2-17.4,12.4-28.7c0.2-11.3-4.3-21.7-11.5-29.1
						S422.1,315.5,410.9,315.4z M432.4,379.3c-5.9,5.5-13.9,9.1-22.7,8.9s-16.7-3.9-22.4-9.7c-5.7-5.9-9.1-13.9-8.9-22.7
						s3.9-16.7,9.7-22.4c5.9-5.7,13.9-9.1,22.7-8.9c8.8,0.1,16.7,3.9,22.4,9.7c5.7,5.9,9.1,13.9,8.9,22.7
						C442.1,365.7,438.3,373.6,432.4,379.3z"/>
					<circle class="st1" cx="469.8" cy="324.3" r="8.1"/>
				</g>
			</g>
		</g>
	</g>
</g>
</svg>
