<svg id="Layer_1" data-name="Layer 1" xmlns="http://www.w3.org/2000/svg" xmlns:xlink="http://www.w3.org/1999/xlink" viewBox="0 0 2047 1315.29"><defs><style>.cls-1,.cls-10,.cls-5,.cls-9{fill:none;}.cls-2{clip-path:url(#clip-path);}.cls-17,.cls-3{fill:#fff;}.cls-4,.cls-6{fill:#6c63ff;}.cls-4,.cls-8{opacity:0.1;}.cls-16,.cls-17,.cls-4,.cls-7,.cls-8{isolation:isolate;}.cls-5{stroke:#535461;}.cls-10,.cls-5,.cls-9{stroke-miterlimit:10;stroke-width:2px;}.cls-7{opacity:0.25;}.cls-10,.cls-9{stroke:#7acc44;}.cls-10{stroke-dasharray:12.11 12.11;}.cls-11{fill:#3f3d56;}.cls-12{fill:#e6e6e6;}.cls-13{fill:#5dba2f;}.cls-14{fill:#ffb8b8;}.cls-15{fill:#2f2e41;}.cls-17{font-size:20px;font-family:Montserrat-ExtraBold, Montserrat;font-weight:700;}.cls-18{letter-spacing:-0.01em;}.cls-19{letter-spacing:0em;}.cls-20{letter-spacing:-0.02em;}.cls-21{fill:#447f1d;}.cls-22{fill:#7acc44;}.cls-23{fill:#56a528;}</style><clipPath id="clip-path"><rect class="cls-1" width="2047" height="1646"/></clipPath></defs><title>smart-service_new</title><g class="cls-2"><g id="Artboard_1" data-name="Artboard 1"><rect class="cls-3" width="2047" height="1646"/><g id="Group_25" data-name="Group 25"><g id="Group_24" data-name="Group 24"><path id="Path_57" data-name="Path 57" class="cls-4" d="M1095.82,254.25c-104.33-3-203.68-31.06-298.49-61.75S608.4,127.86,506.58,111.61C441.1,101.15,366.21,99.67,313.44,128.9c-50.78,28.13-67.18,76.7-76,121.77-6.65,33.9-10.55,69.59,7.64,101.32,12.58,22,35,40.55,50.55,61.65,53.93,73.44,15.82,164-42.64,235.69C225.57,683,193.76,715.06,172.6,750.86s-30.92,76.85-12.44,113.33c18.35,36.16,62.07,63.38,109.45,82.51,96.2,38.84,209.58,50,320.13,56.26,244.71,13.93,490.74,7.86,736.12,1.86,90.8-2.24,182-4.5,271.35-16.2C1646.81,982.13,1698,971.83,1734,947c45.72-31.57,57-85,26.41-124.63C1709,755.9,1567,739.41,1531,668.14c-19.78-39.23.53-82.94,29.26-119.32,61.63-78.05,165-146.53,170.39-235.74,3.72-61.32-45.93-122.64-122.72-151.63-80.48-30.39-192.1-26.57-251.57,23.74C1295.37,237,1187.92,257,1095.82,254.25Z"/><path id="Path_58" data-name="Path 58" class="cls-5" d="M416.81,1321.64s-20.28-114.92-95.56-171.87c-31.59-23.9-54.7-56.4-64.8-93.41a281.56,281.56,0,0,1-9.08-53.61"/><path id="Path_59" data-name="Path 59" class="cls-6" d="M200.16,966.58c6.29,12.31,48.32,37.23,48.32,37.23s5.28-46.55-1-58.88-22-17.47-35.1-11.49S193.83,954.26,200.16,966.58Z"/><path id="Path_60" data-name="Path 60" class="cls-6" d="M196.16,1052.73c12.42,7.09,62,6.46,62,6.46s-22.38-41.79-34.75-48.88-28.55-3.35-36.07,8.36S183.75,1045.64,196.16,1052.73Z"/><path id="Path_61" data-name="Path 61" class="cls-6" d="M257.81,1168.64c14.5.2,57-24,57-24s-41.65-25.41-56.16-25.63-26.45,10.73-26.73,24.42S243.29,1168.39,257.81,1168.64Z"/><path id="Path_62" data-name="Path 62" class="cls-6" d="M325.35,1246.36c14.25,2.53,60.44-14.55,60.44-14.55s-36.51-31.73-50.74-34.21-28,6.29-30.66,19.81S311.09,1243.84,325.35,1246.36Z"/><path id="Path_63" data-name="Path 63" class="cls-6" d="M309,1038.85c-5,12.87-44,41.74-44,41.74s-10.34-45.79-5.39-58.67,20-19.52,33.66-14.85S314,1026,309,1038.85Z"/><path id="Path_64" data-name="Path 64" class="cls-6" d="M386.8,1130.73c-8.8,10.9-55.22,27.41-55.22,27.41s4.72-46.62,13.46-57.5a27.32,27.32,0,0,1,36.82-4.72,23.9,23.9,0,0,1,6.12,33.24C387.6,1129.7,387.21,1130.22,386.8,1130.73Z"/><path id="Path_65" data-name="Path 65" class="cls-6" d="M449.4,1229.83c-6.73,12.14-49.51,35.82-49.51,35.82s-3.76-46.68,3-58.82,22.6-16.82,35.46-10.47S456.12,1217.7,449.4,1229.83Z"/><path id="Path_66" data-name="Path 66" class="cls-7" d="M200.16,966.58c6.29,12.31,48.32,37.23,48.32,37.23s5.28-46.55-1-58.88-22-17.47-35.1-11.49S193.83,954.26,200.16,966.58Z"/><path id="Path_67" data-name="Path 67" class="cls-7" d="M196.16,1052.73c12.42,7.09,62,6.46,62,6.46s-22.38-41.79-34.75-48.88-28.55-3.35-36.07,8.36S183.75,1045.64,196.16,1052.73Z"/><path id="Path_68" data-name="Path 68" class="cls-7" d="M257.81,1168.64c14.5.2,57-24,57-24s-41.65-25.41-56.16-25.63-26.45,10.73-26.73,24.42S243.29,1168.39,257.81,1168.64Z"/><path id="Path_69" data-name="Path 69" class="cls-7" d="M325.35,1246.36c14.25,2.53,60.44-14.55,60.44-14.55s-36.51-31.73-50.74-34.21-28,6.29-30.66,19.81S311.09,1243.84,325.35,1246.36Z"/><path id="Path_70" data-name="Path 70" class="cls-7" d="M309,1038.85c-5,12.87-44,41.74-44,41.74s-10.34-45.79-5.39-58.67,20-19.52,33.66-14.85S314,1026,309,1038.85Z"/><path id="Path_71" data-name="Path 71" class="cls-7" d="M386.8,1130.73c-8.8,10.9-55.22,27.41-55.22,27.41s4.72-46.62,13.46-57.5a27.32,27.32,0,0,1,36.82-4.72,23.9,23.9,0,0,1,6.12,33.24C387.6,1129.7,387.21,1130.22,386.8,1130.73Z"/><path id="Path_72" data-name="Path 72" class="cls-7" d="M449.4,1229.83c-6.73,12.14-49.51,35.82-49.51,35.82s-3.76-46.68,3-58.82,22.6-16.82,35.46-10.47S456.12,1217.7,449.4,1229.83Z"/><path id="Path_73" data-name="Path 73" class="cls-5" d="M414.27,1318.62s30.77-112.83-13.6-193.71c-18.62-33.93-25.8-72.48-19.14-110.18a282.75,282.75,0,0,1,14.7-52.49"/><path id="Path_74" data-name="Path 74" class="cls-6" d="M368.59,911.13c.5,13.68,28.19,52.53,28.19,52.53s24.81-40.55,24.31-54.25-12.66-24.4-27.16-23.93S368.07,897.43,368.59,911.13Z"/><path id="Path_75" data-name="Path 75" class="cls-6" d="M328,988.36c8.3,11.23,53.9,29.62,53.9,29.62s-2.52-46.76-10.82-58a27.29,27.29,0,0,0-36.57-6.15,24,24,0,0,0-7.54,33C327.25,987.36,327.6,987.87,328,988.36Z"/><path id="Path_76" data-name="Path 76" class="cls-6" d="M334.57,1117.87c13.17,5.74,62.38-.11,62.38-.11s-27.18-39.18-40.36-44.92-28.77-.32-34.85,12.12S321.41,1112.13,334.57,1117.87Z"/><path id="Path_77" data-name="Path 77" class="cls-6" d="M363,1214.8c12,7.77,61.5,9.83,61.5,9.83s-19.78-42.94-31.73-50.69a27.24,27.24,0,0,0-36.52,6.29,24,24,0,0,0,5.11,33.47h0C361.84,1214.09,362.39,1214.46,363,1214.8Z"/><path id="Path_78" data-name="Path 78" class="cls-6" d="M437.1,1018.85c-10.07,9.87-58.18,21.33-58.18,21.33s10.2-45.83,20.25-55.7a27.38,27.38,0,0,1,37.15-.7,23.83,23.83,0,0,1,2.14,33.64h0C438,1017.92,437.57,1018.39,437.1,1018.85Z"/><path id="Path_79" data-name="Path 79" class="cls-6" d="M468.7,1132.6c-12.72,6.59-62.23,3.93-62.23,3.93s24.26-40.88,37-47.42,28.69-2.18,35.66,9.83S481.48,1126,468.7,1132.6Z"/><path id="Path_80" data-name="Path 80" class="cls-6" d="M483.46,1247.16c-11.37,8.52-60.64,13.8-60.64,13.8s16.6-44.13,28-52.66a27.34,27.34,0,0,1,36.9,4A23.89,23.89,0,0,1,485,1246h0C484.48,1246.39,484,1246.79,483.46,1247.16Z"/><path id="Path_81" data-name="Path 81" class="cls-8" d="M1657,605.06s-19.52,14.44-15.34,19.08S1657,605.06,1657,605.06Z"/><path id="Path_82" data-name="Path 82" class="cls-8" d="M1657.92,664.62s36.29-11.63,40,0Z"/><g id="Group_22" data-name="Group 22"><g id="Group_21" data-name="Group 21"><path id="Path_91" data-name="Path 91" class="cls-9" d="M1685.23,436.67l-3.6,6.25"/><path id="Path_92" data-name="Path 92" class="cls-10" d="M1673.82,455.17c-17,26.06-50.57,71.34-83.72,82.15C1543,552.58,1464,546,1424.46,574.08,1390.71,598,1373.78,637,1371,666.69"/><path id="Path_93" data-name="Path 93" class="cls-9" d="M1370.65,673.9c0,2.4,0,4.81.24,7.21"/></g></g><ellipse id="Ellipse_1" data-name="Ellipse 1" class="cls-4" cx="1110" cy="1302.13" rx="418.7" ry="13.31"/><path id="Path_83" data-name="Path 83" class="cls-11" d="M1407.79,392.33h-6.28V220.09a99.69,99.69,0,0,0-99.69-99.68H936.91a99.68,99.68,0,0,0-99.69,99.68h0V1165a99.68,99.68,0,0,0,99.69,99.68h364.91a99.69,99.69,0,0,0,99.69-99.68h0V514.93h6.28Z"/><path id="Path_84" data-name="Path 84" class="cls-3" d="M1305.84,146.34h-47.63a35.38,35.38,0,0,1-32.75,48.73H1016.41a35.37,35.37,0,0,1-32.75-48.73H939.18a74.45,74.45,0,0,0-74.45,74.45h0v943.53a74.44,74.44,0,0,0,74.45,74.44h366.66a74.44,74.44,0,0,0,74.44-74.44h0V220.79a74.43,74.43,0,0,0-74.44-74.45Z"/><rect id="Rectangle_8" data-name="Rectangle 8" class="cls-12" x="908.66" y="322.05" width="213.21" height="364.23"/><rect id="Rectangle_9" data-name="Rectangle 9" class="cls-12" x="1158.5" y="714.81" width="177.21" height="412.36"/><rect id="Rectangle_10" data-name="Rectangle 10" class="cls-12" x="1158.68" y="322.05" width="177.68" height="100.26"/><rect id="Rectangle_11" data-name="Rectangle 11" class="cls-12" x="1158.68" y="450.23" width="177.68" height="107.87"/><rect id="Rectangle_12" data-name="Rectangle 12" class="cls-12" x="1158.68" y="586.02" width="177.68" height="100.26"/><rect id="Rectangle_13" data-name="Rectangle 13" class="cls-13" x="908.93" y="714.81" width="213.21" height="158.73"/><rect id="Rectangle_14" data-name="Rectangle 14" class="cls-12" x="908.93" y="904.32" width="213.21" height="223.2"/><path id="Path_85" data-name="Path 85" class="cls-14" d="M869.42,729.34l29.68,15.07c10.59,5.38,20.81,4.46,24.73-6.76h0a19.62,19.62,0,0,0-12.06-25,19,19,0,0,0-2.87-.76l-28.2-5.27L759.9,666.55l-73.18-51.88L659.89,657.4,744.45,703Z"/><path id="Path_86" data-name="Path 86" class="cls-14" d="M730.88,1229.56l22.71-3.78-2.52-42.89h-24Z"/><path id="Path_87" data-name="Path 87" class="cls-14" d="M510.51,1187.67l22,6.86,17.08-39.43-21.4-10.8Z"/><path id="Path_88" data-name="Path 88" class="cls-15" d="M615,586.67c43.23-18.39,97.07-6.74,149.66,1.35.49-9.8,6.42-21.71.21-28.55-7.55-8.3-6.85-17-2.31-25.79,11.62-22.43-5-46.29-21.83-66.14a37.2,37.2,0,0,0-31.06-13l-31.13,2.22a37.29,37.29,0,0,0-33.1,26.64h0c-7.43,10.11-11.41,20.19-8.91,30.22-11.13,7.61-13,16.79-8,27.15q6.38,9.78-.19,19a87.85,87.85,0,0,0-13.06,26Z"/><path id="Path_89" data-name="Path 89" class="cls-15" d="M522.75,1150.09l27.75,11.35L683,987.37l41.63,204.35,27.75-5c17.8-176.18,32.32-355.88,14.51-440.87L664,741.38,617.36,890.23,594.65,991.15Z"/><path id="Path_90" data-name="Path 90" class="cls-15" d="M732.13,1264.25h0a19.93,19.93,0,0,0,12.35-1.31l13.49-6.08c11.31-.58,19,1.68,25.31-6.54a16.52,16.52,0,0,0,1.93-16.64h0a16.63,16.63,0,0,0-13.58-9.87l-18.52-11.68-1,8.75c-8.47,4.8-18.52,2.73-29.18-1.94l-5.81,20.35a19.92,19.92,0,0,0,13.68,24.63h0C731.26,1264,731.7,1264.15,732.13,1264.25Z"/><path id="Path_94" data-name="Path 94" class="cls-15" d="M501.52,1222.5h0a19.92,19.92,0,0,0,12.1,2.77l14.73-1.36c10.89,3.12,17.44,7.75,26.07,2a16.51,16.51,0,0,0,7.22-15.12h0a16.6,16.6,0,0,0-9.63-13.74L538.28,1180l-3.76,8c-9.57,1.79-18.4-3.43-27-11.31L495.45,1194a19.93,19.93,0,0,0,4.94,27.74h0C500.76,1222,501.13,1222.27,501.52,1222.5Z"/><circle id="Ellipse_2" data-name="Ellipse 2" class="cls-14" cx="701.87" cy="516.85" r="45.41"/><path id="Path_95" data-name="Path 95" class="cls-14" d="M646.37,612.72l59.28-12.62,7.57-49.2-41.62-8.82Z"/><path id="Path_96" data-name="Path 96" class="cls-13" d="M662.77,747.69h106l-23.89-60c1.74-20.63-7-35.81-19.52-49l-15.88-39.87c-25.66-16.89-45-15.62-65.6,6.31C619.42,639.73,636.33,691.7,662.77,747.69Z"/><path id="Path_97" data-name="Path 97" class="cls-14" d="M710.7,875.1l3,33.14c1.08,11.84,7.29,20,18.87,17.36h0a19.62,19.62,0,0,0,14.76-23.5,19,19,0,0,0-.88-2.84l-10.53-26.69L705.66,749l5-89.56H660.24l6.31,95.87Z"/><path id="Path_98" data-name="Path 98" class="cls-15" d="M631.14,577.07c4.88-44.24,17.39-81.91,39.1-111.66l3.25-.11v-.8L684,465l29.34-1c-.68.71-1.34,1.43-2,2.15l21.4.91L753,508.64a134.22,134.22,0,0,0-59.74-3.39,14.32,14.32,0,0,0-11.16,8.9,5.31,5.31,0,0,0,0,4.68c8.48,14.79,8.06,31-.56,48.1-1.89,3.72,1.73,8.21,2.86,12.32Z"/><path id="Path_99" data-name="Path 99" class="cls-13" d="M656.46,661.91h58l-4.06-37.85a26.27,26.27,0,0,0-24.93-25.15h0A26.26,26.26,0,0,0,658,623.82h0a2.53,2.53,0,0,1,0,.28Z"/><g id="SMART_SERVICE" data-name="SMART SERVICE" class="cls-16"><text class="cls-17" transform="translate(940.03 798.53)">SMA<tspan class="cls-18" x="47.74" y="0">R</tspan><tspan class="cls-19" x="62.34" y="0">T</tspan></text><text class="cls-17" transform="translate(940.03 822.53)">SER<tspan class="cls-20" x="41.18" y="0">V</tspan><tspan x="56.2" y="0">ICE</tspan></text></g><g id="Group_23" data-name="Group 23"><path id="Path_100" data-name="Path 100" class="cls-21" d="M1704.69,417.22l23.06-22.47-14.53-11.41Z"/><path id="Path_101" data-name="Path 101" class="cls-13" d="M1727.75,394.75h0l37.84,29.91,67-149.9L1713.22,383.34Z"/><path id="Path_102" data-name="Path 102" class="cls-22" d="M1682.11,369.89l150.5-95.13-184.5,84.56Z"/><path id="Path_103" data-name="Path 103" class="cls-23" d="M1704.69,417.21l8.53-33.87,119.39-108.58-150.5,95.13Z"/></g></g></g></g></g></svg>